%
M48
M72
T01C0.0276
T02C0.0320
T03C0.0354
T04C0.0400
T05C0.0440
T06C0.1180
T07C0.1300
%
T01
X16833Y12000
X16833Y13000
X16833Y14000
X16833Y15000
X18333Y15000
X18333Y16000
X16333Y16500
X15333Y16500
X14333Y19000
X14333Y20500
X14333Y24000
X13841Y27000
X14825Y27000
X17333Y26500
X18333Y26500
X21841Y28000
X22825Y28000
X26333Y16000
X26333Y15000
X28533Y12000
X28533Y11000
X28533Y8900
X28533Y8000
X24533Y6500
X23133Y6500
X21533Y6500
X20133Y6500
T02
X19333Y6000
X19333Y7000
X19333Y8000
X19333Y9000
X19333Y10000
X19333Y11000
X19333Y12000
X19333Y13000
X19333Y14000
X19333Y15000
X19333Y16000
X19333Y17000
X19333Y18000
X19333Y19000
X19333Y20000
X19333Y21000
X19333Y22000
X19333Y23000
X19333Y24000
X19333Y25000
X13833Y30500
X11833Y30500
X11833Y33500
X13833Y33500
X21333Y36500
X22333Y36500
X25333Y25000
X25333Y24000
X25333Y23000
X25333Y22000
X25333Y21000
X25333Y20000
X25333Y19000
X25333Y18000
X25333Y17000
X25333Y16000
X25333Y15000
X25333Y14000
X25333Y13000
X25333Y12000
X25333Y11000
X25333Y10000
X25333Y9000
X25333Y8000
X25333Y7000
X25333Y6000
X14833Y12550
X14833Y14450
T03
X15333Y17500
X18333Y17500
X21833Y31000
X21833Y34000
T04
X10333Y7000
X10333Y8000
X11333Y8000
X11333Y7000
X11333Y9000
X10333Y9000
X10333Y10000
X11333Y10000
X11333Y11000
X10333Y11000
X10333Y19000
X10333Y20000
X11333Y20000
X11333Y19000
X11333Y21000
X10333Y21000
X10333Y22000
X11333Y22000
X11333Y23000
X10333Y23000
X9553Y26110
X9553Y27890
X12113Y27890
X12113Y26110
X16333Y27500
X17333Y27500
X18333Y27500
X9333Y30500
X9333Y31500
X9333Y32500
X31333Y23000
X31333Y22000
X31333Y21000
X31333Y20000
X31333Y19000
X32333Y19000
X32333Y20000
X32333Y21000
X32333Y22000
X32333Y23000
X32333Y11000
X31333Y11000
X31333Y10000
X31333Y9000
X31333Y8000
X31333Y7000
X32333Y7000
X32333Y8000
X32333Y9000
X32333Y10000
T05
X11833Y14000
X10833Y14000
X10833Y15000
X10833Y16000
X11833Y16000
X11833Y15000
T06
X11546Y34650
X12727Y36500
X10365Y36500
T07
X17333Y36500
M30
