G75*
%MOIN*%
%OFA0B0*%
%FSLAX25Y25*%
%IPPOS*%
%LPD*%
%AMOC8*
5,1,8,0,0,1.08239X$1,22.5*
%
%ADD10C,0.05600*%
%ADD11OC8,0.05600*%
%ADD12C,0.06500*%
%ADD13R,0.06500X0.06500*%
%ADD14C,0.06400*%
%ADD15C,0.05600*%
%ADD16C,0.07400*%
%ADD17C,0.07400*%
%ADD18C,0.17000*%
%ADD19C,0.01600*%
%ADD20C,0.04756*%
%ADD21C,0.01000*%
%ADD22C,0.02400*%
%ADD23C,0.05000*%
%ADD24C,0.25400*%
%ADD25C,0.06600*%
D10*
X0148333Y0125500D03*
X0148333Y0144500D03*
X0118333Y0305000D03*
D11*
X0138333Y0305000D03*
X0138333Y0335000D03*
X0118333Y0335000D03*
X0213333Y0365000D03*
X0223333Y0365000D03*
D12*
X0228255Y0280000D03*
X0183333Y0265000D03*
X0173333Y0265000D03*
X0138412Y0270000D03*
X0153333Y0165000D03*
X0163333Y0165000D03*
X0168333Y0150000D03*
X0168333Y0140000D03*
X0168333Y0130000D03*
X0168333Y0120000D03*
X0183333Y0150000D03*
X0183333Y0160000D03*
X0263333Y0160000D03*
X0263333Y0150000D03*
D13*
X0148255Y0270000D03*
X0218412Y0280000D03*
D14*
X0183333Y0278200D02*
X0183333Y0271800D01*
X0173333Y0271800D02*
X0173333Y0278200D01*
X0163333Y0278200D02*
X0163333Y0271800D01*
D15*
X0143333Y0260000D02*
X0138333Y0265000D01*
X0138333Y0270079D01*
X0138412Y0270000D01*
X0138333Y0270079D02*
X0138333Y0275000D01*
X0134433Y0278900D01*
X0121133Y0278900D01*
X0138333Y0275000D02*
X0138333Y0305000D01*
X0190533Y0250000D02*
X0196133Y0250000D01*
X0196133Y0240000D02*
X0190533Y0240000D01*
X0190533Y0230000D02*
X0196133Y0230000D01*
X0196133Y0220000D02*
X0190533Y0220000D01*
X0190533Y0210000D02*
X0196133Y0210000D01*
X0196133Y0200000D02*
X0190533Y0200000D01*
X0190533Y0190000D02*
X0196133Y0190000D01*
X0196133Y0180000D02*
X0190533Y0180000D01*
X0190533Y0170000D02*
X0196133Y0170000D01*
X0196133Y0160000D02*
X0190533Y0160000D01*
X0190533Y0150000D02*
X0196133Y0150000D01*
X0196133Y0140000D02*
X0190533Y0140000D01*
X0190533Y0130000D02*
X0196133Y0130000D01*
X0196133Y0120000D02*
X0190533Y0120000D01*
X0190533Y0110000D02*
X0196133Y0110000D01*
X0196133Y0100000D02*
X0190533Y0100000D01*
X0190533Y0090000D02*
X0196133Y0090000D01*
X0196133Y0080000D02*
X0190533Y0080000D01*
X0190533Y0070000D02*
X0196133Y0070000D01*
X0196133Y0060000D02*
X0190533Y0060000D01*
X0250533Y0060000D02*
X0256133Y0060000D01*
X0256133Y0070000D02*
X0250533Y0070000D01*
X0250533Y0080000D02*
X0256133Y0080000D01*
X0256133Y0090000D02*
X0250533Y0090000D01*
X0250533Y0100000D02*
X0256133Y0100000D01*
X0256133Y0110000D02*
X0250533Y0110000D01*
X0250533Y0120000D02*
X0256133Y0120000D01*
X0256133Y0130000D02*
X0250533Y0130000D01*
X0250533Y0140000D02*
X0256133Y0140000D01*
X0256133Y0150000D02*
X0250533Y0150000D01*
X0250533Y0160000D02*
X0256133Y0160000D01*
X0256133Y0170000D02*
X0250533Y0170000D01*
X0250533Y0180000D02*
X0256133Y0180000D01*
X0256133Y0190000D02*
X0250533Y0190000D01*
X0250533Y0200000D02*
X0256133Y0200000D01*
X0256133Y0210000D02*
X0250533Y0210000D01*
X0250533Y0220000D02*
X0256133Y0220000D01*
X0256133Y0230000D02*
X0250533Y0230000D01*
X0250533Y0240000D02*
X0256133Y0240000D01*
X0256133Y0250000D02*
X0250533Y0250000D01*
X0223333Y0260000D02*
X0218333Y0265000D01*
D16*
X0125733Y0160000D02*
X0118333Y0160000D01*
X0108333Y0160000D02*
X0100933Y0160000D01*
X0100933Y0150000D02*
X0108333Y0150000D01*
X0118333Y0150000D02*
X0125733Y0150000D01*
X0125733Y0140000D02*
X0118333Y0140000D01*
X0108333Y0140000D02*
X0100933Y0140000D01*
D17*
X0103333Y0110000D03*
X0113333Y0110000D03*
X0113333Y0100000D03*
X0103333Y0100000D03*
X0103333Y0090000D03*
X0113333Y0090000D03*
X0113333Y0080000D03*
X0103333Y0080000D03*
X0103333Y0070000D03*
X0113333Y0070000D03*
X0153333Y0175000D03*
X0183333Y0175000D03*
X0113333Y0190000D03*
X0103333Y0190000D03*
X0103333Y0200000D03*
X0113333Y0200000D03*
X0113333Y0210000D03*
X0103333Y0210000D03*
X0103333Y0220000D03*
X0113333Y0220000D03*
X0113333Y0230000D03*
X0103333Y0230000D03*
X0095533Y0261100D03*
X0095533Y0278900D03*
X0121133Y0278900D03*
X0121133Y0261100D03*
X0093333Y0305000D03*
X0093333Y0315000D03*
X0093333Y0325000D03*
X0218333Y0310000D03*
X0218333Y0340000D03*
X0313333Y0230000D03*
X0313333Y0220000D03*
X0313333Y0210000D03*
X0313333Y0200000D03*
X0313333Y0190000D03*
X0323333Y0190000D03*
X0323333Y0200000D03*
X0323333Y0210000D03*
X0323333Y0220000D03*
X0323333Y0230000D03*
X0323333Y0110000D03*
X0313333Y0110000D03*
X0313333Y0100000D03*
X0313333Y0090000D03*
X0313333Y0080000D03*
X0313333Y0070000D03*
X0323333Y0070000D03*
X0323333Y0080000D03*
X0323333Y0090000D03*
X0323333Y0100000D03*
D18*
X0115459Y0346496D03*
X0103648Y0365000D03*
X0127270Y0365000D03*
D19*
X0121133Y0278900D02*
X0095533Y0278900D01*
X0095533Y0261100D02*
X0121133Y0261100D01*
X0142233Y0240000D01*
X0143333Y0240000D01*
X0118333Y0235000D02*
X0178333Y0235000D01*
X0193333Y0250000D01*
X0193333Y0240000D02*
X0183333Y0230000D01*
X0113333Y0230000D01*
X0118333Y0225000D02*
X0188333Y0225000D01*
X0193333Y0230000D01*
X0193333Y0220000D02*
X0113333Y0220000D01*
X0118333Y0215000D02*
X0133333Y0215000D01*
X0138333Y0210000D01*
X0193333Y0210000D01*
X0188333Y0205000D02*
X0143333Y0205000D01*
X0132333Y0205000D01*
X0127333Y0210000D01*
X0113333Y0210000D01*
X0118333Y0205000D02*
X0123333Y0205000D01*
X0128333Y0200000D01*
X0183333Y0200000D01*
X0193333Y0190000D01*
X0193333Y0200000D02*
X0188333Y0205000D01*
X0178333Y0195000D02*
X0133333Y0195000D01*
X0133333Y0180000D01*
X0123333Y0170000D01*
X0098333Y0170000D01*
X0093333Y0165000D01*
X0093333Y0155000D01*
X0098333Y0150000D01*
X0108333Y0150000D01*
X0118333Y0150000D02*
X0128333Y0150000D01*
X0143333Y0165000D01*
X0143333Y0190000D01*
X0133333Y0195000D02*
X0128333Y0195000D01*
X0123333Y0200000D01*
X0118333Y0200000D01*
X0143333Y0160000D02*
X0158333Y0160000D01*
X0163333Y0165000D01*
X0168333Y0170000D01*
X0193333Y0170000D01*
X0188333Y0170000D01*
X0183333Y0175000D01*
X0193333Y0180000D02*
X0178333Y0195000D01*
X0143333Y0160000D02*
X0133333Y0150000D01*
X0133333Y0135000D01*
X0128333Y0130000D01*
X0118333Y0130000D01*
X0108333Y0140000D01*
X0118333Y0150000D02*
X0123333Y0150000D01*
X0130333Y0116000D02*
X0108333Y0116000D01*
X0103333Y0111000D01*
X0103333Y0110000D01*
X0113333Y0110000D02*
X0128333Y0110000D01*
X0133333Y0105000D01*
X0178333Y0105000D01*
X0183333Y0110000D01*
X0193333Y0110000D01*
X0193333Y0120000D02*
X0183333Y0120000D01*
X0173333Y0110000D01*
X0136333Y0110000D01*
X0130333Y0116000D01*
X0123333Y0105000D02*
X0128333Y0100000D01*
X0193333Y0100000D01*
X0188333Y0095000D02*
X0193333Y0090000D01*
X0188333Y0095000D02*
X0126333Y0095000D01*
X0121333Y0100000D01*
X0113333Y0100000D01*
X0118333Y0095000D02*
X0123333Y0090000D01*
X0183333Y0090000D01*
X0193333Y0080000D01*
X0193333Y0070000D02*
X0178333Y0085000D01*
X0118333Y0085000D01*
X0113333Y0090000D01*
X0113333Y0080000D02*
X0173333Y0080000D01*
X0188333Y0065000D01*
X0201333Y0065000D01*
X0193333Y0060000D02*
X0183333Y0060000D01*
X0168333Y0075000D01*
X0118333Y0075000D01*
X0118333Y0105000D02*
X0123333Y0105000D01*
X0215333Y0065000D02*
X0231333Y0065000D01*
X0245333Y0065000D02*
X0248333Y0065000D01*
X0253333Y0060000D01*
X0253333Y0180000D02*
X0268333Y0180000D01*
X0283333Y0195000D01*
X0308333Y0195000D01*
X0313333Y0200000D02*
X0278333Y0200000D01*
X0268333Y0190000D01*
X0253333Y0190000D01*
X0253333Y0200000D02*
X0268333Y0200000D01*
X0273333Y0205000D01*
X0308333Y0205000D01*
X0313333Y0210000D02*
X0253333Y0210000D01*
X0253333Y0220000D02*
X0268333Y0220000D01*
X0273333Y0215000D01*
X0308333Y0215000D01*
X0313333Y0220000D02*
X0278333Y0220000D01*
X0268333Y0230000D01*
X0253333Y0230000D01*
X0253333Y0240000D02*
X0268333Y0240000D01*
X0283333Y0225000D01*
X0308333Y0225000D01*
X0313333Y0230000D02*
X0288333Y0230000D01*
X0268333Y0250000D01*
X0253333Y0250000D01*
D20*
X0143333Y0240000D03*
X0143333Y0205000D03*
X0143333Y0190000D03*
X0201333Y0065000D03*
X0215333Y0065000D03*
X0231333Y0065000D03*
X0245333Y0065000D03*
X0285333Y0080000D03*
X0285333Y0089000D03*
X0285333Y0110000D03*
X0285333Y0120000D03*
D21*
X0084833Y0046500D02*
X0084833Y0383461D01*
X0335534Y0383461D01*
X0335534Y0046500D01*
X0084833Y0046500D01*
X0084833Y0046997D02*
X0335534Y0046997D01*
X0335534Y0047996D02*
X0084833Y0047996D01*
X0084833Y0048994D02*
X0335534Y0048994D01*
X0335534Y0049993D02*
X0084833Y0049993D01*
X0084833Y0050991D02*
X0335534Y0050991D01*
X0335534Y0051990D02*
X0084833Y0051990D01*
X0084833Y0052988D02*
X0335534Y0052988D01*
X0335534Y0053987D02*
X0084833Y0053987D01*
X0084833Y0054985D02*
X0335534Y0054985D01*
X0335534Y0055984D02*
X0257673Y0055984D01*
X0256989Y0055700D02*
X0258569Y0056355D01*
X0259779Y0057564D01*
X0260433Y0059145D01*
X0260433Y0060855D01*
X0259779Y0062436D01*
X0258569Y0063645D01*
X0256989Y0064300D01*
X0252286Y0064300D01*
X0250886Y0065700D01*
X0256989Y0065700D01*
X0258569Y0066355D01*
X0259779Y0067564D01*
X0260433Y0069145D01*
X0260433Y0070855D01*
X0259779Y0072436D01*
X0258569Y0073645D01*
X0256989Y0074300D01*
X0249678Y0074300D01*
X0248098Y0073645D01*
X0246888Y0072436D01*
X0246233Y0070855D01*
X0246233Y0069145D01*
X0246393Y0068758D01*
X0246105Y0068878D01*
X0244562Y0068878D01*
X0243137Y0068288D01*
X0242046Y0067197D01*
X0241455Y0065771D01*
X0241455Y0064229D01*
X0242046Y0062803D01*
X0243137Y0061712D01*
X0244562Y0061122D01*
X0246105Y0061122D01*
X0246393Y0061242D01*
X0246233Y0060855D01*
X0246233Y0059145D01*
X0246888Y0057564D01*
X0248098Y0056355D01*
X0249678Y0055700D01*
X0256989Y0055700D01*
X0259197Y0056982D02*
X0335534Y0056982D01*
X0335534Y0057981D02*
X0259951Y0057981D01*
X0260365Y0058979D02*
X0335534Y0058979D01*
X0335534Y0059978D02*
X0260433Y0059978D01*
X0260383Y0060976D02*
X0335534Y0060976D01*
X0335534Y0061975D02*
X0259970Y0061975D01*
X0259241Y0062973D02*
X0335534Y0062973D01*
X0335534Y0063972D02*
X0257781Y0063972D01*
X0257637Y0065969D02*
X0310011Y0065969D01*
X0310388Y0065592D02*
X0312299Y0064800D01*
X0314368Y0064800D01*
X0316279Y0065592D01*
X0317742Y0067054D01*
X0318348Y0068517D01*
X0318514Y0068004D01*
X0318886Y0067275D01*
X0319367Y0066612D01*
X0319946Y0066034D01*
X0320608Y0065553D01*
X0321337Y0065181D01*
X0322116Y0064928D01*
X0322833Y0064814D01*
X0322833Y0069500D01*
X0323833Y0069500D01*
X0323833Y0064814D01*
X0324551Y0064928D01*
X0325329Y0065181D01*
X0326059Y0065553D01*
X0326721Y0066034D01*
X0327300Y0066612D01*
X0327781Y0067275D01*
X0328152Y0068004D01*
X0328405Y0068782D01*
X0328519Y0069500D01*
X0323833Y0069500D01*
X0323833Y0070500D01*
X0328519Y0070500D01*
X0328405Y0071218D01*
X0328152Y0071996D01*
X0327781Y0072725D01*
X0327300Y0073388D01*
X0326721Y0073966D01*
X0326059Y0074447D01*
X0325329Y0074819D01*
X0324816Y0074986D01*
X0326279Y0075592D01*
X0327742Y0077054D01*
X0328533Y0078966D01*
X0328533Y0081034D01*
X0327742Y0082946D01*
X0326279Y0084408D01*
X0324850Y0085000D01*
X0326279Y0085592D01*
X0327742Y0087054D01*
X0328533Y0088966D01*
X0328533Y0091034D01*
X0327742Y0092946D01*
X0326279Y0094408D01*
X0324850Y0095000D01*
X0326279Y0095592D01*
X0327742Y0097054D01*
X0328533Y0098966D01*
X0328533Y0101034D01*
X0327742Y0102946D01*
X0326279Y0104408D01*
X0324850Y0105000D01*
X0326279Y0105592D01*
X0327742Y0107054D01*
X0328533Y0108966D01*
X0328533Y0111034D01*
X0327742Y0112946D01*
X0326279Y0114408D01*
X0324368Y0115200D01*
X0322299Y0115200D01*
X0320388Y0114408D01*
X0318925Y0112946D01*
X0318333Y0111517D01*
X0317742Y0112946D01*
X0316279Y0114408D01*
X0314368Y0115200D01*
X0312299Y0115200D01*
X0310388Y0114408D01*
X0308925Y0112946D01*
X0308133Y0111034D01*
X0308133Y0108966D01*
X0308925Y0107054D01*
X0310388Y0105592D01*
X0311816Y0105000D01*
X0310388Y0104408D01*
X0308925Y0102946D01*
X0308133Y0101034D01*
X0308133Y0099138D01*
X0289101Y0118963D01*
X0289211Y0119229D01*
X0289211Y0120771D01*
X0288621Y0122197D01*
X0287530Y0123288D01*
X0286105Y0123878D01*
X0284562Y0123878D01*
X0283137Y0123288D01*
X0282046Y0122197D01*
X0281455Y0120771D01*
X0281455Y0119229D01*
X0282046Y0117803D01*
X0283137Y0116712D01*
X0284562Y0116122D01*
X0286105Y0116122D01*
X0286233Y0116175D01*
X0307333Y0094195D01*
X0307333Y0094172D01*
X0307905Y0093600D01*
X0308464Y0093017D01*
X0308488Y0093017D01*
X0308505Y0093000D01*
X0308979Y0093000D01*
X0308925Y0092946D01*
X0308533Y0092000D01*
X0306162Y0092000D01*
X0289130Y0109032D01*
X0289211Y0109229D01*
X0289211Y0110771D01*
X0288621Y0112197D01*
X0287530Y0113288D01*
X0286105Y0113878D01*
X0284562Y0113878D01*
X0283137Y0113288D01*
X0282046Y0112197D01*
X0281455Y0110771D01*
X0281455Y0109706D01*
X0270333Y0120828D01*
X0270333Y0130828D01*
X0269162Y0132000D01*
X0260433Y0140728D01*
X0260433Y0140855D01*
X0259779Y0142436D01*
X0258569Y0143645D01*
X0256989Y0144300D01*
X0249678Y0144300D01*
X0248098Y0143645D01*
X0246888Y0142436D01*
X0246233Y0140855D01*
X0246233Y0139145D01*
X0246888Y0137564D01*
X0248098Y0136355D01*
X0249678Y0135700D01*
X0256989Y0135700D01*
X0258569Y0136355D01*
X0258860Y0136645D01*
X0266333Y0129172D01*
X0266333Y0119828D01*
X0265333Y0120828D01*
X0265333Y0125828D01*
X0264162Y0127000D01*
X0260433Y0130728D01*
X0260433Y0130855D01*
X0259779Y0132436D01*
X0258569Y0133645D01*
X0256989Y0134300D01*
X0249678Y0134300D01*
X0248098Y0133645D01*
X0246888Y0132436D01*
X0246233Y0130855D01*
X0246233Y0129145D01*
X0246888Y0127564D01*
X0248098Y0126355D01*
X0249678Y0125700D01*
X0256989Y0125700D01*
X0258569Y0126355D01*
X0258860Y0126645D01*
X0261333Y0124172D01*
X0261333Y0119172D01*
X0301333Y0079172D01*
X0302505Y0078000D01*
X0308533Y0078000D01*
X0308925Y0077054D01*
X0310388Y0075592D01*
X0311816Y0075000D01*
X0310388Y0074408D01*
X0308925Y0072946D01*
X0308133Y0071034D01*
X0308133Y0068966D01*
X0308925Y0067054D01*
X0310388Y0065592D01*
X0311888Y0064970D02*
X0251616Y0064970D01*
X0246308Y0068964D02*
X0200359Y0068964D01*
X0200433Y0069145D02*
X0200433Y0070855D01*
X0199779Y0072436D01*
X0198569Y0073645D01*
X0196989Y0074300D01*
X0192286Y0074300D01*
X0190886Y0075700D01*
X0196989Y0075700D01*
X0198569Y0076355D01*
X0199779Y0077564D01*
X0200433Y0079145D01*
X0200433Y0080855D01*
X0199779Y0082436D01*
X0198569Y0083645D01*
X0196989Y0084300D01*
X0192286Y0084300D01*
X0190886Y0085700D01*
X0196989Y0085700D01*
X0198569Y0086355D01*
X0199779Y0087564D01*
X0200433Y0089145D01*
X0200433Y0090855D01*
X0199779Y0092436D01*
X0198569Y0093645D01*
X0196989Y0094300D01*
X0192286Y0094300D01*
X0190886Y0095700D01*
X0196989Y0095700D01*
X0198569Y0096355D01*
X0199779Y0097564D01*
X0200433Y0099145D01*
X0200433Y0100855D01*
X0199779Y0102436D01*
X0198569Y0103645D01*
X0196989Y0104300D01*
X0189678Y0104300D01*
X0188098Y0103645D01*
X0186888Y0102436D01*
X0186832Y0102300D01*
X0129286Y0102300D01*
X0124286Y0107300D01*
X0117843Y0107300D01*
X0118009Y0107700D01*
X0127381Y0107700D01*
X0131033Y0104047D01*
X0132381Y0102700D01*
X0179286Y0102700D01*
X0180633Y0104047D01*
X0184286Y0107700D01*
X0186832Y0107700D01*
X0186888Y0107564D01*
X0188098Y0106355D01*
X0189678Y0105700D01*
X0196989Y0105700D01*
X0198569Y0106355D01*
X0199779Y0107564D01*
X0200433Y0109145D01*
X0200433Y0110855D01*
X0199779Y0112436D01*
X0198569Y0113645D01*
X0196989Y0114300D01*
X0189678Y0114300D01*
X0188098Y0113645D01*
X0186888Y0112436D01*
X0186832Y0112300D01*
X0182381Y0112300D01*
X0177381Y0107300D01*
X0134286Y0107300D01*
X0130633Y0110953D01*
X0129286Y0112300D01*
X0118009Y0112300D01*
X0117742Y0112946D01*
X0116987Y0113700D01*
X0129381Y0113700D01*
X0134033Y0109047D01*
X0135381Y0107700D01*
X0174286Y0107700D01*
X0184286Y0117700D01*
X0186832Y0117700D01*
X0186888Y0117564D01*
X0188098Y0116355D01*
X0189678Y0115700D01*
X0196989Y0115700D01*
X0198569Y0116355D01*
X0199779Y0117564D01*
X0200433Y0119145D01*
X0200433Y0120855D01*
X0199779Y0122436D01*
X0198569Y0123645D01*
X0196989Y0124300D01*
X0189678Y0124300D01*
X0188098Y0123645D01*
X0186888Y0122436D01*
X0186832Y0122300D01*
X0182381Y0122300D01*
X0172381Y0112300D01*
X0137286Y0112300D01*
X0132633Y0116953D01*
X0131286Y0118300D01*
X0107381Y0118300D01*
X0106033Y0116953D01*
X0106033Y0116953D01*
X0104281Y0115200D01*
X0102299Y0115200D01*
X0100388Y0114408D01*
X0098925Y0112946D01*
X0098133Y0111034D01*
X0098133Y0108966D01*
X0098925Y0107054D01*
X0100388Y0105592D01*
X0101816Y0105000D01*
X0100388Y0104408D01*
X0098925Y0102946D01*
X0098133Y0101034D01*
X0098133Y0098966D01*
X0098925Y0097054D01*
X0100388Y0095592D01*
X0101816Y0095000D01*
X0100388Y0094408D01*
X0098925Y0092946D01*
X0098133Y0091034D01*
X0098133Y0088966D01*
X0098925Y0087054D01*
X0100388Y0085592D01*
X0101816Y0085000D01*
X0100388Y0084408D01*
X0098925Y0082946D01*
X0098133Y0081034D01*
X0098133Y0078966D01*
X0098925Y0077054D01*
X0100388Y0075592D01*
X0101816Y0075000D01*
X0100388Y0074408D01*
X0098925Y0072946D01*
X0098133Y0071034D01*
X0098133Y0068966D01*
X0098925Y0067054D01*
X0100388Y0065592D01*
X0102299Y0064800D01*
X0104368Y0064800D01*
X0106279Y0065592D01*
X0107742Y0067054D01*
X0108348Y0068517D01*
X0108514Y0068004D01*
X0108886Y0067275D01*
X0109367Y0066612D01*
X0109946Y0066034D01*
X0110608Y0065553D01*
X0111337Y0065181D01*
X0112116Y0064928D01*
X0112833Y0064814D01*
X0112833Y0069500D01*
X0113833Y0069500D01*
X0113833Y0064814D01*
X0114551Y0064928D01*
X0115329Y0065181D01*
X0116059Y0065553D01*
X0116721Y0066034D01*
X0117300Y0066612D01*
X0117781Y0067275D01*
X0118152Y0068004D01*
X0118405Y0068782D01*
X0118519Y0069500D01*
X0113833Y0069500D01*
X0113833Y0070500D01*
X0118519Y0070500D01*
X0118405Y0071218D01*
X0118152Y0071996D01*
X0117794Y0072700D01*
X0167381Y0072700D01*
X0181033Y0059047D01*
X0182381Y0057700D01*
X0186832Y0057700D01*
X0186888Y0057564D01*
X0188098Y0056355D01*
X0189678Y0055700D01*
X0196989Y0055700D01*
X0198569Y0056355D01*
X0199779Y0057564D01*
X0200433Y0059145D01*
X0200433Y0060855D01*
X0200273Y0061242D01*
X0200562Y0061122D01*
X0202105Y0061122D01*
X0203530Y0061712D01*
X0204621Y0062803D01*
X0205211Y0064229D01*
X0205211Y0065771D01*
X0204621Y0067197D01*
X0203530Y0068288D01*
X0202105Y0068878D01*
X0200562Y0068878D01*
X0200273Y0068758D01*
X0200433Y0069145D01*
X0200433Y0069963D02*
X0246233Y0069963D01*
X0246277Y0070961D02*
X0200389Y0070961D01*
X0199976Y0071960D02*
X0246691Y0071960D01*
X0247411Y0072958D02*
X0199256Y0072958D01*
X0197817Y0073957D02*
X0248850Y0073957D01*
X0249678Y0075700D02*
X0248098Y0076355D01*
X0246888Y0077564D01*
X0246233Y0079145D01*
X0246233Y0080855D01*
X0246888Y0082436D01*
X0248098Y0083645D01*
X0249678Y0084300D01*
X0256989Y0084300D01*
X0258569Y0083645D01*
X0259779Y0082436D01*
X0260433Y0080855D01*
X0260433Y0079145D01*
X0259779Y0077564D01*
X0258569Y0076355D01*
X0256989Y0075700D01*
X0249678Y0075700D01*
X0249065Y0075954D02*
X0197601Y0075954D01*
X0199167Y0076952D02*
X0247500Y0076952D01*
X0246728Y0077951D02*
X0199939Y0077951D01*
X0200352Y0078949D02*
X0246314Y0078949D01*
X0246233Y0079948D02*
X0200433Y0079948D01*
X0200396Y0080946D02*
X0246271Y0080946D01*
X0246685Y0081945D02*
X0199982Y0081945D01*
X0199271Y0082943D02*
X0247396Y0082943D01*
X0248814Y0083942D02*
X0197853Y0083942D01*
X0197566Y0085939D02*
X0249101Y0085939D01*
X0249678Y0085700D02*
X0248098Y0086355D01*
X0246888Y0087564D01*
X0246233Y0089145D01*
X0246233Y0090855D01*
X0246888Y0092436D01*
X0248098Y0093645D01*
X0249678Y0094300D01*
X0256989Y0094300D01*
X0258569Y0093645D01*
X0259779Y0092436D01*
X0259959Y0092000D01*
X0269162Y0092000D01*
X0270333Y0090828D01*
X0279162Y0082000D01*
X0281964Y0082000D01*
X0282046Y0082197D01*
X0283137Y0083288D01*
X0284562Y0083878D01*
X0286105Y0083878D01*
X0287530Y0083288D01*
X0288621Y0082197D01*
X0289211Y0080771D01*
X0289211Y0079229D01*
X0288621Y0077803D01*
X0287530Y0076712D01*
X0286105Y0076122D01*
X0284562Y0076122D01*
X0283137Y0076712D01*
X0282046Y0077803D01*
X0281964Y0078000D01*
X0277505Y0078000D01*
X0267505Y0088000D01*
X0259959Y0088000D01*
X0259779Y0087564D01*
X0258569Y0086355D01*
X0256989Y0085700D01*
X0249678Y0085700D01*
X0247515Y0086937D02*
X0199152Y0086937D01*
X0199933Y0087936D02*
X0246734Y0087936D01*
X0246320Y0088934D02*
X0200346Y0088934D01*
X0200433Y0089933D02*
X0246233Y0089933D01*
X0246265Y0090932D02*
X0200402Y0090932D01*
X0199988Y0091930D02*
X0246678Y0091930D01*
X0247381Y0092929D02*
X0199286Y0092929D01*
X0197889Y0093927D02*
X0248778Y0093927D01*
X0249678Y0095700D02*
X0248098Y0096355D01*
X0246888Y0097564D01*
X0246233Y0099145D01*
X0246233Y0100855D01*
X0246888Y0102436D01*
X0248098Y0103645D01*
X0249678Y0104300D01*
X0256989Y0104300D01*
X0258569Y0103645D01*
X0259779Y0102436D01*
X0259959Y0102000D01*
X0275162Y0102000D01*
X0276333Y0100828D01*
X0284365Y0092796D01*
X0284562Y0092878D01*
X0286105Y0092878D01*
X0287530Y0092288D01*
X0288621Y0091197D01*
X0289211Y0089771D01*
X0289211Y0088229D01*
X0288621Y0086803D01*
X0287530Y0085712D01*
X0286105Y0085122D01*
X0284562Y0085122D01*
X0283137Y0085712D01*
X0282046Y0086803D01*
X0281455Y0088229D01*
X0281455Y0089771D01*
X0281537Y0089968D01*
X0273505Y0098000D01*
X0259959Y0098000D01*
X0259779Y0097564D01*
X0258569Y0096355D01*
X0256989Y0095700D01*
X0249678Y0095700D01*
X0249137Y0095924D02*
X0197530Y0095924D01*
X0199137Y0096923D02*
X0247530Y0096923D01*
X0246740Y0097921D02*
X0199926Y0097921D01*
X0200340Y0098920D02*
X0246327Y0098920D01*
X0246233Y0099918D02*
X0200433Y0099918D01*
X0200408Y0100917D02*
X0246259Y0100917D01*
X0246672Y0101915D02*
X0199994Y0101915D01*
X0199301Y0102914D02*
X0247366Y0102914D01*
X0248742Y0103912D02*
X0197925Y0103912D01*
X0197494Y0105909D02*
X0249173Y0105909D01*
X0249678Y0105700D02*
X0248098Y0106355D01*
X0246888Y0107564D01*
X0246233Y0109145D01*
X0246233Y0110855D01*
X0246888Y0112436D01*
X0248098Y0113645D01*
X0249678Y0114300D01*
X0256989Y0114300D01*
X0258569Y0113645D01*
X0259779Y0112436D01*
X0260433Y0110855D01*
X0260433Y0109145D01*
X0259779Y0107564D01*
X0258569Y0106355D01*
X0256989Y0105700D01*
X0249678Y0105700D01*
X0247545Y0106908D02*
X0199122Y0106908D01*
X0199920Y0107906D02*
X0246746Y0107906D01*
X0246333Y0108905D02*
X0200334Y0108905D01*
X0200433Y0109903D02*
X0246233Y0109903D01*
X0246253Y0110902D02*
X0200414Y0110902D01*
X0200000Y0111900D02*
X0246666Y0111900D01*
X0247351Y0112899D02*
X0199316Y0112899D01*
X0197961Y0113897D02*
X0248706Y0113897D01*
X0249678Y0115700D02*
X0248098Y0116355D01*
X0246888Y0117564D01*
X0246233Y0119145D01*
X0246233Y0120855D01*
X0246888Y0122436D01*
X0248098Y0123645D01*
X0249678Y0124300D01*
X0256989Y0124300D01*
X0258569Y0123645D01*
X0259779Y0122436D01*
X0260433Y0120855D01*
X0260433Y0119145D01*
X0259779Y0117564D01*
X0258569Y0116355D01*
X0256989Y0115700D01*
X0249678Y0115700D01*
X0249209Y0115894D02*
X0197458Y0115894D01*
X0199107Y0116893D02*
X0247559Y0116893D01*
X0246752Y0117891D02*
X0199914Y0117891D01*
X0200328Y0118890D02*
X0246339Y0118890D01*
X0246233Y0119888D02*
X0200433Y0119888D01*
X0200420Y0120887D02*
X0246246Y0120887D01*
X0246660Y0121885D02*
X0200007Y0121885D01*
X0199331Y0122884D02*
X0247336Y0122884D01*
X0248670Y0123882D02*
X0197997Y0123882D01*
X0197422Y0125879D02*
X0249245Y0125879D01*
X0247574Y0126878D02*
X0199092Y0126878D01*
X0198569Y0126355D02*
X0199779Y0127564D01*
X0200433Y0129145D01*
X0200433Y0130855D01*
X0199779Y0132436D01*
X0198569Y0133645D01*
X0196989Y0134300D01*
X0189678Y0134300D01*
X0188098Y0133645D01*
X0187152Y0132700D01*
X0177796Y0132700D01*
X0176804Y0132289D01*
X0172756Y0128241D01*
X0172966Y0128888D01*
X0173083Y0129626D01*
X0173083Y0129811D01*
X0168522Y0129811D01*
X0168522Y0125250D01*
X0168707Y0125250D01*
X0169446Y0125367D01*
X0170092Y0125577D01*
X0169265Y0124750D01*
X0167402Y0124750D01*
X0166575Y0125577D01*
X0167221Y0125367D01*
X0167959Y0125250D01*
X0168144Y0125250D01*
X0168144Y0129811D01*
X0163583Y0129811D01*
X0163583Y0129626D01*
X0163700Y0128888D01*
X0163931Y0128177D01*
X0164066Y0127912D01*
X0163370Y0128200D01*
X0151714Y0128200D01*
X0150769Y0129145D01*
X0149189Y0129800D01*
X0147478Y0129800D01*
X0145898Y0129145D01*
X0144688Y0127936D01*
X0144033Y0126355D01*
X0144033Y0124645D01*
X0144688Y0123064D01*
X0145898Y0121855D01*
X0147478Y0121200D01*
X0149189Y0121200D01*
X0150769Y0121855D01*
X0151714Y0122800D01*
X0161715Y0122800D01*
X0163583Y0120932D01*
X0163583Y0119055D01*
X0164306Y0117309D01*
X0165643Y0115973D01*
X0167388Y0115250D01*
X0169278Y0115250D01*
X0171024Y0115973D01*
X0172360Y0117309D01*
X0173083Y0119055D01*
X0173083Y0120932D01*
X0179452Y0127300D01*
X0187152Y0127300D01*
X0188098Y0126355D01*
X0189678Y0125700D01*
X0196989Y0125700D01*
X0198569Y0126355D01*
X0199908Y0127876D02*
X0246759Y0127876D01*
X0246345Y0128875D02*
X0200322Y0128875D01*
X0200433Y0129873D02*
X0246233Y0129873D01*
X0246240Y0130872D02*
X0200426Y0130872D01*
X0200013Y0131870D02*
X0246654Y0131870D01*
X0247321Y0132869D02*
X0199345Y0132869D01*
X0198033Y0133868D02*
X0248634Y0133868D01*
X0249281Y0135865D02*
X0197386Y0135865D01*
X0196989Y0135700D02*
X0198569Y0136355D01*
X0199779Y0137564D01*
X0200433Y0139145D01*
X0200433Y0140855D01*
X0199779Y0142436D01*
X0198569Y0143645D01*
X0196989Y0144300D01*
X0189678Y0144300D01*
X0188098Y0143645D01*
X0187152Y0142700D01*
X0179452Y0142700D01*
X0173083Y0149068D01*
X0173083Y0150945D01*
X0172360Y0152691D01*
X0171024Y0154027D01*
X0169278Y0154750D01*
X0167388Y0154750D01*
X0165643Y0154027D01*
X0164306Y0152691D01*
X0163583Y0150945D01*
X0163583Y0149068D01*
X0161715Y0147200D01*
X0151714Y0147200D01*
X0150769Y0148145D01*
X0149189Y0148800D01*
X0147478Y0148800D01*
X0145898Y0148145D01*
X0144688Y0146936D01*
X0144033Y0145355D01*
X0144033Y0143645D01*
X0144688Y0142064D01*
X0145898Y0140855D01*
X0147478Y0140200D01*
X0149189Y0140200D01*
X0150769Y0140855D01*
X0151714Y0141800D01*
X0163370Y0141800D01*
X0164066Y0142088D01*
X0163931Y0141823D01*
X0163700Y0141112D01*
X0163583Y0140374D01*
X0163583Y0140189D01*
X0168144Y0140189D01*
X0168144Y0139811D01*
X0163583Y0139811D01*
X0163583Y0139626D01*
X0163700Y0138888D01*
X0163931Y0138177D01*
X0164271Y0137510D01*
X0164710Y0136906D01*
X0165239Y0136377D01*
X0165844Y0135937D01*
X0166510Y0135598D01*
X0167221Y0135367D01*
X0167959Y0135250D01*
X0168144Y0135250D01*
X0168144Y0139811D01*
X0168522Y0139811D01*
X0168522Y0135250D01*
X0168707Y0135250D01*
X0169446Y0135367D01*
X0170157Y0135598D01*
X0170823Y0135937D01*
X0171428Y0136377D01*
X0171956Y0136906D01*
X0172396Y0137510D01*
X0172735Y0138177D01*
X0172966Y0138888D01*
X0173083Y0139626D01*
X0173083Y0139811D01*
X0168522Y0139811D01*
X0168522Y0140189D01*
X0168144Y0140189D01*
X0168144Y0144750D01*
X0167959Y0144750D01*
X0167221Y0144633D01*
X0166575Y0144423D01*
X0167402Y0145250D01*
X0169265Y0145250D01*
X0170092Y0144423D01*
X0169446Y0144633D01*
X0168707Y0144750D01*
X0168522Y0144750D01*
X0168522Y0140189D01*
X0173083Y0140189D01*
X0173083Y0140374D01*
X0172966Y0141112D01*
X0172756Y0141759D01*
X0176044Y0138471D01*
X0176804Y0137711D01*
X0177796Y0137300D01*
X0187152Y0137300D01*
X0188098Y0136355D01*
X0189678Y0135700D01*
X0196989Y0135700D01*
X0199077Y0136863D02*
X0247589Y0136863D01*
X0246765Y0137862D02*
X0199902Y0137862D01*
X0200315Y0138860D02*
X0246351Y0138860D01*
X0246233Y0139859D02*
X0200433Y0139859D01*
X0200433Y0140857D02*
X0246234Y0140857D01*
X0246648Y0141856D02*
X0200019Y0141856D01*
X0199360Y0142854D02*
X0247306Y0142854D01*
X0248598Y0143853D02*
X0198069Y0143853D01*
X0197275Y0145850D02*
X0249317Y0145850D01*
X0249678Y0145700D02*
X0248098Y0146355D01*
X0246888Y0147564D01*
X0246233Y0149145D01*
X0246233Y0150855D01*
X0246888Y0152436D01*
X0248098Y0153645D01*
X0249678Y0154300D01*
X0256989Y0154300D01*
X0258569Y0153645D01*
X0259415Y0152799D01*
X0260643Y0154027D01*
X0262388Y0154750D01*
X0264278Y0154750D01*
X0266024Y0154027D01*
X0267360Y0152691D01*
X0268083Y0150945D01*
X0268083Y0149055D01*
X0267360Y0147309D01*
X0266024Y0145973D01*
X0264278Y0145250D01*
X0262388Y0145250D01*
X0260643Y0145973D01*
X0259415Y0147201D01*
X0258569Y0146355D01*
X0256989Y0145700D01*
X0249678Y0145700D01*
X0247604Y0146848D02*
X0199063Y0146848D01*
X0198935Y0146720D02*
X0199413Y0147199D01*
X0199811Y0147746D01*
X0200118Y0148349D01*
X0200327Y0148993D01*
X0200433Y0149662D01*
X0200433Y0149700D01*
X0193633Y0149700D01*
X0193633Y0145700D01*
X0196472Y0145700D01*
X0197140Y0145806D01*
X0197784Y0146015D01*
X0198387Y0146322D01*
X0198935Y0146720D01*
X0199862Y0147847D02*
X0246771Y0147847D01*
X0246357Y0148845D02*
X0200279Y0148845D01*
X0200433Y0150300D02*
X0193633Y0150300D01*
X0193033Y0150300D01*
X0193033Y0149700D01*
X0188083Y0149700D01*
X0188083Y0149811D01*
X0183522Y0149811D01*
X0183522Y0145250D01*
X0183707Y0145250D01*
X0184446Y0145367D01*
X0185157Y0145598D01*
X0185823Y0145937D01*
X0186428Y0146377D01*
X0186956Y0146906D01*
X0187211Y0147257D01*
X0187253Y0147199D01*
X0187732Y0146720D01*
X0188280Y0146322D01*
X0188883Y0146015D01*
X0189526Y0145806D01*
X0190195Y0145700D01*
X0193033Y0145700D01*
X0193033Y0149700D01*
X0193633Y0149700D01*
X0193633Y0150300D01*
X0193633Y0154300D01*
X0196472Y0154300D01*
X0197140Y0154194D01*
X0197784Y0153985D01*
X0198387Y0153678D01*
X0198935Y0153280D01*
X0199413Y0152801D01*
X0199811Y0152254D01*
X0200118Y0151651D01*
X0200327Y0151007D01*
X0200433Y0150338D01*
X0200433Y0150300D01*
X0200354Y0150842D02*
X0246233Y0150842D01*
X0246233Y0149844D02*
X0193633Y0149844D01*
X0193033Y0149844D02*
X0183522Y0149844D01*
X0183522Y0149811D02*
X0183522Y0150189D01*
X0183144Y0150189D01*
X0183144Y0149811D01*
X0178583Y0149811D01*
X0178583Y0149626D01*
X0178700Y0148888D01*
X0178931Y0148177D01*
X0179271Y0147510D01*
X0179710Y0146906D01*
X0180239Y0146377D01*
X0180844Y0145937D01*
X0181510Y0145598D01*
X0182221Y0145367D01*
X0182959Y0145250D01*
X0183144Y0145250D01*
X0183144Y0149811D01*
X0183522Y0149811D01*
X0183522Y0150189D02*
X0188083Y0150189D01*
X0188083Y0150300D01*
X0193033Y0150300D01*
X0193033Y0154300D01*
X0190195Y0154300D01*
X0189526Y0154194D01*
X0188883Y0153985D01*
X0188280Y0153678D01*
X0187732Y0153280D01*
X0187253Y0152801D01*
X0187211Y0152743D01*
X0186956Y0153094D01*
X0186428Y0153623D01*
X0185823Y0154063D01*
X0185157Y0154402D01*
X0184446Y0154633D01*
X0183707Y0154750D01*
X0183522Y0154750D01*
X0183522Y0150189D01*
X0183144Y0150189D02*
X0183144Y0154750D01*
X0182959Y0154750D01*
X0182221Y0154633D01*
X0181510Y0154402D01*
X0180844Y0154063D01*
X0180239Y0153623D01*
X0179710Y0153094D01*
X0179271Y0152490D01*
X0178931Y0151823D01*
X0178700Y0151112D01*
X0178583Y0150374D01*
X0178583Y0150189D01*
X0183144Y0150189D01*
X0183144Y0149844D02*
X0173083Y0149844D01*
X0173083Y0150842D02*
X0178658Y0150842D01*
X0178940Y0151841D02*
X0172712Y0151841D01*
X0172212Y0152839D02*
X0179525Y0152839D01*
X0180534Y0153838D02*
X0171213Y0153838D01*
X0165454Y0153838D02*
X0140424Y0153838D01*
X0141422Y0154836D02*
X0335534Y0154836D01*
X0335534Y0153838D02*
X0266213Y0153838D01*
X0267212Y0152839D02*
X0335534Y0152839D01*
X0335534Y0151841D02*
X0267712Y0151841D01*
X0268083Y0150842D02*
X0335534Y0150842D01*
X0335534Y0149844D02*
X0268083Y0149844D01*
X0267996Y0148845D02*
X0335534Y0148845D01*
X0335534Y0147847D02*
X0267583Y0147847D01*
X0266899Y0146848D02*
X0335534Y0146848D01*
X0335534Y0145850D02*
X0265726Y0145850D01*
X0260941Y0145850D02*
X0257350Y0145850D01*
X0259063Y0146848D02*
X0259768Y0146848D01*
X0258069Y0143853D02*
X0335534Y0143853D01*
X0335534Y0144851D02*
X0177301Y0144851D01*
X0178299Y0143853D02*
X0188598Y0143853D01*
X0187306Y0142854D02*
X0179298Y0142854D01*
X0181016Y0145850D02*
X0176302Y0145850D01*
X0175304Y0146848D02*
X0179768Y0146848D01*
X0179099Y0147847D02*
X0174305Y0147847D01*
X0173307Y0148845D02*
X0178714Y0148845D01*
X0183144Y0148845D02*
X0183522Y0148845D01*
X0183522Y0147847D02*
X0183144Y0147847D01*
X0183144Y0146848D02*
X0183522Y0146848D01*
X0183522Y0145850D02*
X0183144Y0145850D01*
X0185651Y0145850D02*
X0189392Y0145850D01*
X0187604Y0146848D02*
X0186899Y0146848D01*
X0183522Y0150842D02*
X0183144Y0150842D01*
X0183144Y0151841D02*
X0183522Y0151841D01*
X0183522Y0152839D02*
X0183144Y0152839D01*
X0183144Y0153838D02*
X0183522Y0153838D01*
X0184278Y0155250D02*
X0186024Y0155973D01*
X0187252Y0157201D01*
X0188098Y0156355D01*
X0189678Y0155700D01*
X0196989Y0155700D01*
X0198569Y0156355D01*
X0199779Y0157564D01*
X0200433Y0159145D01*
X0200433Y0160855D01*
X0199779Y0162436D01*
X0198569Y0163645D01*
X0196989Y0164300D01*
X0189678Y0164300D01*
X0188098Y0163645D01*
X0187252Y0162799D01*
X0186024Y0164027D01*
X0184278Y0164750D01*
X0182388Y0164750D01*
X0180643Y0164027D01*
X0179306Y0162691D01*
X0178583Y0160945D01*
X0178583Y0159055D01*
X0179306Y0157309D01*
X0180643Y0155973D01*
X0182388Y0155250D01*
X0184278Y0155250D01*
X0185690Y0155835D02*
X0189353Y0155835D01*
X0187619Y0156833D02*
X0186884Y0156833D01*
X0186132Y0153838D02*
X0188594Y0153838D01*
X0187291Y0152839D02*
X0187142Y0152839D01*
X0193033Y0152839D02*
X0193633Y0152839D01*
X0193633Y0151841D02*
X0193033Y0151841D01*
X0193033Y0150842D02*
X0193633Y0150842D01*
X0193633Y0148845D02*
X0193033Y0148845D01*
X0193033Y0147847D02*
X0193633Y0147847D01*
X0193633Y0146848D02*
X0193033Y0146848D01*
X0193033Y0145850D02*
X0193633Y0145850D01*
X0200021Y0151841D02*
X0246641Y0151841D01*
X0247291Y0152839D02*
X0199375Y0152839D01*
X0198073Y0153838D02*
X0248562Y0153838D01*
X0249438Y0155835D02*
X0197314Y0155835D01*
X0199048Y0156833D02*
X0247619Y0156833D01*
X0247732Y0156720D02*
X0248280Y0156322D01*
X0248883Y0156015D01*
X0249526Y0155806D01*
X0250195Y0155700D01*
X0253033Y0155700D01*
X0253033Y0159700D01*
X0246233Y0159700D01*
X0246233Y0159662D01*
X0246339Y0158993D01*
X0246548Y0158349D01*
X0246856Y0157746D01*
X0247253Y0157199D01*
X0247732Y0156720D01*
X0246812Y0157832D02*
X0199889Y0157832D01*
X0200303Y0158830D02*
X0246392Y0158830D01*
X0246233Y0160300D02*
X0253033Y0160300D01*
X0253033Y0159700D01*
X0253633Y0159700D01*
X0253633Y0155700D01*
X0256472Y0155700D01*
X0257140Y0155806D01*
X0257784Y0156015D01*
X0258387Y0156322D01*
X0258935Y0156720D01*
X0259413Y0157199D01*
X0259455Y0157257D01*
X0259710Y0156906D01*
X0260239Y0156377D01*
X0260844Y0155937D01*
X0261510Y0155598D01*
X0262221Y0155367D01*
X0262959Y0155250D01*
X0263144Y0155250D01*
X0263144Y0159811D01*
X0258583Y0159811D01*
X0258583Y0159700D01*
X0253633Y0159700D01*
X0253633Y0160300D01*
X0253033Y0160300D01*
X0253033Y0164300D01*
X0250195Y0164300D01*
X0249526Y0164194D01*
X0248883Y0163985D01*
X0248280Y0163678D01*
X0247732Y0163280D01*
X0247253Y0162801D01*
X0246856Y0162254D01*
X0246548Y0161651D01*
X0246339Y0161007D01*
X0246233Y0160338D01*
X0246233Y0160300D01*
X0246311Y0160827D02*
X0200433Y0160827D01*
X0200433Y0159829D02*
X0253033Y0159829D01*
X0253633Y0159829D02*
X0263144Y0159829D01*
X0263144Y0159811D02*
X0263144Y0160189D01*
X0258583Y0160189D01*
X0258583Y0160300D01*
X0253633Y0160300D01*
X0253633Y0164300D01*
X0256472Y0164300D01*
X0257140Y0164194D01*
X0257784Y0163985D01*
X0258387Y0163678D01*
X0258935Y0163280D01*
X0259413Y0162801D01*
X0259455Y0162743D01*
X0259710Y0163094D01*
X0260239Y0163623D01*
X0260844Y0164063D01*
X0261510Y0164402D01*
X0262221Y0164633D01*
X0262959Y0164750D01*
X0263144Y0164750D01*
X0263144Y0160189D01*
X0263522Y0160189D01*
X0263522Y0164750D01*
X0263707Y0164750D01*
X0264446Y0164633D01*
X0265157Y0164402D01*
X0265823Y0164063D01*
X0266428Y0163623D01*
X0266956Y0163094D01*
X0267396Y0162490D01*
X0267735Y0161823D01*
X0267966Y0161112D01*
X0268083Y0160374D01*
X0268083Y0160189D01*
X0263522Y0160189D01*
X0263522Y0159811D01*
X0263522Y0155250D01*
X0263707Y0155250D01*
X0264446Y0155367D01*
X0265157Y0155598D01*
X0265823Y0155937D01*
X0266428Y0156377D01*
X0266956Y0156906D01*
X0267396Y0157510D01*
X0267735Y0158177D01*
X0267966Y0158888D01*
X0268083Y0159626D01*
X0268083Y0159811D01*
X0263522Y0159811D01*
X0263144Y0159811D01*
X0263522Y0159829D02*
X0335534Y0159829D01*
X0335534Y0160827D02*
X0268011Y0160827D01*
X0267734Y0161826D02*
X0335534Y0161826D01*
X0335534Y0162824D02*
X0267153Y0162824D01*
X0266153Y0163823D02*
X0335534Y0163823D01*
X0335534Y0164821D02*
X0168083Y0164821D01*
X0168083Y0164055D02*
X0168083Y0165945D01*
X0167921Y0166335D01*
X0169286Y0167700D01*
X0186832Y0167700D01*
X0186888Y0167564D01*
X0188098Y0166355D01*
X0189678Y0165700D01*
X0196989Y0165700D01*
X0198569Y0166355D01*
X0199779Y0167564D01*
X0200433Y0169145D01*
X0200433Y0170855D01*
X0199779Y0172436D01*
X0198569Y0173645D01*
X0196989Y0174300D01*
X0189678Y0174300D01*
X0188463Y0173797D01*
X0188533Y0173966D01*
X0188533Y0176034D01*
X0188463Y0176203D01*
X0189678Y0175700D01*
X0196989Y0175700D01*
X0198569Y0176355D01*
X0199779Y0177564D01*
X0200433Y0179145D01*
X0200433Y0180855D01*
X0199779Y0182436D01*
X0198569Y0183645D01*
X0196989Y0184300D01*
X0192286Y0184300D01*
X0190886Y0185700D01*
X0196989Y0185700D01*
X0198569Y0186355D01*
X0199779Y0187564D01*
X0200433Y0189145D01*
X0200433Y0190855D01*
X0199779Y0192436D01*
X0198569Y0193645D01*
X0196989Y0194300D01*
X0192286Y0194300D01*
X0190886Y0195700D01*
X0196989Y0195700D01*
X0198569Y0196355D01*
X0199779Y0197564D01*
X0200433Y0199145D01*
X0200433Y0200855D01*
X0199779Y0202436D01*
X0198569Y0203645D01*
X0196989Y0204300D01*
X0192286Y0204300D01*
X0190886Y0205700D01*
X0196989Y0205700D01*
X0198569Y0206355D01*
X0199779Y0207564D01*
X0200433Y0209145D01*
X0200433Y0210855D01*
X0199779Y0212436D01*
X0198569Y0213645D01*
X0196989Y0214300D01*
X0189678Y0214300D01*
X0188098Y0213645D01*
X0186888Y0212436D01*
X0186832Y0212300D01*
X0139286Y0212300D01*
X0135633Y0215953D01*
X0134286Y0217300D01*
X0117843Y0217300D01*
X0118009Y0217700D01*
X0186832Y0217700D01*
X0186888Y0217564D01*
X0188098Y0216355D01*
X0189678Y0215700D01*
X0196989Y0215700D01*
X0198569Y0216355D01*
X0199779Y0217564D01*
X0200433Y0219145D01*
X0200433Y0220855D01*
X0199779Y0222436D01*
X0198569Y0223645D01*
X0196989Y0224300D01*
X0190886Y0224300D01*
X0192286Y0225700D01*
X0196989Y0225700D01*
X0198569Y0226355D01*
X0199779Y0227564D01*
X0200433Y0229145D01*
X0200433Y0230855D01*
X0199779Y0232436D01*
X0198569Y0233645D01*
X0196989Y0234300D01*
X0190886Y0234300D01*
X0192286Y0235700D01*
X0196989Y0235700D01*
X0198569Y0236355D01*
X0199779Y0237564D01*
X0200433Y0239145D01*
X0200433Y0240855D01*
X0199779Y0242436D01*
X0198569Y0243645D01*
X0196989Y0244300D01*
X0190886Y0244300D01*
X0192286Y0245700D01*
X0196989Y0245700D01*
X0198569Y0246355D01*
X0199779Y0247564D01*
X0200433Y0249145D01*
X0200433Y0250855D01*
X0199779Y0252436D01*
X0198569Y0253645D01*
X0196989Y0254300D01*
X0189678Y0254300D01*
X0188098Y0253645D01*
X0186888Y0252436D01*
X0186233Y0250855D01*
X0186233Y0249145D01*
X0186888Y0247564D01*
X0187266Y0247186D01*
X0177381Y0237300D01*
X0146118Y0237300D01*
X0146621Y0237803D01*
X0147211Y0239229D01*
X0147211Y0240771D01*
X0146621Y0242197D01*
X0145530Y0243288D01*
X0144105Y0243878D01*
X0142562Y0243878D01*
X0141887Y0243599D01*
X0126066Y0259420D01*
X0126333Y0260066D01*
X0126333Y0262134D01*
X0125542Y0264046D01*
X0124079Y0265508D01*
X0122168Y0266300D01*
X0120099Y0266300D01*
X0118188Y0265508D01*
X0116725Y0264046D01*
X0116458Y0263400D01*
X0100209Y0263400D01*
X0099942Y0264046D01*
X0098479Y0265508D01*
X0096568Y0266300D01*
X0094499Y0266300D01*
X0092588Y0265508D01*
X0091125Y0264046D01*
X0090333Y0262134D01*
X0090333Y0260066D01*
X0091125Y0258154D01*
X0092588Y0256692D01*
X0094499Y0255900D01*
X0096568Y0255900D01*
X0098479Y0256692D01*
X0099942Y0258154D01*
X0100209Y0258800D01*
X0116458Y0258800D01*
X0116725Y0258154D01*
X0118188Y0256692D01*
X0120099Y0255900D01*
X0122168Y0255900D01*
X0122813Y0256167D01*
X0139455Y0239525D01*
X0139455Y0239229D01*
X0140046Y0237803D01*
X0140549Y0237300D01*
X0117381Y0237300D01*
X0117081Y0237000D01*
X0107505Y0237000D01*
X0106333Y0235828D01*
X0105313Y0234808D01*
X0104368Y0235200D01*
X0102299Y0235200D01*
X0100388Y0234408D01*
X0098925Y0232946D01*
X0098133Y0231034D01*
X0098133Y0228966D01*
X0098925Y0227054D01*
X0100388Y0225592D01*
X0101816Y0225000D01*
X0100388Y0224408D01*
X0098925Y0222946D01*
X0098133Y0221034D01*
X0098133Y0218966D01*
X0098925Y0217054D01*
X0100388Y0215592D01*
X0101816Y0215000D01*
X0100388Y0214408D01*
X0098925Y0212946D01*
X0098133Y0211034D01*
X0098133Y0208966D01*
X0098925Y0207054D01*
X0100388Y0205592D01*
X0101816Y0205000D01*
X0100388Y0204408D01*
X0098925Y0202946D01*
X0098133Y0201034D01*
X0098133Y0198966D01*
X0098925Y0197054D01*
X0100388Y0195592D01*
X0101816Y0195000D01*
X0100388Y0194408D01*
X0098925Y0192946D01*
X0098133Y0191034D01*
X0098133Y0188966D01*
X0098925Y0187054D01*
X0100388Y0185592D01*
X0102299Y0184800D01*
X0104368Y0184800D01*
X0106279Y0185592D01*
X0107742Y0187054D01*
X0108348Y0188517D01*
X0108514Y0188004D01*
X0108886Y0187275D01*
X0109367Y0186612D01*
X0109946Y0186034D01*
X0110608Y0185553D01*
X0111337Y0185181D01*
X0112116Y0184928D01*
X0112833Y0184814D01*
X0112833Y0189500D01*
X0113833Y0189500D01*
X0113833Y0184814D01*
X0114551Y0184928D01*
X0115329Y0185181D01*
X0116059Y0185553D01*
X0116721Y0186034D01*
X0117300Y0186612D01*
X0117781Y0187275D01*
X0118152Y0188004D01*
X0118405Y0188782D01*
X0118519Y0189500D01*
X0113833Y0189500D01*
X0113833Y0190500D01*
X0118519Y0190500D01*
X0118405Y0191218D01*
X0118152Y0191996D01*
X0117781Y0192725D01*
X0117300Y0193388D01*
X0116721Y0193966D01*
X0116059Y0194447D01*
X0115329Y0194819D01*
X0114816Y0194986D01*
X0116279Y0195592D01*
X0117742Y0197054D01*
X0118009Y0197700D01*
X0122381Y0197700D01*
X0126033Y0194047D01*
X0127381Y0192700D01*
X0131033Y0192700D01*
X0131033Y0180953D01*
X0122381Y0172300D01*
X0097381Y0172300D01*
X0092381Y0167300D01*
X0091033Y0165953D01*
X0091033Y0154047D01*
X0095733Y0149347D01*
X0095733Y0148966D01*
X0096525Y0147054D01*
X0097988Y0145592D01*
X0099416Y0145000D01*
X0097988Y0144408D01*
X0096525Y0142946D01*
X0095733Y0141034D01*
X0095733Y0138966D01*
X0096525Y0137054D01*
X0097988Y0135592D01*
X0099899Y0134800D01*
X0109368Y0134800D01*
X0110013Y0135067D01*
X0117381Y0127700D01*
X0129286Y0127700D01*
X0134286Y0132700D01*
X0134286Y0132700D01*
X0135633Y0134047D01*
X0135633Y0149047D01*
X0144286Y0157700D01*
X0159286Y0157700D01*
X0161998Y0160412D01*
X0162388Y0160250D01*
X0164278Y0160250D01*
X0166024Y0160973D01*
X0167360Y0162309D01*
X0168083Y0164055D01*
X0167987Y0163823D02*
X0180439Y0163823D01*
X0179440Y0162824D02*
X0167573Y0162824D01*
X0166877Y0161826D02*
X0178948Y0161826D01*
X0178583Y0160827D02*
X0165672Y0160827D01*
X0161415Y0159829D02*
X0178583Y0159829D01*
X0178676Y0158830D02*
X0160416Y0158830D01*
X0159418Y0157832D02*
X0179090Y0157832D01*
X0179783Y0156833D02*
X0143419Y0156833D01*
X0142421Y0155835D02*
X0180977Y0155835D01*
X0187226Y0162824D02*
X0187277Y0162824D01*
X0186228Y0163823D02*
X0188526Y0163823D01*
X0189389Y0165820D02*
X0168083Y0165820D01*
X0168404Y0166818D02*
X0187634Y0166818D01*
X0188468Y0173808D02*
X0188490Y0173808D01*
X0188533Y0174806D02*
X0335534Y0174806D01*
X0335534Y0173808D02*
X0258177Y0173808D01*
X0258569Y0173645D02*
X0256989Y0174300D01*
X0249678Y0174300D01*
X0248098Y0173645D01*
X0246888Y0172436D01*
X0246233Y0170855D01*
X0246233Y0169145D01*
X0246888Y0167564D01*
X0248098Y0166355D01*
X0249678Y0165700D01*
X0256989Y0165700D01*
X0258569Y0166355D01*
X0259779Y0167564D01*
X0260433Y0169145D01*
X0260433Y0170855D01*
X0259779Y0172436D01*
X0258569Y0173645D01*
X0259405Y0172809D02*
X0335534Y0172809D01*
X0335534Y0171811D02*
X0260037Y0171811D01*
X0260433Y0170812D02*
X0335534Y0170812D01*
X0335534Y0169814D02*
X0260433Y0169814D01*
X0260297Y0168815D02*
X0335534Y0168815D01*
X0335534Y0167817D02*
X0259883Y0167817D01*
X0259033Y0166818D02*
X0335534Y0166818D01*
X0335534Y0165820D02*
X0257278Y0165820D01*
X0258102Y0163823D02*
X0260514Y0163823D01*
X0259514Y0162824D02*
X0259390Y0162824D01*
X0263144Y0162824D02*
X0263522Y0162824D01*
X0263522Y0161826D02*
X0263144Y0161826D01*
X0263144Y0160827D02*
X0263522Y0160827D01*
X0263522Y0158830D02*
X0263144Y0158830D01*
X0263144Y0157832D02*
X0263522Y0157832D01*
X0263522Y0156833D02*
X0263144Y0156833D01*
X0263144Y0155835D02*
X0263522Y0155835D01*
X0265621Y0155835D02*
X0335534Y0155835D01*
X0335534Y0156833D02*
X0266884Y0156833D01*
X0267560Y0157832D02*
X0335534Y0157832D01*
X0335534Y0158830D02*
X0267948Y0158830D01*
X0263522Y0163823D02*
X0263144Y0163823D01*
X0259783Y0156833D02*
X0259048Y0156833D01*
X0257229Y0155835D02*
X0261045Y0155835D01*
X0260454Y0153838D02*
X0258105Y0153838D01*
X0259375Y0152839D02*
X0259455Y0152839D01*
X0253633Y0155835D02*
X0253033Y0155835D01*
X0253033Y0156833D02*
X0253633Y0156833D01*
X0253633Y0157832D02*
X0253033Y0157832D01*
X0253033Y0158830D02*
X0253633Y0158830D01*
X0253633Y0160827D02*
X0253033Y0160827D01*
X0253033Y0161826D02*
X0253633Y0161826D01*
X0253633Y0162824D02*
X0253033Y0162824D01*
X0253033Y0163823D02*
X0253633Y0163823D01*
X0249389Y0165820D02*
X0197278Y0165820D01*
X0199033Y0166818D02*
X0247634Y0166818D01*
X0246783Y0167817D02*
X0199883Y0167817D01*
X0200297Y0168815D02*
X0246370Y0168815D01*
X0246233Y0169814D02*
X0200433Y0169814D01*
X0200433Y0170812D02*
X0246233Y0170812D01*
X0246629Y0171811D02*
X0200037Y0171811D01*
X0199405Y0172809D02*
X0247262Y0172809D01*
X0248490Y0173808D02*
X0198177Y0173808D01*
X0197242Y0175805D02*
X0249425Y0175805D01*
X0249678Y0175700D02*
X0256989Y0175700D01*
X0258569Y0176355D01*
X0259779Y0177564D01*
X0259835Y0177700D01*
X0269286Y0177700D01*
X0270633Y0179047D01*
X0284286Y0192700D01*
X0308823Y0192700D01*
X0308133Y0191034D01*
X0308133Y0188966D01*
X0308925Y0187054D01*
X0310388Y0185592D01*
X0312299Y0184800D01*
X0314368Y0184800D01*
X0316279Y0185592D01*
X0317742Y0187054D01*
X0318348Y0188517D01*
X0318514Y0188004D01*
X0318886Y0187275D01*
X0319367Y0186612D01*
X0319946Y0186034D01*
X0320608Y0185553D01*
X0321337Y0185181D01*
X0322116Y0184928D01*
X0322833Y0184814D01*
X0322833Y0189500D01*
X0323833Y0189500D01*
X0323833Y0184814D01*
X0324551Y0184928D01*
X0325329Y0185181D01*
X0326059Y0185553D01*
X0326721Y0186034D01*
X0327300Y0186612D01*
X0327781Y0187275D01*
X0328152Y0188004D01*
X0328405Y0188782D01*
X0328519Y0189500D01*
X0323833Y0189500D01*
X0323833Y0190500D01*
X0328519Y0190500D01*
X0328405Y0191218D01*
X0328152Y0191996D01*
X0327781Y0192725D01*
X0327300Y0193388D01*
X0326721Y0193966D01*
X0326059Y0194447D01*
X0325329Y0194819D01*
X0324816Y0194986D01*
X0326279Y0195592D01*
X0327742Y0197054D01*
X0328533Y0198966D01*
X0328533Y0201034D01*
X0327742Y0202946D01*
X0326279Y0204408D01*
X0324850Y0205000D01*
X0326279Y0205592D01*
X0327742Y0207054D01*
X0328533Y0208966D01*
X0328533Y0211034D01*
X0327742Y0212946D01*
X0326279Y0214408D01*
X0324850Y0215000D01*
X0326279Y0215592D01*
X0327742Y0217054D01*
X0328533Y0218966D01*
X0328533Y0221034D01*
X0327742Y0222946D01*
X0326279Y0224408D01*
X0324850Y0225000D01*
X0326279Y0225592D01*
X0327742Y0227054D01*
X0328533Y0228966D01*
X0328533Y0231034D01*
X0327742Y0232946D01*
X0326279Y0234408D01*
X0324368Y0235200D01*
X0322299Y0235200D01*
X0320388Y0234408D01*
X0318925Y0232946D01*
X0318333Y0231517D01*
X0317742Y0232946D01*
X0316279Y0234408D01*
X0314368Y0235200D01*
X0312299Y0235200D01*
X0310388Y0234408D01*
X0308925Y0232946D01*
X0308658Y0232300D01*
X0289286Y0232300D01*
X0270633Y0250953D01*
X0269286Y0252300D01*
X0259835Y0252300D01*
X0259779Y0252436D01*
X0258569Y0253645D01*
X0256989Y0254300D01*
X0249678Y0254300D01*
X0248098Y0253645D01*
X0246888Y0252436D01*
X0246233Y0250855D01*
X0246233Y0249145D01*
X0246888Y0247564D01*
X0248098Y0246355D01*
X0249678Y0245700D01*
X0256989Y0245700D01*
X0258569Y0246355D01*
X0259779Y0247564D01*
X0259835Y0247700D01*
X0267381Y0247700D01*
X0286033Y0229047D01*
X0287381Y0227700D01*
X0308658Y0227700D01*
X0308823Y0227300D01*
X0284286Y0227300D01*
X0270633Y0240953D01*
X0269286Y0242300D01*
X0259835Y0242300D01*
X0259779Y0242436D01*
X0258569Y0243645D01*
X0256989Y0244300D01*
X0249678Y0244300D01*
X0248098Y0243645D01*
X0246888Y0242436D01*
X0246233Y0240855D01*
X0246233Y0239145D01*
X0246888Y0237564D01*
X0248098Y0236355D01*
X0249678Y0235700D01*
X0256989Y0235700D01*
X0258569Y0236355D01*
X0259779Y0237564D01*
X0259835Y0237700D01*
X0267381Y0237700D01*
X0282381Y0222700D01*
X0308823Y0222700D01*
X0308658Y0222300D01*
X0279286Y0222300D01*
X0270633Y0230953D01*
X0269286Y0232300D01*
X0259835Y0232300D01*
X0259779Y0232436D01*
X0258569Y0233645D01*
X0256989Y0234300D01*
X0249678Y0234300D01*
X0248098Y0233645D01*
X0246888Y0232436D01*
X0246233Y0230855D01*
X0246233Y0229145D01*
X0246888Y0227564D01*
X0248098Y0226355D01*
X0249678Y0225700D01*
X0256989Y0225700D01*
X0258569Y0226355D01*
X0259779Y0227564D01*
X0259835Y0227700D01*
X0267381Y0227700D01*
X0277381Y0217700D01*
X0308658Y0217700D01*
X0308823Y0217300D01*
X0274286Y0217300D01*
X0270633Y0220953D01*
X0269286Y0222300D01*
X0259835Y0222300D01*
X0259779Y0222436D01*
X0258569Y0223645D01*
X0256989Y0224300D01*
X0249678Y0224300D01*
X0248098Y0223645D01*
X0246888Y0222436D01*
X0246233Y0220855D01*
X0246233Y0219145D01*
X0246888Y0217564D01*
X0248098Y0216355D01*
X0249678Y0215700D01*
X0256989Y0215700D01*
X0258569Y0216355D01*
X0259779Y0217564D01*
X0259835Y0217700D01*
X0267381Y0217700D01*
X0272381Y0212700D01*
X0308823Y0212700D01*
X0308658Y0212300D01*
X0259835Y0212300D01*
X0259779Y0212436D01*
X0258569Y0213645D01*
X0256989Y0214300D01*
X0249678Y0214300D01*
X0248098Y0213645D01*
X0246888Y0212436D01*
X0246233Y0210855D01*
X0246233Y0209145D01*
X0246888Y0207564D01*
X0248098Y0206355D01*
X0249678Y0205700D01*
X0256989Y0205700D01*
X0258569Y0206355D01*
X0259779Y0207564D01*
X0259835Y0207700D01*
X0308658Y0207700D01*
X0308823Y0207300D01*
X0272381Y0207300D01*
X0267381Y0202300D01*
X0259835Y0202300D01*
X0259779Y0202436D01*
X0258569Y0203645D01*
X0256989Y0204300D01*
X0249678Y0204300D01*
X0248098Y0203645D01*
X0246888Y0202436D01*
X0246233Y0200855D01*
X0246233Y0199145D01*
X0246888Y0197564D01*
X0248098Y0196355D01*
X0249678Y0195700D01*
X0256989Y0195700D01*
X0258569Y0196355D01*
X0259779Y0197564D01*
X0259835Y0197700D01*
X0269286Y0197700D01*
X0270633Y0199047D01*
X0274286Y0202700D01*
X0308823Y0202700D01*
X0308658Y0202300D01*
X0277381Y0202300D01*
X0276033Y0200953D01*
X0267381Y0192300D01*
X0259835Y0192300D01*
X0259779Y0192436D01*
X0258569Y0193645D01*
X0256989Y0194300D01*
X0249678Y0194300D01*
X0248098Y0193645D01*
X0246888Y0192436D01*
X0246233Y0190855D01*
X0246233Y0189145D01*
X0246888Y0187564D01*
X0248098Y0186355D01*
X0249678Y0185700D01*
X0256989Y0185700D01*
X0258569Y0186355D01*
X0259779Y0187564D01*
X0259835Y0187700D01*
X0269286Y0187700D01*
X0270633Y0189047D01*
X0279286Y0197700D01*
X0308658Y0197700D01*
X0308823Y0197300D01*
X0282381Y0197300D01*
X0267381Y0182300D01*
X0259835Y0182300D01*
X0259779Y0182436D01*
X0258569Y0183645D01*
X0256989Y0184300D01*
X0249678Y0184300D01*
X0248098Y0183645D01*
X0246888Y0182436D01*
X0246233Y0180855D01*
X0246233Y0179145D01*
X0246888Y0177564D01*
X0248098Y0176355D01*
X0249678Y0175700D01*
X0247649Y0176803D02*
X0199018Y0176803D01*
X0199877Y0177802D02*
X0246789Y0177802D01*
X0246376Y0178801D02*
X0200291Y0178801D01*
X0200433Y0179799D02*
X0246233Y0179799D01*
X0246233Y0180798D02*
X0200433Y0180798D01*
X0200044Y0181796D02*
X0246623Y0181796D01*
X0247247Y0182795D02*
X0199420Y0182795D01*
X0198212Y0183793D02*
X0248454Y0183793D01*
X0249460Y0185790D02*
X0197206Y0185790D01*
X0199003Y0186789D02*
X0247664Y0186789D01*
X0246796Y0187787D02*
X0199871Y0187787D01*
X0200285Y0188786D02*
X0246382Y0188786D01*
X0246233Y0189784D02*
X0200433Y0189784D01*
X0200433Y0190783D02*
X0246233Y0190783D01*
X0246617Y0191781D02*
X0200050Y0191781D01*
X0199435Y0192780D02*
X0247232Y0192780D01*
X0248418Y0193778D02*
X0198248Y0193778D01*
X0197170Y0195775D02*
X0249496Y0195775D01*
X0247678Y0196774D02*
X0198988Y0196774D01*
X0199865Y0197772D02*
X0246802Y0197772D01*
X0246388Y0198771D02*
X0200278Y0198771D01*
X0200433Y0199769D02*
X0246233Y0199769D01*
X0246233Y0200768D02*
X0200433Y0200768D01*
X0200056Y0201766D02*
X0246611Y0201766D01*
X0247217Y0202765D02*
X0199450Y0202765D01*
X0198284Y0203763D02*
X0248382Y0203763D01*
X0249532Y0205760D02*
X0197134Y0205760D01*
X0198973Y0206759D02*
X0247693Y0206759D01*
X0246808Y0207757D02*
X0199859Y0207757D01*
X0200272Y0208756D02*
X0246394Y0208756D01*
X0246233Y0209754D02*
X0200433Y0209754D01*
X0200433Y0210753D02*
X0246233Y0210753D01*
X0246605Y0211751D02*
X0200062Y0211751D01*
X0199465Y0212750D02*
X0247202Y0212750D01*
X0248346Y0213748D02*
X0198320Y0213748D01*
X0197098Y0215745D02*
X0249568Y0215745D01*
X0247708Y0216744D02*
X0198958Y0216744D01*
X0199852Y0217742D02*
X0246814Y0217742D01*
X0246401Y0218741D02*
X0200266Y0218741D01*
X0200433Y0219739D02*
X0246233Y0219739D01*
X0246233Y0220738D02*
X0200433Y0220738D01*
X0200068Y0221737D02*
X0246598Y0221737D01*
X0247187Y0222735D02*
X0199479Y0222735D01*
X0198356Y0223734D02*
X0248310Y0223734D01*
X0249604Y0225731D02*
X0197062Y0225731D01*
X0198944Y0226729D02*
X0247723Y0226729D01*
X0246820Y0227728D02*
X0199846Y0227728D01*
X0200260Y0228726D02*
X0246407Y0228726D01*
X0246233Y0229725D02*
X0200433Y0229725D01*
X0200433Y0230723D02*
X0246233Y0230723D01*
X0246592Y0231722D02*
X0200074Y0231722D01*
X0199494Y0232720D02*
X0247172Y0232720D01*
X0248275Y0233719D02*
X0198392Y0233719D01*
X0197026Y0235716D02*
X0249640Y0235716D01*
X0247738Y0236714D02*
X0198929Y0236714D01*
X0199840Y0237713D02*
X0246826Y0237713D01*
X0246413Y0238711D02*
X0200254Y0238711D01*
X0200433Y0239710D02*
X0246233Y0239710D01*
X0246233Y0240708D02*
X0200433Y0240708D01*
X0200081Y0241707D02*
X0246586Y0241707D01*
X0247157Y0242705D02*
X0199509Y0242705D01*
X0198428Y0243704D02*
X0248239Y0243704D01*
X0249676Y0245701D02*
X0196991Y0245701D01*
X0198914Y0246699D02*
X0247753Y0246699D01*
X0246833Y0247698D02*
X0199834Y0247698D01*
X0200248Y0248696D02*
X0246419Y0248696D01*
X0246233Y0249695D02*
X0200433Y0249695D01*
X0200433Y0250693D02*
X0246233Y0250693D01*
X0246580Y0251692D02*
X0200087Y0251692D01*
X0199524Y0252690D02*
X0247143Y0252690D01*
X0248203Y0253689D02*
X0198464Y0253689D01*
X0191288Y0244702D02*
X0270378Y0244702D01*
X0269380Y0245701D02*
X0256991Y0245701D01*
X0258914Y0246699D02*
X0268381Y0246699D01*
X0267383Y0247698D02*
X0259834Y0247698D01*
X0258428Y0243704D02*
X0271377Y0243704D01*
X0272375Y0242705D02*
X0259509Y0242705D01*
X0258929Y0236714D02*
X0268366Y0236714D01*
X0269365Y0235716D02*
X0257026Y0235716D01*
X0258392Y0233719D02*
X0271362Y0233719D01*
X0270363Y0234717D02*
X0191303Y0234717D01*
X0182786Y0242705D02*
X0146112Y0242705D01*
X0146824Y0241707D02*
X0181787Y0241707D01*
X0180789Y0240708D02*
X0147211Y0240708D01*
X0147211Y0239710D02*
X0179790Y0239710D01*
X0178792Y0238711D02*
X0146997Y0238711D01*
X0146530Y0237713D02*
X0177793Y0237713D01*
X0183784Y0243704D02*
X0144525Y0243704D01*
X0142141Y0243704D02*
X0141782Y0243704D01*
X0140784Y0244702D02*
X0184783Y0244702D01*
X0185781Y0245701D02*
X0139785Y0245701D01*
X0138787Y0246699D02*
X0186780Y0246699D01*
X0186833Y0247698D02*
X0137788Y0247698D01*
X0136790Y0248696D02*
X0186419Y0248696D01*
X0186233Y0249695D02*
X0135791Y0249695D01*
X0134793Y0250693D02*
X0186233Y0250693D01*
X0186580Y0251692D02*
X0133794Y0251692D01*
X0132796Y0252690D02*
X0187143Y0252690D01*
X0188203Y0253689D02*
X0131797Y0253689D01*
X0130799Y0254687D02*
X0335534Y0254687D01*
X0335534Y0253689D02*
X0258464Y0253689D01*
X0259524Y0252690D02*
X0335534Y0252690D01*
X0335534Y0251692D02*
X0269894Y0251692D01*
X0270893Y0250693D02*
X0335534Y0250693D01*
X0335534Y0249695D02*
X0271891Y0249695D01*
X0272890Y0248696D02*
X0335534Y0248696D01*
X0335534Y0247698D02*
X0273888Y0247698D01*
X0274887Y0246699D02*
X0335534Y0246699D01*
X0335534Y0245701D02*
X0275885Y0245701D01*
X0276884Y0244702D02*
X0335534Y0244702D01*
X0335534Y0243704D02*
X0277882Y0243704D01*
X0278881Y0242705D02*
X0335534Y0242705D01*
X0335534Y0241707D02*
X0279879Y0241707D01*
X0280878Y0240708D02*
X0335534Y0240708D01*
X0335534Y0239710D02*
X0281876Y0239710D01*
X0282875Y0238711D02*
X0335534Y0238711D01*
X0335534Y0237713D02*
X0283873Y0237713D01*
X0284872Y0236714D02*
X0335534Y0236714D01*
X0335534Y0235716D02*
X0285870Y0235716D01*
X0286869Y0234717D02*
X0311133Y0234717D01*
X0309698Y0233719D02*
X0287867Y0233719D01*
X0288866Y0232720D02*
X0308832Y0232720D01*
X0315533Y0234717D02*
X0321133Y0234717D01*
X0319698Y0233719D02*
X0316969Y0233719D01*
X0317835Y0232720D02*
X0318832Y0232720D01*
X0318418Y0231722D02*
X0318249Y0231722D01*
X0323333Y0230000D02*
X0318333Y0225000D01*
X0308333Y0225000D01*
X0308333Y0220000D02*
X0313333Y0220000D01*
X0318333Y0215000D02*
X0308333Y0215000D01*
X0308333Y0210000D02*
X0313333Y0210000D01*
X0318333Y0205000D02*
X0308333Y0205000D01*
X0308333Y0195000D02*
X0318333Y0195000D01*
X0323333Y0200000D01*
X0325426Y0204762D02*
X0335534Y0204762D01*
X0335534Y0205760D02*
X0326448Y0205760D01*
X0327446Y0206759D02*
X0335534Y0206759D01*
X0335534Y0207757D02*
X0328033Y0207757D01*
X0328446Y0208756D02*
X0335534Y0208756D01*
X0335534Y0209754D02*
X0328533Y0209754D01*
X0328533Y0210753D02*
X0335534Y0210753D01*
X0335534Y0211751D02*
X0328236Y0211751D01*
X0327823Y0212750D02*
X0335534Y0212750D01*
X0335534Y0213748D02*
X0326939Y0213748D01*
X0325461Y0214747D02*
X0335534Y0214747D01*
X0335534Y0215745D02*
X0326433Y0215745D01*
X0327431Y0216744D02*
X0335534Y0216744D01*
X0335534Y0217742D02*
X0328027Y0217742D01*
X0328440Y0218741D02*
X0335534Y0218741D01*
X0335534Y0219739D02*
X0328533Y0219739D01*
X0328533Y0220738D02*
X0335534Y0220738D01*
X0335534Y0221737D02*
X0328242Y0221737D01*
X0327829Y0222735D02*
X0335534Y0222735D01*
X0335534Y0223734D02*
X0326954Y0223734D01*
X0325497Y0224732D02*
X0335534Y0224732D01*
X0335534Y0225731D02*
X0326418Y0225731D01*
X0327416Y0226729D02*
X0335534Y0226729D01*
X0335534Y0227728D02*
X0328020Y0227728D01*
X0328434Y0228726D02*
X0335534Y0228726D01*
X0335534Y0229725D02*
X0328533Y0229725D01*
X0328533Y0230723D02*
X0335534Y0230723D01*
X0335534Y0231722D02*
X0328249Y0231722D01*
X0327835Y0232720D02*
X0335534Y0232720D01*
X0335534Y0233719D02*
X0326969Y0233719D01*
X0325533Y0234717D02*
X0335534Y0234717D01*
X0323333Y0220000D02*
X0318333Y0215000D01*
X0323333Y0210000D02*
X0318333Y0205000D01*
X0326924Y0203763D02*
X0335534Y0203763D01*
X0335534Y0202765D02*
X0327817Y0202765D01*
X0328230Y0201766D02*
X0335534Y0201766D01*
X0335534Y0200768D02*
X0328533Y0200768D01*
X0328533Y0199769D02*
X0335534Y0199769D01*
X0335534Y0198771D02*
X0328453Y0198771D01*
X0328039Y0197772D02*
X0335534Y0197772D01*
X0335534Y0196774D02*
X0327461Y0196774D01*
X0326462Y0195775D02*
X0335534Y0195775D01*
X0335534Y0194777D02*
X0325413Y0194777D01*
X0326909Y0193778D02*
X0335534Y0193778D01*
X0335534Y0192780D02*
X0327741Y0192780D01*
X0328222Y0191781D02*
X0335534Y0191781D01*
X0335534Y0190783D02*
X0328474Y0190783D01*
X0328406Y0188786D02*
X0335534Y0188786D01*
X0335534Y0189784D02*
X0323833Y0189784D01*
X0323833Y0188786D02*
X0322833Y0188786D01*
X0322833Y0187787D02*
X0323833Y0187787D01*
X0323833Y0186789D02*
X0322833Y0186789D01*
X0322833Y0185790D02*
X0323833Y0185790D01*
X0326386Y0185790D02*
X0335534Y0185790D01*
X0335534Y0184792D02*
X0276378Y0184792D01*
X0277376Y0185790D02*
X0310189Y0185790D01*
X0309191Y0186789D02*
X0278375Y0186789D01*
X0279373Y0187787D02*
X0308621Y0187787D01*
X0308208Y0188786D02*
X0280372Y0188786D01*
X0281370Y0189784D02*
X0308133Y0189784D01*
X0308133Y0190783D02*
X0282369Y0190783D01*
X0283367Y0191781D02*
X0308443Y0191781D01*
X0316477Y0185790D02*
X0320281Y0185790D01*
X0319239Y0186789D02*
X0317476Y0186789D01*
X0318045Y0187787D02*
X0318625Y0187787D01*
X0327428Y0186789D02*
X0335534Y0186789D01*
X0335534Y0187787D02*
X0328042Y0187787D01*
X0335534Y0183793D02*
X0275379Y0183793D01*
X0274381Y0182795D02*
X0335534Y0182795D01*
X0335534Y0181796D02*
X0273382Y0181796D01*
X0272384Y0180798D02*
X0335534Y0180798D01*
X0335534Y0179799D02*
X0271385Y0179799D01*
X0270387Y0178801D02*
X0335534Y0178801D01*
X0335534Y0177802D02*
X0269388Y0177802D01*
X0267875Y0182795D02*
X0259420Y0182795D01*
X0258212Y0183793D02*
X0268874Y0183793D01*
X0269872Y0184792D02*
X0191794Y0184792D01*
X0187266Y0182814D02*
X0186888Y0182436D01*
X0186233Y0180855D01*
X0186233Y0179427D01*
X0184368Y0180200D01*
X0182299Y0180200D01*
X0180388Y0179408D01*
X0178925Y0177946D01*
X0178133Y0176034D01*
X0178133Y0173966D01*
X0178823Y0172300D01*
X0167381Y0172300D01*
X0166033Y0170953D01*
X0164669Y0169588D01*
X0164278Y0169750D01*
X0162388Y0169750D01*
X0160643Y0169027D01*
X0159306Y0167691D01*
X0158583Y0165945D01*
X0158583Y0164055D01*
X0158745Y0163664D01*
X0157381Y0162300D01*
X0157243Y0162300D01*
X0157396Y0162510D01*
X0157735Y0163177D01*
X0157966Y0163888D01*
X0158083Y0164626D01*
X0158083Y0164811D01*
X0153522Y0164811D01*
X0153522Y0165189D01*
X0153144Y0165189D01*
X0153144Y0164811D01*
X0148583Y0164811D01*
X0148583Y0164626D01*
X0148700Y0163888D01*
X0148931Y0163177D01*
X0149271Y0162510D01*
X0149424Y0162300D01*
X0143886Y0162300D01*
X0145633Y0164047D01*
X0145633Y0186816D01*
X0146621Y0187803D01*
X0147211Y0189229D01*
X0147211Y0190771D01*
X0146621Y0192197D01*
X0146118Y0192700D01*
X0177381Y0192700D01*
X0187266Y0182814D01*
X0187247Y0182795D02*
X0145633Y0182795D01*
X0145633Y0183793D02*
X0186288Y0183793D01*
X0185289Y0184792D02*
X0145633Y0184792D01*
X0145633Y0185790D02*
X0184291Y0185790D01*
X0183292Y0186789D02*
X0145633Y0186789D01*
X0146605Y0187787D02*
X0182294Y0187787D01*
X0181295Y0188786D02*
X0147028Y0188786D01*
X0147211Y0189784D02*
X0180296Y0189784D01*
X0179298Y0190783D02*
X0147207Y0190783D01*
X0146793Y0191781D02*
X0178299Y0191781D01*
X0186623Y0181796D02*
X0145633Y0181796D01*
X0145633Y0180798D02*
X0186233Y0180798D01*
X0186233Y0179799D02*
X0185336Y0179799D01*
X0181331Y0179799D02*
X0155336Y0179799D01*
X0156279Y0179408D02*
X0154368Y0180200D01*
X0152299Y0180200D01*
X0150388Y0179408D01*
X0148925Y0177946D01*
X0148133Y0176034D01*
X0148133Y0173966D01*
X0148925Y0172054D01*
X0150388Y0170592D01*
X0152299Y0169800D01*
X0154368Y0169800D01*
X0156279Y0170592D01*
X0157742Y0172054D01*
X0158533Y0173966D01*
X0158533Y0176034D01*
X0157742Y0177946D01*
X0156279Y0179408D01*
X0156887Y0178801D02*
X0179780Y0178801D01*
X0178866Y0177802D02*
X0157801Y0177802D01*
X0158215Y0176803D02*
X0178452Y0176803D01*
X0178133Y0175805D02*
X0158533Y0175805D01*
X0158533Y0174806D02*
X0178133Y0174806D01*
X0178199Y0173808D02*
X0158468Y0173808D01*
X0158054Y0172809D02*
X0178612Y0172809D01*
X0188533Y0175805D02*
X0189425Y0175805D01*
X0198141Y0163823D02*
X0248565Y0163823D01*
X0247277Y0162824D02*
X0199390Y0162824D01*
X0200031Y0161826D02*
X0246638Y0161826D01*
X0257242Y0175805D02*
X0335534Y0175805D01*
X0335534Y0176803D02*
X0259018Y0176803D01*
X0257206Y0185790D02*
X0270871Y0185790D01*
X0271869Y0186789D02*
X0259003Y0186789D01*
X0259435Y0192780D02*
X0267860Y0192780D01*
X0268859Y0193778D02*
X0258248Y0193778D01*
X0257170Y0195775D02*
X0270856Y0195775D01*
X0269857Y0194777D02*
X0191809Y0194777D01*
X0191824Y0204762D02*
X0269842Y0204762D01*
X0268844Y0203763D02*
X0258284Y0203763D01*
X0259450Y0202765D02*
X0267845Y0202765D01*
X0270841Y0205760D02*
X0257134Y0205760D01*
X0258973Y0206759D02*
X0271839Y0206759D01*
X0273352Y0201766D02*
X0276847Y0201766D01*
X0275848Y0200768D02*
X0272354Y0200768D01*
X0271355Y0199769D02*
X0274850Y0199769D01*
X0273851Y0198771D02*
X0270357Y0198771D01*
X0269358Y0197772D02*
X0272853Y0197772D01*
X0271854Y0196774D02*
X0258988Y0196774D01*
X0269373Y0187787D02*
X0272868Y0187787D01*
X0273866Y0188786D02*
X0270372Y0188786D01*
X0271370Y0189784D02*
X0274865Y0189784D01*
X0275863Y0190783D02*
X0272369Y0190783D01*
X0273367Y0191781D02*
X0276862Y0191781D01*
X0277860Y0192780D02*
X0274366Y0192780D01*
X0275364Y0193778D02*
X0278859Y0193778D01*
X0279857Y0194777D02*
X0276363Y0194777D01*
X0277361Y0195775D02*
X0280856Y0195775D01*
X0281854Y0196774D02*
X0278360Y0196774D01*
X0272331Y0212750D02*
X0259465Y0212750D01*
X0258320Y0213748D02*
X0271332Y0213748D01*
X0270334Y0214747D02*
X0136839Y0214747D01*
X0135841Y0215745D02*
X0189568Y0215745D01*
X0187708Y0216744D02*
X0134842Y0216744D01*
X0137838Y0213748D02*
X0188346Y0213748D01*
X0187202Y0212750D02*
X0138836Y0212750D01*
X0123307Y0196774D02*
X0117461Y0196774D01*
X0116462Y0195775D02*
X0124305Y0195775D01*
X0125304Y0194777D02*
X0115412Y0194777D01*
X0116909Y0193778D02*
X0126302Y0193778D01*
X0127301Y0192780D02*
X0117741Y0192780D01*
X0118222Y0191781D02*
X0131033Y0191781D01*
X0131033Y0190783D02*
X0118474Y0190783D01*
X0118406Y0188786D02*
X0131033Y0188786D01*
X0131033Y0189784D02*
X0113833Y0189784D01*
X0113833Y0188786D02*
X0112833Y0188786D01*
X0112833Y0187787D02*
X0113833Y0187787D01*
X0113833Y0186789D02*
X0112833Y0186789D01*
X0112833Y0185790D02*
X0113833Y0185790D01*
X0116386Y0185790D02*
X0131033Y0185790D01*
X0131033Y0184792D02*
X0084833Y0184792D01*
X0084833Y0185790D02*
X0100189Y0185790D01*
X0099191Y0186789D02*
X0084833Y0186789D01*
X0084833Y0187787D02*
X0098621Y0187787D01*
X0098208Y0188786D02*
X0084833Y0188786D01*
X0084833Y0189784D02*
X0098133Y0189784D01*
X0098133Y0190783D02*
X0084833Y0190783D01*
X0084833Y0191781D02*
X0098443Y0191781D01*
X0098856Y0192780D02*
X0084833Y0192780D01*
X0084833Y0193778D02*
X0099758Y0193778D01*
X0101277Y0194777D02*
X0084833Y0194777D01*
X0084833Y0195775D02*
X0100204Y0195775D01*
X0099206Y0196774D02*
X0084833Y0196774D01*
X0084833Y0197772D02*
X0098628Y0197772D01*
X0098214Y0198771D02*
X0084833Y0198771D01*
X0084833Y0199769D02*
X0098133Y0199769D01*
X0098133Y0200768D02*
X0084833Y0200768D01*
X0084833Y0201766D02*
X0098437Y0201766D01*
X0098850Y0202765D02*
X0084833Y0202765D01*
X0084833Y0203763D02*
X0099743Y0203763D01*
X0101241Y0204762D02*
X0084833Y0204762D01*
X0084833Y0205760D02*
X0100219Y0205760D01*
X0099221Y0206759D02*
X0084833Y0206759D01*
X0084833Y0207757D02*
X0098634Y0207757D01*
X0098220Y0208756D02*
X0084833Y0208756D01*
X0084833Y0209754D02*
X0098133Y0209754D01*
X0098133Y0210753D02*
X0084833Y0210753D01*
X0084833Y0211751D02*
X0098430Y0211751D01*
X0098844Y0212750D02*
X0084833Y0212750D01*
X0084833Y0213748D02*
X0099728Y0213748D01*
X0101205Y0214747D02*
X0084833Y0214747D01*
X0084833Y0215745D02*
X0100234Y0215745D01*
X0099235Y0216744D02*
X0084833Y0216744D01*
X0084833Y0217742D02*
X0098640Y0217742D01*
X0098226Y0218741D02*
X0084833Y0218741D01*
X0084833Y0219739D02*
X0098133Y0219739D01*
X0098133Y0220738D02*
X0084833Y0220738D01*
X0084833Y0221737D02*
X0098424Y0221737D01*
X0098838Y0222735D02*
X0084833Y0222735D01*
X0084833Y0223734D02*
X0099713Y0223734D01*
X0101169Y0224732D02*
X0084833Y0224732D01*
X0084833Y0225731D02*
X0100249Y0225731D01*
X0099250Y0226729D02*
X0084833Y0226729D01*
X0084833Y0227728D02*
X0098646Y0227728D01*
X0098233Y0228726D02*
X0084833Y0228726D01*
X0084833Y0229725D02*
X0098133Y0229725D01*
X0098133Y0230723D02*
X0084833Y0230723D01*
X0084833Y0231722D02*
X0098418Y0231722D01*
X0098832Y0232720D02*
X0084833Y0232720D01*
X0084833Y0233719D02*
X0099698Y0233719D01*
X0101133Y0234717D02*
X0084833Y0234717D01*
X0084833Y0235716D02*
X0106221Y0235716D01*
X0107219Y0236714D02*
X0084833Y0236714D01*
X0084833Y0237713D02*
X0140136Y0237713D01*
X0139670Y0238711D02*
X0084833Y0238711D01*
X0084833Y0239710D02*
X0139271Y0239710D01*
X0138272Y0240708D02*
X0084833Y0240708D01*
X0084833Y0241707D02*
X0137274Y0241707D01*
X0136275Y0242705D02*
X0084833Y0242705D01*
X0084833Y0243704D02*
X0135277Y0243704D01*
X0134278Y0244702D02*
X0084833Y0244702D01*
X0084833Y0245701D02*
X0133280Y0245701D01*
X0132281Y0246699D02*
X0084833Y0246699D01*
X0084833Y0247698D02*
X0131283Y0247698D01*
X0130284Y0248696D02*
X0084833Y0248696D01*
X0084833Y0249695D02*
X0129286Y0249695D01*
X0128287Y0250693D02*
X0084833Y0250693D01*
X0084833Y0251692D02*
X0127289Y0251692D01*
X0126290Y0252690D02*
X0084833Y0252690D01*
X0084833Y0253689D02*
X0125292Y0253689D01*
X0124293Y0254687D02*
X0084833Y0254687D01*
X0084833Y0255686D02*
X0123295Y0255686D01*
X0126805Y0258681D02*
X0335534Y0258681D01*
X0335534Y0257683D02*
X0127803Y0257683D01*
X0128802Y0256684D02*
X0335534Y0256684D01*
X0335534Y0255686D02*
X0129800Y0255686D01*
X0126174Y0259680D02*
X0335534Y0259680D01*
X0335534Y0260678D02*
X0185313Y0260678D01*
X0186024Y0260973D02*
X0187360Y0262309D01*
X0188083Y0264055D01*
X0188083Y0265945D01*
X0187360Y0267691D01*
X0186615Y0268435D01*
X0187318Y0269138D01*
X0188033Y0270865D01*
X0188033Y0279135D01*
X0187318Y0280862D01*
X0185996Y0282184D01*
X0184268Y0282900D01*
X0182398Y0282900D01*
X0180671Y0282184D01*
X0179349Y0280862D01*
X0178633Y0279135D01*
X0178633Y0270865D01*
X0179349Y0269138D01*
X0180051Y0268435D01*
X0179306Y0267691D01*
X0178583Y0265945D01*
X0178583Y0264055D01*
X0179306Y0262309D01*
X0180643Y0260973D01*
X0182388Y0260250D01*
X0184278Y0260250D01*
X0186024Y0260973D01*
X0186728Y0261677D02*
X0335534Y0261677D01*
X0335534Y0262675D02*
X0187512Y0262675D01*
X0187925Y0263674D02*
X0335534Y0263674D01*
X0335534Y0264672D02*
X0188083Y0264672D01*
X0188083Y0265671D02*
X0335534Y0265671D01*
X0335534Y0266670D02*
X0187783Y0266670D01*
X0187370Y0267668D02*
X0335534Y0267668D01*
X0335534Y0268667D02*
X0186847Y0268667D01*
X0187536Y0269665D02*
X0335534Y0269665D01*
X0335534Y0270664D02*
X0187950Y0270664D01*
X0188033Y0271662D02*
X0335534Y0271662D01*
X0335534Y0272661D02*
X0188033Y0272661D01*
X0188033Y0273659D02*
X0335534Y0273659D01*
X0335534Y0274658D02*
X0188033Y0274658D01*
X0188033Y0275656D02*
X0214135Y0275656D01*
X0214541Y0275250D02*
X0222283Y0275250D01*
X0223162Y0276129D01*
X0223162Y0283871D01*
X0222283Y0284750D01*
X0214541Y0284750D01*
X0213662Y0283871D01*
X0213662Y0276129D01*
X0214541Y0275250D01*
X0213662Y0276655D02*
X0188033Y0276655D01*
X0188033Y0277653D02*
X0213662Y0277653D01*
X0213662Y0278652D02*
X0188033Y0278652D01*
X0187820Y0279650D02*
X0213662Y0279650D01*
X0213662Y0280649D02*
X0187406Y0280649D01*
X0186533Y0281647D02*
X0213662Y0281647D01*
X0213662Y0282646D02*
X0184882Y0282646D01*
X0181785Y0282646D02*
X0174860Y0282646D01*
X0175137Y0282556D02*
X0174434Y0282784D01*
X0173833Y0282879D01*
X0173833Y0275500D01*
X0172833Y0275500D01*
X0172833Y0274500D01*
X0168633Y0274500D01*
X0168633Y0271430D01*
X0168749Y0270699D01*
X0168978Y0269996D01*
X0169314Y0269337D01*
X0169748Y0268738D01*
X0170051Y0268435D01*
X0169710Y0268094D01*
X0169271Y0267490D01*
X0168931Y0266823D01*
X0168700Y0266112D01*
X0168583Y0265374D01*
X0168583Y0265189D01*
X0173144Y0265189D01*
X0173144Y0264811D01*
X0168583Y0264811D01*
X0168583Y0264626D01*
X0168700Y0263888D01*
X0168931Y0263177D01*
X0169271Y0262510D01*
X0169710Y0261906D01*
X0170239Y0261377D01*
X0170844Y0260937D01*
X0171510Y0260598D01*
X0172221Y0260367D01*
X0172959Y0260250D01*
X0173144Y0260250D01*
X0173144Y0264811D01*
X0173522Y0264811D01*
X0173522Y0260250D01*
X0173707Y0260250D01*
X0174446Y0260367D01*
X0175157Y0260598D01*
X0175823Y0260937D01*
X0176428Y0261377D01*
X0176956Y0261906D01*
X0177396Y0262510D01*
X0177735Y0263177D01*
X0177966Y0263888D01*
X0178083Y0264626D01*
X0178083Y0264811D01*
X0173522Y0264811D01*
X0173522Y0265189D01*
X0173144Y0265189D01*
X0173144Y0269750D01*
X0172959Y0269750D01*
X0172833Y0269730D01*
X0172833Y0274500D01*
X0173833Y0274500D01*
X0173833Y0269730D01*
X0173707Y0269750D01*
X0173522Y0269750D01*
X0173522Y0265189D01*
X0178083Y0265189D01*
X0178083Y0265374D01*
X0177966Y0266112D01*
X0177735Y0266823D01*
X0177396Y0267490D01*
X0176956Y0268094D01*
X0176615Y0268435D01*
X0176918Y0268738D01*
X0177353Y0269337D01*
X0177689Y0269996D01*
X0177918Y0270699D01*
X0178033Y0271430D01*
X0178033Y0274500D01*
X0173833Y0274500D01*
X0173833Y0275500D01*
X0178033Y0275500D01*
X0178033Y0278570D01*
X0177918Y0279301D01*
X0177689Y0280004D01*
X0177353Y0280663D01*
X0176918Y0281262D01*
X0176395Y0281785D01*
X0175797Y0282220D01*
X0175137Y0282556D01*
X0173833Y0282646D02*
X0172833Y0282646D01*
X0172833Y0282879D02*
X0172233Y0282784D01*
X0171529Y0282556D01*
X0170870Y0282220D01*
X0170271Y0281785D01*
X0169748Y0281262D01*
X0169314Y0280663D01*
X0168978Y0280004D01*
X0168749Y0279301D01*
X0168633Y0278570D01*
X0168633Y0275500D01*
X0172833Y0275500D01*
X0172833Y0282879D01*
X0171806Y0282646D02*
X0164882Y0282646D01*
X0164268Y0282900D02*
X0162398Y0282900D01*
X0160671Y0282184D01*
X0159349Y0280862D01*
X0158633Y0279135D01*
X0158633Y0270865D01*
X0159349Y0269138D01*
X0160671Y0267816D01*
X0162398Y0267100D01*
X0164268Y0267100D01*
X0165996Y0267816D01*
X0167318Y0269138D01*
X0168033Y0270865D01*
X0168033Y0279135D01*
X0167318Y0280862D01*
X0165996Y0282184D01*
X0164268Y0282900D01*
X0161785Y0282646D02*
X0124742Y0282646D01*
X0124521Y0282866D02*
X0125100Y0282288D01*
X0125581Y0281625D01*
X0125952Y0280896D01*
X0126205Y0280118D01*
X0126319Y0279400D01*
X0121633Y0279400D01*
X0120633Y0279400D01*
X0120633Y0278400D01*
X0115948Y0278400D01*
X0116061Y0277682D01*
X0116314Y0276904D01*
X0116686Y0276175D01*
X0117167Y0275512D01*
X0117746Y0274934D01*
X0118408Y0274453D01*
X0119137Y0274081D01*
X0119916Y0273828D01*
X0120633Y0273714D01*
X0120633Y0278400D01*
X0121633Y0278400D01*
X0121633Y0273714D01*
X0122351Y0273828D01*
X0123129Y0274081D01*
X0123859Y0274453D01*
X0124521Y0274934D01*
X0125100Y0275512D01*
X0125581Y0276175D01*
X0125952Y0276904D01*
X0126205Y0277682D01*
X0126319Y0278400D01*
X0121633Y0278400D01*
X0121633Y0279400D01*
X0121633Y0284086D01*
X0122351Y0283972D01*
X0123129Y0283719D01*
X0123859Y0283347D01*
X0124521Y0282866D01*
X0123276Y0283644D02*
X0213662Y0283644D01*
X0214433Y0284643D02*
X0084833Y0284643D01*
X0084833Y0285641D02*
X0335534Y0285641D01*
X0335534Y0284643D02*
X0229306Y0284643D01*
X0229367Y0284633D02*
X0228628Y0284750D01*
X0228444Y0284750D01*
X0228444Y0280189D01*
X0233005Y0280189D01*
X0233005Y0280374D01*
X0232888Y0281112D01*
X0232657Y0281823D01*
X0232317Y0282490D01*
X0231878Y0283094D01*
X0231349Y0283623D01*
X0230744Y0284063D01*
X0230078Y0284402D01*
X0229367Y0284633D01*
X0228444Y0284643D02*
X0228066Y0284643D01*
X0228066Y0284750D02*
X0227881Y0284750D01*
X0227142Y0284633D01*
X0226431Y0284402D01*
X0225765Y0284063D01*
X0225160Y0283623D01*
X0224631Y0283094D01*
X0224192Y0282490D01*
X0223853Y0281823D01*
X0223622Y0281112D01*
X0223505Y0280374D01*
X0223505Y0280189D01*
X0228066Y0280189D01*
X0228066Y0284750D01*
X0227204Y0284643D02*
X0222391Y0284643D01*
X0223162Y0283644D02*
X0225189Y0283644D01*
X0224305Y0282646D02*
X0223162Y0282646D01*
X0223162Y0281647D02*
X0223795Y0281647D01*
X0223548Y0280649D02*
X0223162Y0280649D01*
X0223505Y0279811D02*
X0223505Y0279626D01*
X0223622Y0278888D01*
X0223853Y0278177D01*
X0224192Y0277510D01*
X0224631Y0276906D01*
X0225160Y0276377D01*
X0225765Y0275937D01*
X0226431Y0275598D01*
X0227142Y0275367D01*
X0227881Y0275250D01*
X0228066Y0275250D01*
X0228066Y0279811D01*
X0228444Y0279811D01*
X0228444Y0280189D01*
X0228066Y0280189D01*
X0228066Y0279811D01*
X0223505Y0279811D01*
X0223505Y0279650D02*
X0223162Y0279650D01*
X0223162Y0278652D02*
X0223698Y0278652D01*
X0224119Y0277653D02*
X0223162Y0277653D01*
X0223162Y0276655D02*
X0224882Y0276655D01*
X0226317Y0275656D02*
X0222690Y0275656D01*
X0228066Y0275656D02*
X0228444Y0275656D01*
X0228444Y0275250D02*
X0228628Y0275250D01*
X0229367Y0275367D01*
X0230078Y0275598D01*
X0230744Y0275937D01*
X0231349Y0276377D01*
X0231878Y0276906D01*
X0232317Y0277510D01*
X0232657Y0278177D01*
X0232888Y0278888D01*
X0233005Y0279626D01*
X0233005Y0279811D01*
X0228444Y0279811D01*
X0228444Y0275250D01*
X0228444Y0276655D02*
X0228066Y0276655D01*
X0228066Y0277653D02*
X0228444Y0277653D01*
X0228444Y0278652D02*
X0228066Y0278652D01*
X0228066Y0279650D02*
X0228444Y0279650D01*
X0228444Y0280649D02*
X0228066Y0280649D01*
X0228066Y0281647D02*
X0228444Y0281647D01*
X0228444Y0282646D02*
X0228066Y0282646D01*
X0228066Y0283644D02*
X0228444Y0283644D01*
X0231320Y0283644D02*
X0335534Y0283644D01*
X0335534Y0282646D02*
X0232204Y0282646D01*
X0232714Y0281647D02*
X0335534Y0281647D01*
X0335534Y0280649D02*
X0232961Y0280649D01*
X0233005Y0279650D02*
X0335534Y0279650D01*
X0335534Y0278652D02*
X0232811Y0278652D01*
X0232390Y0277653D02*
X0335534Y0277653D01*
X0335534Y0276655D02*
X0231627Y0276655D01*
X0230192Y0275656D02*
X0335534Y0275656D01*
X0335534Y0286640D02*
X0084833Y0286640D01*
X0084833Y0287638D02*
X0335534Y0287638D01*
X0335534Y0288637D02*
X0084833Y0288637D01*
X0084833Y0289635D02*
X0335534Y0289635D01*
X0335534Y0290634D02*
X0084833Y0290634D01*
X0084833Y0291632D02*
X0335534Y0291632D01*
X0335534Y0292631D02*
X0084833Y0292631D01*
X0084833Y0293629D02*
X0335534Y0293629D01*
X0335534Y0294628D02*
X0084833Y0294628D01*
X0084833Y0295626D02*
X0335534Y0295626D01*
X0335534Y0296625D02*
X0084833Y0296625D01*
X0084833Y0297623D02*
X0335534Y0297623D01*
X0335534Y0298622D02*
X0084833Y0298622D01*
X0084833Y0299620D02*
X0335534Y0299620D01*
X0335534Y0300619D02*
X0096306Y0300619D01*
X0096279Y0300592D02*
X0097742Y0302054D01*
X0098533Y0303966D01*
X0098533Y0306034D01*
X0097742Y0307946D01*
X0096279Y0309408D01*
X0094850Y0310000D01*
X0096279Y0310592D01*
X0097742Y0312054D01*
X0098533Y0313966D01*
X0098533Y0316034D01*
X0097742Y0317946D01*
X0096279Y0319408D01*
X0094850Y0320000D01*
X0096279Y0320592D01*
X0097742Y0322054D01*
X0098533Y0323966D01*
X0098533Y0326034D01*
X0097742Y0327946D01*
X0096279Y0329408D01*
X0094368Y0330200D01*
X0092299Y0330200D01*
X0090388Y0329408D01*
X0088925Y0327946D01*
X0088133Y0326034D01*
X0088133Y0323966D01*
X0088925Y0322054D01*
X0090388Y0320592D01*
X0091816Y0320000D01*
X0090388Y0319408D01*
X0088925Y0317946D01*
X0088133Y0316034D01*
X0088133Y0313966D01*
X0088925Y0312054D01*
X0090388Y0310592D01*
X0091816Y0310000D01*
X0090388Y0309408D01*
X0088925Y0307946D01*
X0088133Y0306034D01*
X0088133Y0303966D01*
X0088925Y0302054D01*
X0090388Y0300592D01*
X0092299Y0299800D01*
X0094368Y0299800D01*
X0096279Y0300592D01*
X0097305Y0301617D02*
X0115635Y0301617D01*
X0115898Y0301355D02*
X0117478Y0300700D01*
X0119189Y0300700D01*
X0120769Y0301355D01*
X0121979Y0302564D01*
X0122633Y0304145D01*
X0122633Y0305855D01*
X0121979Y0307436D01*
X0120769Y0308645D01*
X0119189Y0309300D01*
X0117478Y0309300D01*
X0115898Y0308645D01*
X0114688Y0307436D01*
X0114033Y0305855D01*
X0114033Y0304145D01*
X0114688Y0302564D01*
X0115898Y0301355D01*
X0114667Y0302616D02*
X0097974Y0302616D01*
X0098388Y0303614D02*
X0114253Y0303614D01*
X0114033Y0304613D02*
X0098533Y0304613D01*
X0098533Y0305611D02*
X0114033Y0305611D01*
X0114346Y0306610D02*
X0098295Y0306610D01*
X0097881Y0307608D02*
X0114861Y0307608D01*
X0115859Y0308607D02*
X0097080Y0308607D01*
X0095803Y0309605D02*
X0213133Y0309605D01*
X0213133Y0308966D02*
X0213925Y0307054D01*
X0215388Y0305592D01*
X0217299Y0304800D01*
X0219368Y0304800D01*
X0221279Y0305592D01*
X0222742Y0307054D01*
X0223533Y0308966D01*
X0223533Y0311034D01*
X0222742Y0312946D01*
X0221279Y0314408D01*
X0219368Y0315200D01*
X0217299Y0315200D01*
X0215388Y0314408D01*
X0213925Y0312946D01*
X0213133Y0311034D01*
X0213133Y0308966D01*
X0213282Y0308607D02*
X0140807Y0308607D01*
X0140114Y0309300D02*
X0138633Y0309300D01*
X0138633Y0305300D01*
X0138033Y0305300D01*
X0138033Y0304700D01*
X0134033Y0304700D01*
X0134033Y0303219D01*
X0136552Y0300700D01*
X0138033Y0300700D01*
X0138033Y0304700D01*
X0138633Y0304700D01*
X0138633Y0300700D01*
X0140114Y0300700D01*
X0142633Y0303219D01*
X0142633Y0304700D01*
X0138633Y0304700D01*
X0138633Y0305300D01*
X0142633Y0305300D01*
X0142633Y0306781D01*
X0140114Y0309300D01*
X0138633Y0308607D02*
X0138033Y0308607D01*
X0138033Y0309300D02*
X0136552Y0309300D01*
X0134033Y0306781D01*
X0134033Y0305300D01*
X0138033Y0305300D01*
X0138033Y0309300D01*
X0138033Y0307608D02*
X0138633Y0307608D01*
X0138633Y0306610D02*
X0138033Y0306610D01*
X0138033Y0305611D02*
X0138633Y0305611D01*
X0138633Y0304613D02*
X0138033Y0304613D01*
X0138033Y0303614D02*
X0138633Y0303614D01*
X0138633Y0302616D02*
X0138033Y0302616D01*
X0138033Y0301617D02*
X0138633Y0301617D01*
X0141032Y0301617D02*
X0335534Y0301617D01*
X0335534Y0302616D02*
X0142030Y0302616D01*
X0142633Y0303614D02*
X0335534Y0303614D01*
X0335534Y0304613D02*
X0142633Y0304613D01*
X0142633Y0305611D02*
X0215368Y0305611D01*
X0214369Y0306610D02*
X0142633Y0306610D01*
X0141806Y0307608D02*
X0213695Y0307608D01*
X0213133Y0310604D02*
X0096291Y0310604D01*
X0097290Y0311603D02*
X0213369Y0311603D01*
X0213782Y0312601D02*
X0097968Y0312601D01*
X0098382Y0313600D02*
X0214579Y0313600D01*
X0215846Y0314598D02*
X0098533Y0314598D01*
X0098533Y0315597D02*
X0335534Y0315597D01*
X0335534Y0316595D02*
X0098301Y0316595D01*
X0097887Y0317594D02*
X0335534Y0317594D01*
X0335534Y0318592D02*
X0097095Y0318592D01*
X0095839Y0319591D02*
X0335534Y0319591D01*
X0335534Y0320589D02*
X0096273Y0320589D01*
X0097275Y0321588D02*
X0335534Y0321588D01*
X0335534Y0322586D02*
X0097962Y0322586D01*
X0098376Y0323585D02*
X0335534Y0323585D01*
X0335534Y0324583D02*
X0098533Y0324583D01*
X0098533Y0325582D02*
X0335534Y0325582D01*
X0335534Y0326580D02*
X0098307Y0326580D01*
X0097894Y0327579D02*
X0335534Y0327579D01*
X0335534Y0328577D02*
X0097110Y0328577D01*
X0095875Y0329576D02*
X0335534Y0329576D01*
X0335534Y0330574D02*
X0084833Y0330574D01*
X0084833Y0329576D02*
X0090792Y0329576D01*
X0089557Y0328577D02*
X0084833Y0328577D01*
X0084833Y0327579D02*
X0088773Y0327579D01*
X0088359Y0326580D02*
X0084833Y0326580D01*
X0084833Y0325582D02*
X0088133Y0325582D01*
X0088133Y0324583D02*
X0084833Y0324583D01*
X0084833Y0323585D02*
X0088291Y0323585D01*
X0088705Y0322586D02*
X0084833Y0322586D01*
X0084833Y0321588D02*
X0089392Y0321588D01*
X0090394Y0320589D02*
X0084833Y0320589D01*
X0084833Y0319591D02*
X0090828Y0319591D01*
X0089572Y0318592D02*
X0084833Y0318592D01*
X0084833Y0317594D02*
X0088779Y0317594D01*
X0088366Y0316595D02*
X0084833Y0316595D01*
X0084833Y0315597D02*
X0088133Y0315597D01*
X0088133Y0314598D02*
X0084833Y0314598D01*
X0084833Y0313600D02*
X0088285Y0313600D01*
X0088699Y0312601D02*
X0084833Y0312601D01*
X0084833Y0311603D02*
X0089377Y0311603D01*
X0090375Y0310604D02*
X0084833Y0310604D01*
X0084833Y0309605D02*
X0090864Y0309605D01*
X0089586Y0308607D02*
X0084833Y0308607D01*
X0084833Y0307608D02*
X0088785Y0307608D01*
X0088372Y0306610D02*
X0084833Y0306610D01*
X0084833Y0305611D02*
X0088133Y0305611D01*
X0088133Y0304613D02*
X0084833Y0304613D01*
X0084833Y0303614D02*
X0088279Y0303614D01*
X0088692Y0302616D02*
X0084833Y0302616D01*
X0084833Y0301617D02*
X0089362Y0301617D01*
X0090361Y0300619D02*
X0084833Y0300619D01*
X0084833Y0283644D02*
X0093390Y0283644D01*
X0093537Y0283719D02*
X0092808Y0283347D01*
X0092146Y0282866D01*
X0091567Y0282288D01*
X0091086Y0281625D01*
X0090714Y0280896D01*
X0090461Y0280118D01*
X0090348Y0279400D01*
X0095033Y0279400D01*
X0095033Y0278400D01*
X0090348Y0278400D01*
X0090461Y0277682D01*
X0090714Y0276904D01*
X0091086Y0276175D01*
X0091567Y0275512D01*
X0092146Y0274934D01*
X0092808Y0274453D01*
X0093537Y0274081D01*
X0094316Y0273828D01*
X0095033Y0273714D01*
X0095033Y0278400D01*
X0096033Y0278400D01*
X0096033Y0273714D01*
X0096751Y0273828D01*
X0097529Y0274081D01*
X0098259Y0274453D01*
X0098921Y0274934D01*
X0099500Y0275512D01*
X0099981Y0276175D01*
X0100352Y0276904D01*
X0100605Y0277682D01*
X0100719Y0278400D01*
X0096033Y0278400D01*
X0096033Y0279400D01*
X0095033Y0279400D01*
X0095033Y0284086D01*
X0094316Y0283972D01*
X0093537Y0283719D01*
X0095033Y0283644D02*
X0096033Y0283644D01*
X0096033Y0284086D02*
X0096751Y0283972D01*
X0097529Y0283719D01*
X0098259Y0283347D01*
X0098921Y0282866D01*
X0099500Y0282288D01*
X0099981Y0281625D01*
X0100352Y0280896D01*
X0100605Y0280118D01*
X0100719Y0279400D01*
X0096033Y0279400D01*
X0096033Y0284086D01*
X0096033Y0282646D02*
X0095033Y0282646D01*
X0095033Y0281647D02*
X0096033Y0281647D01*
X0096033Y0280649D02*
X0095033Y0280649D01*
X0095033Y0279650D02*
X0096033Y0279650D01*
X0096033Y0278652D02*
X0120633Y0278652D01*
X0120633Y0279400D02*
X0115948Y0279400D01*
X0116061Y0280118D01*
X0116314Y0280896D01*
X0116686Y0281625D01*
X0117167Y0282288D01*
X0117746Y0282866D01*
X0118408Y0283347D01*
X0119137Y0283719D01*
X0119916Y0283972D01*
X0120633Y0284086D01*
X0120633Y0279400D01*
X0120633Y0279650D02*
X0121633Y0279650D01*
X0121633Y0278652D02*
X0158633Y0278652D01*
X0158633Y0277653D02*
X0126196Y0277653D01*
X0125825Y0276655D02*
X0158633Y0276655D01*
X0158633Y0275656D02*
X0125204Y0275656D01*
X0124141Y0274658D02*
X0137455Y0274658D01*
X0137300Y0274633D02*
X0136589Y0274402D01*
X0135923Y0274063D01*
X0135318Y0273623D01*
X0134789Y0273094D01*
X0134350Y0272490D01*
X0134010Y0271823D01*
X0133779Y0271112D01*
X0133662Y0270374D01*
X0133662Y0270189D01*
X0138223Y0270189D01*
X0138223Y0269811D01*
X0133662Y0269811D01*
X0133662Y0269626D01*
X0133779Y0268888D01*
X0134010Y0268177D01*
X0134350Y0267510D01*
X0134789Y0266906D01*
X0135318Y0266377D01*
X0135923Y0265937D01*
X0136589Y0265598D01*
X0137300Y0265367D01*
X0138038Y0265250D01*
X0138223Y0265250D01*
X0138223Y0269811D01*
X0138601Y0269811D01*
X0138601Y0265250D01*
X0138786Y0265250D01*
X0139524Y0265367D01*
X0140235Y0265598D01*
X0140902Y0265937D01*
X0141506Y0266377D01*
X0142035Y0266906D01*
X0142475Y0267510D01*
X0142814Y0268177D01*
X0143045Y0268888D01*
X0143162Y0269626D01*
X0143162Y0269811D01*
X0138601Y0269811D01*
X0138601Y0270189D01*
X0138223Y0270189D01*
X0138223Y0274750D01*
X0138038Y0274750D01*
X0137300Y0274633D01*
X0138223Y0274658D02*
X0138601Y0274658D01*
X0138601Y0274750D02*
X0138786Y0274750D01*
X0139524Y0274633D01*
X0140235Y0274402D01*
X0140902Y0274063D01*
X0141506Y0273623D01*
X0142035Y0273094D01*
X0142475Y0272490D01*
X0142814Y0271823D01*
X0143045Y0271112D01*
X0143162Y0270374D01*
X0143162Y0270189D01*
X0138601Y0270189D01*
X0138601Y0274750D01*
X0139369Y0274658D02*
X0144291Y0274658D01*
X0144383Y0274750D02*
X0143505Y0273871D01*
X0143505Y0266129D01*
X0144383Y0265250D01*
X0152126Y0265250D01*
X0153005Y0266129D01*
X0153005Y0273871D01*
X0152126Y0274750D01*
X0144383Y0274750D01*
X0143505Y0273659D02*
X0141457Y0273659D01*
X0142350Y0272661D02*
X0143505Y0272661D01*
X0143505Y0271662D02*
X0142866Y0271662D01*
X0143116Y0270664D02*
X0143505Y0270664D01*
X0143505Y0269665D02*
X0143162Y0269665D01*
X0142973Y0268667D02*
X0143505Y0268667D01*
X0143505Y0267668D02*
X0142555Y0267668D01*
X0141799Y0266670D02*
X0143505Y0266670D01*
X0143962Y0265671D02*
X0140379Y0265671D01*
X0138601Y0265671D02*
X0138223Y0265671D01*
X0138223Y0266670D02*
X0138601Y0266670D01*
X0138601Y0267668D02*
X0138223Y0267668D01*
X0138223Y0268667D02*
X0138601Y0268667D01*
X0138601Y0269665D02*
X0138223Y0269665D01*
X0138223Y0270664D02*
X0138601Y0270664D01*
X0138601Y0271662D02*
X0138223Y0271662D01*
X0138223Y0272661D02*
X0138601Y0272661D01*
X0138601Y0273659D02*
X0138223Y0273659D01*
X0135367Y0273659D02*
X0084833Y0273659D01*
X0084833Y0272661D02*
X0134474Y0272661D01*
X0133958Y0271662D02*
X0084833Y0271662D01*
X0084833Y0270664D02*
X0133708Y0270664D01*
X0133662Y0269665D02*
X0084833Y0269665D01*
X0084833Y0268667D02*
X0133851Y0268667D01*
X0134269Y0267668D02*
X0084833Y0267668D01*
X0084833Y0266670D02*
X0135025Y0266670D01*
X0136445Y0265671D02*
X0123686Y0265671D01*
X0124915Y0264672D02*
X0168583Y0264672D01*
X0168630Y0265671D02*
X0152547Y0265671D01*
X0153005Y0266670D02*
X0168881Y0266670D01*
X0169400Y0267668D02*
X0165640Y0267668D01*
X0166847Y0268667D02*
X0169820Y0268667D01*
X0169146Y0269665D02*
X0167536Y0269665D01*
X0167950Y0270664D02*
X0168761Y0270664D01*
X0168633Y0271662D02*
X0168033Y0271662D01*
X0168033Y0272661D02*
X0168633Y0272661D01*
X0168633Y0273659D02*
X0168033Y0273659D01*
X0168033Y0274658D02*
X0172833Y0274658D01*
X0172833Y0275656D02*
X0173833Y0275656D01*
X0173833Y0274658D02*
X0178633Y0274658D01*
X0178633Y0275656D02*
X0178033Y0275656D01*
X0178033Y0276655D02*
X0178633Y0276655D01*
X0178633Y0277653D02*
X0178033Y0277653D01*
X0178020Y0278652D02*
X0178633Y0278652D01*
X0178847Y0279650D02*
X0177804Y0279650D01*
X0177361Y0280649D02*
X0179260Y0280649D01*
X0180134Y0281647D02*
X0176533Y0281647D01*
X0173833Y0281647D02*
X0172833Y0281647D01*
X0172833Y0280649D02*
X0173833Y0280649D01*
X0173833Y0279650D02*
X0172833Y0279650D01*
X0172833Y0278652D02*
X0173833Y0278652D01*
X0173833Y0277653D02*
X0172833Y0277653D01*
X0172833Y0276655D02*
X0173833Y0276655D01*
X0173833Y0273659D02*
X0172833Y0273659D01*
X0172833Y0272661D02*
X0173833Y0272661D01*
X0173833Y0271662D02*
X0172833Y0271662D01*
X0172833Y0270664D02*
X0173833Y0270664D01*
X0173522Y0269665D02*
X0173144Y0269665D01*
X0173144Y0268667D02*
X0173522Y0268667D01*
X0173522Y0267668D02*
X0173144Y0267668D01*
X0173144Y0266670D02*
X0173522Y0266670D01*
X0173522Y0265671D02*
X0173144Y0265671D01*
X0173144Y0264672D02*
X0173522Y0264672D01*
X0173522Y0263674D02*
X0173144Y0263674D01*
X0173144Y0262675D02*
X0173522Y0262675D01*
X0173522Y0261677D02*
X0173144Y0261677D01*
X0173144Y0260678D02*
X0173522Y0260678D01*
X0175315Y0260678D02*
X0181354Y0260678D01*
X0179939Y0261677D02*
X0176728Y0261677D01*
X0177480Y0262675D02*
X0179155Y0262675D01*
X0178741Y0263674D02*
X0177897Y0263674D01*
X0178083Y0264672D02*
X0178583Y0264672D01*
X0178583Y0265671D02*
X0178036Y0265671D01*
X0177785Y0266670D02*
X0178884Y0266670D01*
X0179297Y0267668D02*
X0177266Y0267668D01*
X0176847Y0268667D02*
X0179820Y0268667D01*
X0179130Y0269665D02*
X0177520Y0269665D01*
X0177906Y0270664D02*
X0178717Y0270664D01*
X0178633Y0271662D02*
X0178033Y0271662D01*
X0178033Y0272661D02*
X0178633Y0272661D01*
X0178633Y0273659D02*
X0178033Y0273659D01*
X0168633Y0275656D02*
X0168033Y0275656D01*
X0168033Y0276655D02*
X0168633Y0276655D01*
X0168633Y0277653D02*
X0168033Y0277653D01*
X0168033Y0278652D02*
X0168646Y0278652D01*
X0168863Y0279650D02*
X0167820Y0279650D01*
X0167406Y0280649D02*
X0169306Y0280649D01*
X0170134Y0281647D02*
X0166533Y0281647D01*
X0160134Y0281647D02*
X0125565Y0281647D01*
X0126033Y0280649D02*
X0159260Y0280649D01*
X0158847Y0279650D02*
X0126279Y0279650D01*
X0121633Y0280649D02*
X0120633Y0280649D01*
X0120633Y0281647D02*
X0121633Y0281647D01*
X0121633Y0282646D02*
X0120633Y0282646D01*
X0120633Y0283644D02*
X0121633Y0283644D01*
X0118990Y0283644D02*
X0097676Y0283644D01*
X0099142Y0282646D02*
X0117525Y0282646D01*
X0116702Y0281647D02*
X0099965Y0281647D01*
X0100433Y0280649D02*
X0116234Y0280649D01*
X0115987Y0279650D02*
X0100679Y0279650D01*
X0100596Y0277653D02*
X0116071Y0277653D01*
X0116441Y0276655D02*
X0100225Y0276655D01*
X0099604Y0275656D02*
X0117063Y0275656D01*
X0118126Y0274658D02*
X0098541Y0274658D01*
X0096033Y0274658D02*
X0095033Y0274658D01*
X0095033Y0275656D02*
X0096033Y0275656D01*
X0096033Y0276655D02*
X0095033Y0276655D01*
X0095033Y0277653D02*
X0096033Y0277653D01*
X0095033Y0278652D02*
X0084833Y0278652D01*
X0084833Y0279650D02*
X0090387Y0279650D01*
X0090634Y0280649D02*
X0084833Y0280649D01*
X0084833Y0281647D02*
X0091102Y0281647D01*
X0091925Y0282646D02*
X0084833Y0282646D01*
X0084833Y0277653D02*
X0090471Y0277653D01*
X0090841Y0276655D02*
X0084833Y0276655D01*
X0084833Y0275656D02*
X0091463Y0275656D01*
X0092526Y0274658D02*
X0084833Y0274658D01*
X0084833Y0265671D02*
X0092980Y0265671D01*
X0091752Y0264672D02*
X0084833Y0264672D01*
X0084833Y0263674D02*
X0090971Y0263674D01*
X0090557Y0262675D02*
X0084833Y0262675D01*
X0084833Y0261677D02*
X0090333Y0261677D01*
X0090333Y0260678D02*
X0084833Y0260678D01*
X0084833Y0259680D02*
X0090493Y0259680D01*
X0090907Y0258681D02*
X0084833Y0258681D01*
X0084833Y0257683D02*
X0091596Y0257683D01*
X0092605Y0256684D02*
X0084833Y0256684D01*
X0098461Y0256684D02*
X0118205Y0256684D01*
X0117196Y0257683D02*
X0099470Y0257683D01*
X0100160Y0258681D02*
X0116507Y0258681D01*
X0116571Y0263674D02*
X0100096Y0263674D01*
X0099315Y0264672D02*
X0117352Y0264672D01*
X0118580Y0265671D02*
X0098086Y0265671D01*
X0120633Y0274658D02*
X0121633Y0274658D01*
X0121633Y0275656D02*
X0120633Y0275656D01*
X0120633Y0276655D02*
X0121633Y0276655D01*
X0121633Y0277653D02*
X0120633Y0277653D01*
X0125696Y0263674D02*
X0168770Y0263674D01*
X0169187Y0262675D02*
X0126109Y0262675D01*
X0126333Y0261677D02*
X0169939Y0261677D01*
X0171352Y0260678D02*
X0126333Y0260678D01*
X0118333Y0235000D02*
X0108333Y0235000D01*
X0103333Y0230000D01*
X0108333Y0225000D02*
X0118333Y0225000D01*
X0108333Y0225000D02*
X0103333Y0220000D01*
X0108333Y0215000D02*
X0118333Y0215000D01*
X0108333Y0215000D02*
X0103333Y0210000D01*
X0108333Y0205000D02*
X0118333Y0205000D01*
X0118333Y0200000D02*
X0113333Y0200000D01*
X0108333Y0205000D02*
X0103333Y0200000D01*
X0108045Y0187787D02*
X0108625Y0187787D01*
X0109239Y0186789D02*
X0107476Y0186789D01*
X0106477Y0185790D02*
X0110281Y0185790D01*
X0117428Y0186789D02*
X0131033Y0186789D01*
X0131033Y0187787D02*
X0118042Y0187787D01*
X0127883Y0177802D02*
X0084833Y0177802D01*
X0084833Y0178801D02*
X0128881Y0178801D01*
X0129880Y0179799D02*
X0084833Y0179799D01*
X0084833Y0180798D02*
X0130878Y0180798D01*
X0131033Y0181796D02*
X0084833Y0181796D01*
X0084833Y0182795D02*
X0131033Y0182795D01*
X0131033Y0183793D02*
X0084833Y0183793D01*
X0084833Y0176803D02*
X0126884Y0176803D01*
X0125886Y0175805D02*
X0084833Y0175805D01*
X0084833Y0174806D02*
X0124887Y0174806D01*
X0123889Y0173808D02*
X0084833Y0173808D01*
X0084833Y0172809D02*
X0122890Y0172809D01*
X0145633Y0172809D02*
X0148612Y0172809D01*
X0148199Y0173808D02*
X0145633Y0173808D01*
X0145633Y0174806D02*
X0148133Y0174806D01*
X0148133Y0175805D02*
X0145633Y0175805D01*
X0145633Y0176803D02*
X0148452Y0176803D01*
X0148866Y0177802D02*
X0145633Y0177802D01*
X0145633Y0178801D02*
X0149780Y0178801D01*
X0151331Y0179799D02*
X0145633Y0179799D01*
X0145633Y0171811D02*
X0149168Y0171811D01*
X0150167Y0170812D02*
X0145633Y0170812D01*
X0145633Y0169814D02*
X0152265Y0169814D01*
X0152221Y0169633D02*
X0151510Y0169402D01*
X0150844Y0169063D01*
X0150239Y0168623D01*
X0149710Y0168094D01*
X0149271Y0167490D01*
X0148931Y0166823D01*
X0148700Y0166112D01*
X0148583Y0165374D01*
X0148583Y0165189D01*
X0153144Y0165189D01*
X0153144Y0169750D01*
X0152959Y0169750D01*
X0152221Y0169633D01*
X0153144Y0168815D02*
X0153522Y0168815D01*
X0153522Y0169750D02*
X0153522Y0165189D01*
X0158083Y0165189D01*
X0158083Y0165374D01*
X0157966Y0166112D01*
X0157735Y0166823D01*
X0157396Y0167490D01*
X0156956Y0168094D01*
X0156428Y0168623D01*
X0155823Y0169063D01*
X0155157Y0169402D01*
X0154446Y0169633D01*
X0153707Y0169750D01*
X0153522Y0169750D01*
X0154401Y0169814D02*
X0164895Y0169814D01*
X0165893Y0170812D02*
X0156500Y0170812D01*
X0157498Y0171811D02*
X0166892Y0171811D01*
X0160431Y0168815D02*
X0156163Y0168815D01*
X0157158Y0167817D02*
X0159433Y0167817D01*
X0158945Y0166818D02*
X0157737Y0166818D01*
X0158013Y0165820D02*
X0158583Y0165820D01*
X0158583Y0164821D02*
X0153522Y0164821D01*
X0153144Y0164821D02*
X0145633Y0164821D01*
X0145633Y0165820D02*
X0148654Y0165820D01*
X0148930Y0166818D02*
X0145633Y0166818D01*
X0145633Y0167817D02*
X0149509Y0167817D01*
X0150504Y0168815D02*
X0145633Y0168815D01*
X0145409Y0163823D02*
X0148721Y0163823D01*
X0149111Y0162824D02*
X0144410Y0162824D01*
X0153144Y0165820D02*
X0153522Y0165820D01*
X0153522Y0166818D02*
X0153144Y0166818D01*
X0153144Y0167817D02*
X0153522Y0167817D01*
X0157945Y0163823D02*
X0158680Y0163823D01*
X0157905Y0162824D02*
X0157556Y0162824D01*
X0164455Y0152839D02*
X0139425Y0152839D01*
X0138427Y0151841D02*
X0163954Y0151841D01*
X0163583Y0150842D02*
X0137428Y0150842D01*
X0136430Y0149844D02*
X0163583Y0149844D01*
X0163360Y0148845D02*
X0135633Y0148845D01*
X0135633Y0147847D02*
X0145599Y0147847D01*
X0144652Y0146848D02*
X0135633Y0146848D01*
X0135633Y0145850D02*
X0144238Y0145850D01*
X0144033Y0144851D02*
X0135633Y0144851D01*
X0135633Y0143853D02*
X0144033Y0143853D01*
X0144361Y0142854D02*
X0135633Y0142854D01*
X0135633Y0141856D02*
X0144897Y0141856D01*
X0145895Y0140857D02*
X0135633Y0140857D01*
X0135633Y0139859D02*
X0168144Y0139859D01*
X0168522Y0139859D02*
X0174656Y0139859D01*
X0173658Y0140857D02*
X0173007Y0140857D01*
X0172957Y0138860D02*
X0175655Y0138860D01*
X0176653Y0137862D02*
X0172575Y0137862D01*
X0171914Y0136863D02*
X0187589Y0136863D01*
X0189281Y0135865D02*
X0170680Y0135865D01*
X0170157Y0134402D02*
X0169446Y0134633D01*
X0168707Y0134750D01*
X0168522Y0134750D01*
X0168522Y0130189D01*
X0168144Y0130189D01*
X0168144Y0129811D01*
X0168522Y0129811D01*
X0168522Y0130189D01*
X0173083Y0130189D01*
X0173083Y0130374D01*
X0172966Y0131112D01*
X0172735Y0131823D01*
X0172396Y0132490D01*
X0171956Y0133094D01*
X0171428Y0133623D01*
X0170823Y0134063D01*
X0170157Y0134402D01*
X0171091Y0133868D02*
X0188634Y0133868D01*
X0187321Y0132869D02*
X0172120Y0132869D01*
X0172711Y0131870D02*
X0176385Y0131870D01*
X0175387Y0130872D02*
X0173004Y0130872D01*
X0174388Y0129873D02*
X0168522Y0129873D01*
X0168144Y0129873D02*
X0131459Y0129873D01*
X0130461Y0128875D02*
X0145627Y0128875D01*
X0144663Y0127876D02*
X0129462Y0127876D01*
X0132458Y0130872D02*
X0163662Y0130872D01*
X0163700Y0131112D02*
X0163583Y0130374D01*
X0163583Y0130189D01*
X0168144Y0130189D01*
X0168144Y0134750D01*
X0167959Y0134750D01*
X0167221Y0134633D01*
X0166510Y0134402D01*
X0165844Y0134063D01*
X0165239Y0133623D01*
X0164710Y0133094D01*
X0164271Y0132490D01*
X0163931Y0131823D01*
X0163700Y0131112D01*
X0163955Y0131870D02*
X0133456Y0131870D01*
X0134455Y0132869D02*
X0164546Y0132869D01*
X0165575Y0133868D02*
X0135454Y0133868D01*
X0135633Y0134866D02*
X0260639Y0134866D01*
X0261637Y0133868D02*
X0258033Y0133868D01*
X0259345Y0132869D02*
X0262636Y0132869D01*
X0263634Y0131870D02*
X0260013Y0131870D01*
X0260426Y0130872D02*
X0264633Y0130872D01*
X0265631Y0129873D02*
X0261288Y0129873D01*
X0262287Y0128875D02*
X0266333Y0128875D01*
X0266333Y0127876D02*
X0263285Y0127876D01*
X0264284Y0126878D02*
X0266333Y0126878D01*
X0266333Y0125879D02*
X0265282Y0125879D01*
X0265333Y0124881D02*
X0266333Y0124881D01*
X0266333Y0123882D02*
X0265333Y0123882D01*
X0265333Y0122884D02*
X0266333Y0122884D01*
X0266333Y0121885D02*
X0265333Y0121885D01*
X0265333Y0120887D02*
X0266333Y0120887D01*
X0266333Y0119888D02*
X0266273Y0119888D01*
X0268333Y0120000D02*
X0303333Y0085000D01*
X0318333Y0085000D01*
X0323333Y0080000D01*
X0328156Y0081945D02*
X0335534Y0081945D01*
X0335534Y0082943D02*
X0327743Y0082943D01*
X0326745Y0083942D02*
X0335534Y0083942D01*
X0335534Y0084940D02*
X0324994Y0084940D01*
X0326626Y0085939D02*
X0335534Y0085939D01*
X0335534Y0086937D02*
X0327625Y0086937D01*
X0328107Y0087936D02*
X0335534Y0087936D01*
X0335534Y0088934D02*
X0328520Y0088934D01*
X0328533Y0089933D02*
X0335534Y0089933D01*
X0335534Y0090932D02*
X0328533Y0090932D01*
X0328162Y0091930D02*
X0335534Y0091930D01*
X0335534Y0092929D02*
X0327749Y0092929D01*
X0326760Y0093927D02*
X0335534Y0093927D01*
X0335534Y0094926D02*
X0325030Y0094926D01*
X0326611Y0095924D02*
X0335534Y0095924D01*
X0335534Y0096923D02*
X0327610Y0096923D01*
X0328101Y0097921D02*
X0335534Y0097921D01*
X0335534Y0098920D02*
X0328514Y0098920D01*
X0328533Y0099918D02*
X0335534Y0099918D01*
X0335534Y0100917D02*
X0328533Y0100917D01*
X0328168Y0101915D02*
X0335534Y0101915D01*
X0335534Y0102914D02*
X0327755Y0102914D01*
X0326775Y0103912D02*
X0335534Y0103912D01*
X0335534Y0104911D02*
X0325066Y0104911D01*
X0326596Y0105909D02*
X0335534Y0105909D01*
X0335534Y0106908D02*
X0327595Y0106908D01*
X0328094Y0107906D02*
X0335534Y0107906D01*
X0335534Y0108905D02*
X0328508Y0108905D01*
X0328533Y0109903D02*
X0335534Y0109903D01*
X0335534Y0110902D02*
X0328533Y0110902D01*
X0328175Y0111900D02*
X0335534Y0111900D01*
X0335534Y0112899D02*
X0327761Y0112899D01*
X0326790Y0113897D02*
X0335534Y0113897D01*
X0335534Y0114896D02*
X0325102Y0114896D01*
X0321565Y0114896D02*
X0315102Y0114896D01*
X0316790Y0113897D02*
X0319877Y0113897D01*
X0318906Y0112899D02*
X0317761Y0112899D01*
X0318175Y0111900D02*
X0318492Y0111900D01*
X0311565Y0114896D02*
X0293006Y0114896D01*
X0293964Y0113897D02*
X0309877Y0113897D01*
X0308906Y0112899D02*
X0294923Y0112899D01*
X0295881Y0111900D02*
X0308492Y0111900D01*
X0308133Y0110902D02*
X0296840Y0110902D01*
X0297799Y0109903D02*
X0308133Y0109903D01*
X0308159Y0108905D02*
X0298757Y0108905D01*
X0299716Y0107906D02*
X0308572Y0107906D01*
X0309072Y0106908D02*
X0300674Y0106908D01*
X0301633Y0105909D02*
X0310070Y0105909D01*
X0311601Y0104911D02*
X0302591Y0104911D01*
X0303550Y0103912D02*
X0309892Y0103912D01*
X0308912Y0102914D02*
X0304509Y0102914D01*
X0305467Y0101915D02*
X0308498Y0101915D01*
X0308133Y0100917D02*
X0306426Y0100917D01*
X0307384Y0099918D02*
X0308133Y0099918D01*
X0304715Y0096923D02*
X0301239Y0096923D01*
X0300241Y0097921D02*
X0303757Y0097921D01*
X0302798Y0098920D02*
X0299242Y0098920D01*
X0298244Y0099918D02*
X0301839Y0099918D01*
X0300881Y0100917D02*
X0297245Y0100917D01*
X0296247Y0101915D02*
X0299922Y0101915D01*
X0298964Y0102914D02*
X0295248Y0102914D01*
X0294250Y0103912D02*
X0298005Y0103912D01*
X0297047Y0104911D02*
X0293251Y0104911D01*
X0292253Y0105909D02*
X0296088Y0105909D01*
X0295130Y0106908D02*
X0291254Y0106908D01*
X0290256Y0107906D02*
X0294171Y0107906D01*
X0293212Y0108905D02*
X0289257Y0108905D01*
X0289211Y0109903D02*
X0292254Y0109903D01*
X0291295Y0110902D02*
X0289157Y0110902D01*
X0288744Y0111900D02*
X0290337Y0111900D01*
X0289378Y0112899D02*
X0287919Y0112899D01*
X0288420Y0113897D02*
X0277264Y0113897D01*
X0276266Y0114896D02*
X0287461Y0114896D01*
X0286502Y0115894D02*
X0275267Y0115894D01*
X0274269Y0116893D02*
X0282956Y0116893D01*
X0282009Y0117891D02*
X0273270Y0117891D01*
X0272272Y0118890D02*
X0281596Y0118890D01*
X0281455Y0119888D02*
X0271273Y0119888D01*
X0270333Y0120887D02*
X0281503Y0120887D01*
X0281917Y0121885D02*
X0270333Y0121885D01*
X0270333Y0122884D02*
X0282733Y0122884D01*
X0285333Y0120000D02*
X0309333Y0095000D01*
X0318333Y0095000D01*
X0323333Y0090000D01*
X0328533Y0080946D02*
X0335534Y0080946D01*
X0335534Y0079948D02*
X0328533Y0079948D01*
X0328527Y0078949D02*
X0335534Y0078949D01*
X0335534Y0077951D02*
X0328113Y0077951D01*
X0327640Y0076952D02*
X0335534Y0076952D01*
X0335534Y0075954D02*
X0326641Y0075954D01*
X0324910Y0074955D02*
X0335534Y0074955D01*
X0335534Y0073957D02*
X0326730Y0073957D01*
X0327612Y0072958D02*
X0335534Y0072958D01*
X0335534Y0071960D02*
X0328164Y0071960D01*
X0328446Y0070961D02*
X0335534Y0070961D01*
X0335534Y0069963D02*
X0323833Y0069963D01*
X0323833Y0068964D02*
X0322833Y0068964D01*
X0322833Y0067966D02*
X0323833Y0067966D01*
X0323833Y0066967D02*
X0322833Y0066967D01*
X0322833Y0065969D02*
X0323833Y0065969D01*
X0323833Y0064970D02*
X0322833Y0064970D01*
X0321986Y0064970D02*
X0314779Y0064970D01*
X0316656Y0065969D02*
X0320035Y0065969D01*
X0319109Y0066967D02*
X0317654Y0066967D01*
X0318119Y0067966D02*
X0318534Y0067966D01*
X0324681Y0064970D02*
X0335534Y0064970D01*
X0335534Y0065969D02*
X0326632Y0065969D01*
X0327557Y0066967D02*
X0335534Y0066967D01*
X0335534Y0067966D02*
X0328133Y0067966D01*
X0328434Y0068964D02*
X0335534Y0068964D01*
X0311708Y0074955D02*
X0191631Y0074955D01*
X0191646Y0084940D02*
X0270564Y0084940D01*
X0271563Y0083942D02*
X0257853Y0083942D01*
X0259271Y0082943D02*
X0272561Y0082943D01*
X0273560Y0081945D02*
X0259982Y0081945D01*
X0260396Y0080946D02*
X0274558Y0080946D01*
X0275557Y0079948D02*
X0260433Y0079948D01*
X0260352Y0078949D02*
X0276556Y0078949D01*
X0278333Y0080000D02*
X0268333Y0090000D01*
X0253333Y0090000D01*
X0257566Y0085939D02*
X0269566Y0085939D01*
X0268567Y0086937D02*
X0259152Y0086937D01*
X0259933Y0087936D02*
X0267569Y0087936D01*
X0270230Y0090932D02*
X0280573Y0090932D01*
X0281522Y0089933D02*
X0271229Y0089933D01*
X0272227Y0088934D02*
X0281455Y0088934D01*
X0281577Y0087936D02*
X0273226Y0087936D01*
X0274224Y0086937D02*
X0281990Y0086937D01*
X0282910Y0085939D02*
X0275223Y0085939D01*
X0276221Y0084940D02*
X0295564Y0084940D01*
X0296563Y0083942D02*
X0277220Y0083942D01*
X0278218Y0082943D02*
X0282793Y0082943D01*
X0285333Y0080000D02*
X0278333Y0080000D01*
X0281985Y0077951D02*
X0259939Y0077951D01*
X0259167Y0076952D02*
X0282897Y0076952D01*
X0287770Y0076952D02*
X0309027Y0076952D01*
X0308554Y0077951D02*
X0288682Y0077951D01*
X0289096Y0078949D02*
X0301556Y0078949D01*
X0300557Y0079948D02*
X0289211Y0079948D01*
X0289139Y0080946D02*
X0299558Y0080946D01*
X0298560Y0081945D02*
X0288725Y0081945D01*
X0287874Y0082943D02*
X0297561Y0082943D01*
X0294566Y0085939D02*
X0287757Y0085939D01*
X0288676Y0086937D02*
X0293567Y0086937D01*
X0292569Y0087936D02*
X0289090Y0087936D01*
X0289211Y0088934D02*
X0291570Y0088934D01*
X0290572Y0089933D02*
X0289144Y0089933D01*
X0288731Y0090932D02*
X0289573Y0090932D01*
X0288575Y0091930D02*
X0287888Y0091930D01*
X0287576Y0092929D02*
X0284233Y0092929D01*
X0283235Y0093927D02*
X0286578Y0093927D01*
X0285579Y0094926D02*
X0282236Y0094926D01*
X0281238Y0095924D02*
X0284581Y0095924D01*
X0283582Y0096923D02*
X0280239Y0096923D01*
X0279241Y0097921D02*
X0282584Y0097921D01*
X0281585Y0098920D02*
X0278242Y0098920D01*
X0277244Y0099918D02*
X0280587Y0099918D01*
X0279588Y0100917D02*
X0276245Y0100917D01*
X0275247Y0101915D02*
X0278590Y0101915D01*
X0277591Y0102914D02*
X0259301Y0102914D01*
X0257925Y0103912D02*
X0276593Y0103912D01*
X0275594Y0104911D02*
X0181497Y0104911D01*
X0182495Y0105909D02*
X0189173Y0105909D01*
X0187545Y0106908D02*
X0183494Y0106908D01*
X0180498Y0103912D02*
X0188742Y0103912D01*
X0187366Y0102914D02*
X0179500Y0102914D01*
X0177987Y0107906D02*
X0174492Y0107906D01*
X0175491Y0108905D02*
X0178985Y0108905D01*
X0179984Y0109903D02*
X0176489Y0109903D01*
X0177488Y0110902D02*
X0180982Y0110902D01*
X0181981Y0111900D02*
X0178486Y0111900D01*
X0179485Y0112899D02*
X0187351Y0112899D01*
X0188706Y0113897D02*
X0180483Y0113897D01*
X0181482Y0114896D02*
X0265609Y0114896D01*
X0264611Y0115894D02*
X0257458Y0115894D01*
X0259107Y0116893D02*
X0263612Y0116893D01*
X0262614Y0117891D02*
X0259914Y0117891D01*
X0260328Y0118890D02*
X0261615Y0118890D01*
X0261333Y0119888D02*
X0260433Y0119888D01*
X0260420Y0120887D02*
X0261333Y0120887D01*
X0261333Y0121885D02*
X0260007Y0121885D01*
X0259331Y0122884D02*
X0261333Y0122884D01*
X0261333Y0123882D02*
X0257997Y0123882D01*
X0257422Y0125879D02*
X0259625Y0125879D01*
X0260624Y0124881D02*
X0177033Y0124881D01*
X0178031Y0125879D02*
X0189245Y0125879D01*
X0187574Y0126878D02*
X0179030Y0126878D01*
X0176034Y0123882D02*
X0188670Y0123882D01*
X0187336Y0122884D02*
X0175036Y0122884D01*
X0174037Y0121885D02*
X0181966Y0121885D01*
X0180968Y0120887D02*
X0173083Y0120887D01*
X0173083Y0119888D02*
X0179969Y0119888D01*
X0178970Y0118890D02*
X0173015Y0118890D01*
X0172601Y0117891D02*
X0177972Y0117891D01*
X0176973Y0116893D02*
X0171944Y0116893D01*
X0170834Y0115894D02*
X0175975Y0115894D01*
X0174976Y0114896D02*
X0134690Y0114896D01*
X0133692Y0115894D02*
X0165833Y0115894D01*
X0164723Y0116893D02*
X0132693Y0116893D01*
X0132633Y0116953D02*
X0132633Y0116953D01*
X0131695Y0117891D02*
X0164065Y0117891D01*
X0163652Y0118890D02*
X0084833Y0118890D01*
X0084833Y0119888D02*
X0163583Y0119888D01*
X0163583Y0120887D02*
X0084833Y0120887D01*
X0084833Y0121885D02*
X0145867Y0121885D01*
X0144868Y0122884D02*
X0084833Y0122884D01*
X0084833Y0123882D02*
X0144349Y0123882D01*
X0144033Y0124881D02*
X0084833Y0124881D01*
X0084833Y0125879D02*
X0144033Y0125879D01*
X0144250Y0126878D02*
X0084833Y0126878D01*
X0084833Y0127876D02*
X0117204Y0127876D01*
X0116206Y0128875D02*
X0084833Y0128875D01*
X0084833Y0129873D02*
X0115207Y0129873D01*
X0114209Y0130872D02*
X0084833Y0130872D01*
X0084833Y0131870D02*
X0113210Y0131870D01*
X0112212Y0132869D02*
X0084833Y0132869D01*
X0084833Y0133868D02*
X0111213Y0133868D01*
X0110215Y0134866D02*
X0109527Y0134866D01*
X0116438Y0135148D02*
X0119286Y0132300D01*
X0127381Y0132300D01*
X0131033Y0135953D01*
X0131033Y0149447D01*
X0130933Y0149347D01*
X0130933Y0148966D01*
X0130142Y0147054D01*
X0128679Y0145592D01*
X0127216Y0144986D01*
X0127729Y0144819D01*
X0128459Y0144447D01*
X0129121Y0143966D01*
X0129700Y0143388D01*
X0130181Y0142725D01*
X0130552Y0141996D01*
X0130805Y0141218D01*
X0130919Y0140500D01*
X0118833Y0140500D01*
X0118833Y0139500D01*
X0118833Y0134800D01*
X0126143Y0134800D01*
X0126951Y0134928D01*
X0127729Y0135181D01*
X0128459Y0135553D01*
X0129121Y0136034D01*
X0129700Y0136612D01*
X0130181Y0137275D01*
X0130552Y0138004D01*
X0130805Y0138782D01*
X0130919Y0139500D01*
X0118833Y0139500D01*
X0117833Y0139500D01*
X0117833Y0134814D01*
X0117116Y0134928D01*
X0116438Y0135148D01*
X0116720Y0134866D02*
X0117507Y0134866D01*
X0117833Y0134866D02*
X0118833Y0134866D01*
X0118833Y0135865D02*
X0117833Y0135865D01*
X0117833Y0136863D02*
X0118833Y0136863D01*
X0118833Y0137862D02*
X0117833Y0137862D01*
X0117833Y0138860D02*
X0118833Y0138860D01*
X0118833Y0139859D02*
X0131033Y0139859D01*
X0131033Y0140857D02*
X0130862Y0140857D01*
X0131033Y0141856D02*
X0130598Y0141856D01*
X0131033Y0142854D02*
X0130087Y0142854D01*
X0129235Y0143853D02*
X0131033Y0143853D01*
X0131033Y0144851D02*
X0127631Y0144851D01*
X0128937Y0145850D02*
X0131033Y0145850D01*
X0131033Y0146848D02*
X0129935Y0146848D01*
X0130470Y0147847D02*
X0131033Y0147847D01*
X0131033Y0148845D02*
X0130883Y0148845D01*
X0130818Y0138860D02*
X0131033Y0138860D01*
X0131033Y0137862D02*
X0130480Y0137862D01*
X0131033Y0136863D02*
X0129882Y0136863D01*
X0128888Y0135865D02*
X0130945Y0135865D01*
X0129947Y0134866D02*
X0126559Y0134866D01*
X0127950Y0132869D02*
X0118717Y0132869D01*
X0117718Y0133868D02*
X0128948Y0133868D01*
X0135633Y0135865D02*
X0165987Y0135865D01*
X0164753Y0136863D02*
X0135633Y0136863D01*
X0135633Y0137862D02*
X0164092Y0137862D01*
X0163709Y0138860D02*
X0135633Y0138860D01*
X0150772Y0140857D02*
X0163660Y0140857D01*
X0163505Y0141856D02*
X0163948Y0141856D01*
X0168144Y0141856D02*
X0168522Y0141856D01*
X0168522Y0142854D02*
X0168144Y0142854D01*
X0168144Y0143853D02*
X0168522Y0143853D01*
X0169664Y0144851D02*
X0167003Y0144851D01*
X0168144Y0140857D02*
X0168522Y0140857D01*
X0168522Y0138860D02*
X0168144Y0138860D01*
X0168144Y0137862D02*
X0168522Y0137862D01*
X0168522Y0136863D02*
X0168144Y0136863D01*
X0168144Y0135865D02*
X0168522Y0135865D01*
X0168522Y0133868D02*
X0168144Y0133868D01*
X0168144Y0132869D02*
X0168522Y0132869D01*
X0168522Y0131870D02*
X0168144Y0131870D01*
X0168144Y0130872D02*
X0168522Y0130872D01*
X0168522Y0128875D02*
X0168144Y0128875D01*
X0168144Y0127876D02*
X0168522Y0127876D01*
X0168522Y0126878D02*
X0168144Y0126878D01*
X0168144Y0125879D02*
X0168522Y0125879D01*
X0169396Y0124881D02*
X0167271Y0124881D01*
X0163704Y0128875D02*
X0151039Y0128875D01*
X0150800Y0121885D02*
X0162630Y0121885D01*
X0172962Y0128875D02*
X0173390Y0128875D01*
X0183479Y0116893D02*
X0187559Y0116893D01*
X0189209Y0115894D02*
X0182480Y0115894D01*
X0173978Y0113897D02*
X0135689Y0113897D01*
X0136687Y0112899D02*
X0172979Y0112899D01*
X0191660Y0094926D02*
X0276579Y0094926D01*
X0275581Y0095924D02*
X0257530Y0095924D01*
X0259137Y0096923D02*
X0274582Y0096923D01*
X0273584Y0097921D02*
X0259926Y0097921D01*
X0257889Y0093927D02*
X0277578Y0093927D01*
X0278576Y0092929D02*
X0259286Y0092929D01*
X0253333Y0100000D02*
X0274333Y0100000D01*
X0285333Y0089000D01*
X0279575Y0091930D02*
X0269232Y0091930D01*
X0274596Y0105909D02*
X0257494Y0105909D01*
X0259122Y0106908D02*
X0273597Y0106908D01*
X0272599Y0107906D02*
X0259920Y0107906D01*
X0260334Y0108905D02*
X0271600Y0108905D01*
X0270602Y0109903D02*
X0260433Y0109903D01*
X0260414Y0110902D02*
X0269603Y0110902D01*
X0268605Y0111900D02*
X0260000Y0111900D01*
X0259316Y0112899D02*
X0267606Y0112899D01*
X0266608Y0113897D02*
X0257961Y0113897D01*
X0263333Y0120000D02*
X0303333Y0080000D01*
X0313333Y0080000D01*
X0310026Y0075954D02*
X0257601Y0075954D01*
X0257817Y0073957D02*
X0309936Y0073957D01*
X0308938Y0072958D02*
X0259256Y0072958D01*
X0259976Y0071960D02*
X0308517Y0071960D01*
X0308133Y0070961D02*
X0260389Y0070961D01*
X0260433Y0069963D02*
X0308133Y0069963D01*
X0308134Y0068964D02*
X0260359Y0068964D01*
X0259945Y0067966D02*
X0308547Y0067966D01*
X0309012Y0066967D02*
X0259182Y0066967D01*
X0246283Y0060976D02*
X0200383Y0060976D01*
X0200433Y0059978D02*
X0246233Y0059978D01*
X0246302Y0058979D02*
X0200365Y0058979D01*
X0199951Y0057981D02*
X0246715Y0057981D01*
X0247470Y0056982D02*
X0199197Y0056982D01*
X0197673Y0055984D02*
X0248993Y0055984D01*
X0242874Y0061975D02*
X0233792Y0061975D01*
X0233530Y0061712D02*
X0234621Y0062803D01*
X0235211Y0064229D01*
X0235211Y0065771D01*
X0234621Y0067197D01*
X0233530Y0068288D01*
X0232105Y0068878D01*
X0230562Y0068878D01*
X0229137Y0068288D01*
X0228149Y0067300D01*
X0218518Y0067300D01*
X0217530Y0068288D01*
X0216105Y0068878D01*
X0214562Y0068878D01*
X0213137Y0068288D01*
X0212046Y0067197D01*
X0211455Y0065771D01*
X0211455Y0064229D01*
X0212046Y0062803D01*
X0213137Y0061712D01*
X0214562Y0061122D01*
X0216105Y0061122D01*
X0217530Y0061712D01*
X0218518Y0062700D01*
X0228149Y0062700D01*
X0229137Y0061712D01*
X0230562Y0061122D01*
X0232105Y0061122D01*
X0233530Y0061712D01*
X0234691Y0062973D02*
X0241975Y0062973D01*
X0241562Y0063972D02*
X0235105Y0063972D01*
X0235211Y0064970D02*
X0241455Y0064970D01*
X0241537Y0065969D02*
X0235130Y0065969D01*
X0234716Y0066967D02*
X0241951Y0066967D01*
X0242815Y0067966D02*
X0233852Y0067966D01*
X0228815Y0067966D02*
X0217852Y0067966D01*
X0212815Y0067966D02*
X0203852Y0067966D01*
X0204716Y0066967D02*
X0211951Y0066967D01*
X0211537Y0065969D02*
X0205130Y0065969D01*
X0205211Y0064970D02*
X0211455Y0064970D01*
X0211562Y0063972D02*
X0205105Y0063972D01*
X0204691Y0062973D02*
X0211975Y0062973D01*
X0212874Y0061975D02*
X0203792Y0061975D01*
X0217792Y0061975D02*
X0228874Y0061975D01*
X0188993Y0055984D02*
X0084833Y0055984D01*
X0084833Y0056982D02*
X0187470Y0056982D01*
X0182100Y0057981D02*
X0084833Y0057981D01*
X0084833Y0058979D02*
X0181101Y0058979D01*
X0180103Y0059978D02*
X0084833Y0059978D01*
X0084833Y0060976D02*
X0179104Y0060976D01*
X0178106Y0061975D02*
X0084833Y0061975D01*
X0084833Y0062973D02*
X0177107Y0062973D01*
X0176109Y0063972D02*
X0084833Y0063972D01*
X0084833Y0064970D02*
X0101888Y0064970D01*
X0100011Y0065969D02*
X0084833Y0065969D01*
X0084833Y0066967D02*
X0099012Y0066967D01*
X0098547Y0067966D02*
X0084833Y0067966D01*
X0084833Y0068964D02*
X0098134Y0068964D01*
X0098133Y0069963D02*
X0084833Y0069963D01*
X0084833Y0070961D02*
X0098133Y0070961D01*
X0098517Y0071960D02*
X0084833Y0071960D01*
X0084833Y0072958D02*
X0098938Y0072958D01*
X0099936Y0073957D02*
X0084833Y0073957D01*
X0084833Y0074955D02*
X0101708Y0074955D01*
X0100026Y0075954D02*
X0084833Y0075954D01*
X0084833Y0076952D02*
X0099027Y0076952D01*
X0098554Y0077951D02*
X0084833Y0077951D01*
X0084833Y0078949D02*
X0098140Y0078949D01*
X0098133Y0079948D02*
X0084833Y0079948D01*
X0084833Y0080946D02*
X0098133Y0080946D01*
X0098511Y0081945D02*
X0084833Y0081945D01*
X0084833Y0082943D02*
X0098924Y0082943D01*
X0099921Y0083942D02*
X0084833Y0083942D01*
X0084833Y0084940D02*
X0101672Y0084940D01*
X0100040Y0085939D02*
X0084833Y0085939D01*
X0084833Y0086937D02*
X0099042Y0086937D01*
X0098560Y0087936D02*
X0084833Y0087936D01*
X0084833Y0088934D02*
X0098146Y0088934D01*
X0098133Y0089933D02*
X0084833Y0089933D01*
X0084833Y0090932D02*
X0098133Y0090932D01*
X0098504Y0091930D02*
X0084833Y0091930D01*
X0084833Y0092929D02*
X0098918Y0092929D01*
X0099906Y0093927D02*
X0084833Y0093927D01*
X0084833Y0094926D02*
X0101636Y0094926D01*
X0100055Y0095924D02*
X0084833Y0095924D01*
X0084833Y0096923D02*
X0099057Y0096923D01*
X0098566Y0097921D02*
X0084833Y0097921D01*
X0084833Y0098920D02*
X0098152Y0098920D01*
X0098133Y0099918D02*
X0084833Y0099918D01*
X0084833Y0100917D02*
X0098133Y0100917D01*
X0098498Y0101915D02*
X0084833Y0101915D01*
X0084833Y0102914D02*
X0098912Y0102914D01*
X0099892Y0103912D02*
X0084833Y0103912D01*
X0084833Y0104911D02*
X0101601Y0104911D01*
X0100070Y0105909D02*
X0084833Y0105909D01*
X0084833Y0106908D02*
X0099072Y0106908D01*
X0098572Y0107906D02*
X0084833Y0107906D01*
X0084833Y0108905D02*
X0098159Y0108905D01*
X0098133Y0109903D02*
X0084833Y0109903D01*
X0084833Y0110902D02*
X0098133Y0110902D01*
X0098492Y0111900D02*
X0084833Y0111900D01*
X0084833Y0112899D02*
X0098906Y0112899D01*
X0099877Y0113897D02*
X0084833Y0113897D01*
X0084833Y0114896D02*
X0101565Y0114896D01*
X0104975Y0115894D02*
X0084833Y0115894D01*
X0084833Y0116893D02*
X0105973Y0116893D01*
X0106972Y0117891D02*
X0084833Y0117891D01*
X0084833Y0134866D02*
X0099740Y0134866D01*
X0097715Y0135865D02*
X0084833Y0135865D01*
X0084833Y0136863D02*
X0096716Y0136863D01*
X0096191Y0137862D02*
X0084833Y0137862D01*
X0084833Y0138860D02*
X0095777Y0138860D01*
X0095733Y0139859D02*
X0084833Y0139859D01*
X0084833Y0140857D02*
X0095733Y0140857D01*
X0096074Y0141856D02*
X0084833Y0141856D01*
X0084833Y0142854D02*
X0096487Y0142854D01*
X0097432Y0143853D02*
X0084833Y0143853D01*
X0084833Y0144851D02*
X0099057Y0144851D01*
X0097730Y0145850D02*
X0084833Y0145850D01*
X0084833Y0146848D02*
X0096731Y0146848D01*
X0096197Y0147847D02*
X0084833Y0147847D01*
X0084833Y0148845D02*
X0095783Y0148845D01*
X0095237Y0149844D02*
X0084833Y0149844D01*
X0084833Y0150842D02*
X0094238Y0150842D01*
X0093240Y0151841D02*
X0084833Y0151841D01*
X0084833Y0152839D02*
X0092241Y0152839D01*
X0091243Y0153838D02*
X0084833Y0153838D01*
X0084833Y0154836D02*
X0091033Y0154836D01*
X0091033Y0155835D02*
X0084833Y0155835D01*
X0084833Y0156833D02*
X0091033Y0156833D01*
X0091033Y0157832D02*
X0084833Y0157832D01*
X0084833Y0158830D02*
X0091033Y0158830D01*
X0091033Y0159829D02*
X0084833Y0159829D01*
X0084833Y0160827D02*
X0091033Y0160827D01*
X0091033Y0161826D02*
X0084833Y0161826D01*
X0084833Y0162824D02*
X0091033Y0162824D01*
X0091033Y0163823D02*
X0084833Y0163823D01*
X0084833Y0164821D02*
X0091033Y0164821D01*
X0091033Y0165820D02*
X0084833Y0165820D01*
X0084833Y0166818D02*
X0091899Y0166818D01*
X0092898Y0167817D02*
X0084833Y0167817D01*
X0084833Y0168815D02*
X0093896Y0168815D01*
X0094895Y0169814D02*
X0084833Y0169814D01*
X0084833Y0170812D02*
X0095893Y0170812D01*
X0096892Y0171811D02*
X0084833Y0171811D01*
X0117761Y0112899D02*
X0130182Y0112899D01*
X0129686Y0111900D02*
X0131180Y0111900D01*
X0130684Y0110902D02*
X0132179Y0110902D01*
X0131683Y0109903D02*
X0133177Y0109903D01*
X0132681Y0108905D02*
X0134176Y0108905D01*
X0134033Y0109047D02*
X0134033Y0109047D01*
X0133680Y0107906D02*
X0135174Y0107906D01*
X0131168Y0103912D02*
X0127674Y0103912D01*
X0128672Y0102914D02*
X0132167Y0102914D01*
X0130170Y0104911D02*
X0126675Y0104911D01*
X0125677Y0105909D02*
X0129171Y0105909D01*
X0128173Y0106908D02*
X0124678Y0106908D01*
X0118333Y0105000D02*
X0108333Y0105000D01*
X0103333Y0100000D01*
X0108333Y0095000D02*
X0118333Y0095000D01*
X0108333Y0095000D02*
X0103333Y0090000D01*
X0103333Y0080000D02*
X0108333Y0075000D01*
X0118333Y0075000D01*
X0118164Y0071960D02*
X0168121Y0071960D01*
X0169119Y0070961D02*
X0118446Y0070961D01*
X0118434Y0068964D02*
X0171116Y0068964D01*
X0170118Y0069963D02*
X0113833Y0069963D01*
X0113833Y0068964D02*
X0112833Y0068964D01*
X0112833Y0067966D02*
X0113833Y0067966D01*
X0113833Y0066967D02*
X0112833Y0066967D01*
X0112833Y0065969D02*
X0113833Y0065969D01*
X0113833Y0064970D02*
X0112833Y0064970D01*
X0111986Y0064970D02*
X0104779Y0064970D01*
X0106656Y0065969D02*
X0110035Y0065969D01*
X0109109Y0066967D02*
X0107654Y0066967D01*
X0108119Y0067966D02*
X0108534Y0067966D01*
X0114681Y0064970D02*
X0175110Y0064970D01*
X0174112Y0065969D02*
X0116632Y0065969D01*
X0117557Y0066967D02*
X0173113Y0066967D01*
X0172115Y0067966D02*
X0118133Y0067966D01*
X0151068Y0147847D02*
X0162362Y0147847D01*
X0193033Y0153838D02*
X0193633Y0153838D01*
X0253333Y0140000D02*
X0258333Y0140000D01*
X0268333Y0130000D01*
X0268333Y0120000D01*
X0270333Y0123882D02*
X0335534Y0123882D01*
X0335534Y0122884D02*
X0287934Y0122884D01*
X0288750Y0121885D02*
X0335534Y0121885D01*
X0335534Y0120887D02*
X0289163Y0120887D01*
X0289211Y0119888D02*
X0335534Y0119888D01*
X0335534Y0118890D02*
X0289171Y0118890D01*
X0290130Y0117891D02*
X0335534Y0117891D01*
X0335534Y0116893D02*
X0291089Y0116893D01*
X0292047Y0115894D02*
X0335534Y0115894D01*
X0335534Y0124881D02*
X0270333Y0124881D01*
X0270333Y0125879D02*
X0335534Y0125879D01*
X0335534Y0126878D02*
X0270333Y0126878D01*
X0270333Y0127876D02*
X0335534Y0127876D01*
X0335534Y0128875D02*
X0270333Y0128875D01*
X0270333Y0129873D02*
X0335534Y0129873D01*
X0335534Y0130872D02*
X0270290Y0130872D01*
X0269291Y0131870D02*
X0335534Y0131870D01*
X0335534Y0132869D02*
X0268293Y0132869D01*
X0267294Y0133868D02*
X0335534Y0133868D01*
X0335534Y0134866D02*
X0266296Y0134866D01*
X0265297Y0135865D02*
X0335534Y0135865D01*
X0335534Y0136863D02*
X0264299Y0136863D01*
X0263300Y0137862D02*
X0335534Y0137862D01*
X0335534Y0138860D02*
X0262302Y0138860D01*
X0261303Y0139859D02*
X0335534Y0139859D01*
X0335534Y0140857D02*
X0260433Y0140857D01*
X0260019Y0141856D02*
X0335534Y0141856D01*
X0335534Y0142854D02*
X0259360Y0142854D01*
X0259640Y0135865D02*
X0257386Y0135865D01*
X0258333Y0130000D02*
X0253333Y0130000D01*
X0258333Y0130000D02*
X0263333Y0125000D01*
X0263333Y0120000D01*
X0278263Y0112899D02*
X0282748Y0112899D01*
X0281923Y0111900D02*
X0279261Y0111900D01*
X0280260Y0110902D02*
X0281509Y0110902D01*
X0281455Y0109903D02*
X0281259Y0109903D01*
X0285333Y0110000D02*
X0305333Y0090000D01*
X0313333Y0090000D01*
X0308918Y0092929D02*
X0305233Y0092929D01*
X0304235Y0093927D02*
X0307578Y0093927D01*
X0306632Y0094926D02*
X0303236Y0094926D01*
X0302238Y0095924D02*
X0305674Y0095924D01*
X0269335Y0215745D02*
X0257098Y0215745D01*
X0258958Y0216744D02*
X0268337Y0216744D01*
X0271847Y0219739D02*
X0275341Y0219739D01*
X0276340Y0218741D02*
X0272845Y0218741D01*
X0273844Y0217742D02*
X0277338Y0217742D01*
X0274343Y0220738D02*
X0270848Y0220738D01*
X0269849Y0221737D02*
X0273344Y0221737D01*
X0272346Y0222735D02*
X0259479Y0222735D01*
X0258356Y0223734D02*
X0271347Y0223734D01*
X0270349Y0224732D02*
X0191318Y0224732D01*
X0161027Y0267668D02*
X0153005Y0267668D01*
X0153005Y0268667D02*
X0159820Y0268667D01*
X0159130Y0269665D02*
X0153005Y0269665D01*
X0153005Y0270664D02*
X0158717Y0270664D01*
X0158633Y0271662D02*
X0153005Y0271662D01*
X0153005Y0272661D02*
X0158633Y0272661D01*
X0158633Y0273659D02*
X0153005Y0273659D01*
X0152218Y0274658D02*
X0158633Y0274658D01*
X0135635Y0301617D02*
X0121032Y0301617D01*
X0122000Y0302616D02*
X0134636Y0302616D01*
X0134033Y0303614D02*
X0122414Y0303614D01*
X0122633Y0304613D02*
X0134033Y0304613D01*
X0134033Y0305611D02*
X0122633Y0305611D01*
X0122321Y0306610D02*
X0134033Y0306610D01*
X0134861Y0307608D02*
X0121806Y0307608D01*
X0120807Y0308607D02*
X0135859Y0308607D01*
X0136552Y0330700D02*
X0140114Y0330700D01*
X0142633Y0333219D01*
X0142633Y0336781D01*
X0140114Y0339300D01*
X0136552Y0339300D01*
X0134033Y0336781D01*
X0134033Y0333219D01*
X0136552Y0330700D01*
X0135679Y0331573D02*
X0120987Y0331573D01*
X0120114Y0330700D02*
X0122633Y0333219D01*
X0122633Y0336781D01*
X0121260Y0338155D01*
X0123937Y0340832D01*
X0125459Y0344507D01*
X0125459Y0348485D01*
X0123937Y0352161D01*
X0121124Y0354974D01*
X0117448Y0356496D01*
X0113470Y0356496D01*
X0109795Y0354974D01*
X0106982Y0352161D01*
X0105459Y0348485D01*
X0105459Y0344507D01*
X0106982Y0340832D01*
X0109795Y0338018D01*
X0113470Y0336496D01*
X0114033Y0336496D01*
X0114033Y0333219D01*
X0116552Y0330700D01*
X0120114Y0330700D01*
X0121986Y0332571D02*
X0134681Y0332571D01*
X0134033Y0333570D02*
X0122633Y0333570D01*
X0122633Y0334568D02*
X0134033Y0334568D01*
X0134033Y0335567D02*
X0122633Y0335567D01*
X0122633Y0336565D02*
X0134033Y0336565D01*
X0134816Y0337564D02*
X0121851Y0337564D01*
X0121668Y0338562D02*
X0135815Y0338562D01*
X0140852Y0338562D02*
X0213300Y0338562D01*
X0213133Y0338966D02*
X0213925Y0337054D01*
X0215388Y0335592D01*
X0217299Y0334800D01*
X0219368Y0334800D01*
X0221279Y0335592D01*
X0222742Y0337054D01*
X0223533Y0338966D01*
X0223533Y0341034D01*
X0222742Y0342946D01*
X0221279Y0344408D01*
X0219368Y0345200D01*
X0217299Y0345200D01*
X0215388Y0344408D01*
X0213925Y0342946D01*
X0213133Y0341034D01*
X0213133Y0338966D01*
X0213133Y0339561D02*
X0122666Y0339561D01*
X0123665Y0340559D02*
X0213133Y0340559D01*
X0213350Y0341558D02*
X0124238Y0341558D01*
X0124651Y0342556D02*
X0213764Y0342556D01*
X0214534Y0343555D02*
X0125065Y0343555D01*
X0125459Y0344553D02*
X0215738Y0344553D01*
X0220929Y0344553D02*
X0335534Y0344553D01*
X0335534Y0343555D02*
X0222132Y0343555D01*
X0222903Y0342556D02*
X0335534Y0342556D01*
X0335534Y0341558D02*
X0223316Y0341558D01*
X0223533Y0340559D02*
X0335534Y0340559D01*
X0335534Y0339561D02*
X0223533Y0339561D01*
X0223366Y0338562D02*
X0335534Y0338562D01*
X0335534Y0337564D02*
X0222953Y0337564D01*
X0222253Y0336565D02*
X0335534Y0336565D01*
X0335534Y0335567D02*
X0221219Y0335567D01*
X0215448Y0335567D02*
X0142633Y0335567D01*
X0142633Y0336565D02*
X0214414Y0336565D01*
X0213714Y0337564D02*
X0141851Y0337564D01*
X0142633Y0334568D02*
X0335534Y0334568D01*
X0335534Y0333570D02*
X0142633Y0333570D01*
X0141986Y0332571D02*
X0335534Y0332571D01*
X0335534Y0331573D02*
X0140987Y0331573D01*
X0125459Y0345552D02*
X0335534Y0345552D01*
X0335534Y0346550D02*
X0125459Y0346550D01*
X0125459Y0347549D02*
X0335534Y0347549D01*
X0335534Y0348547D02*
X0125434Y0348547D01*
X0125020Y0349546D02*
X0335534Y0349546D01*
X0335534Y0350544D02*
X0124606Y0350544D01*
X0124193Y0351543D02*
X0335534Y0351543D01*
X0335534Y0352541D02*
X0123556Y0352541D01*
X0122558Y0353540D02*
X0335534Y0353540D01*
X0335534Y0354539D02*
X0121559Y0354539D01*
X0121606Y0356522D02*
X0125281Y0355000D01*
X0129259Y0355000D01*
X0132935Y0356522D01*
X0135748Y0359335D01*
X0137270Y0363011D01*
X0137270Y0366989D01*
X0135748Y0370665D01*
X0132935Y0373478D01*
X0129259Y0375000D01*
X0125281Y0375000D01*
X0121606Y0373478D01*
X0118793Y0370665D01*
X0117270Y0366989D01*
X0117270Y0363011D01*
X0118793Y0359335D01*
X0121606Y0356522D01*
X0121593Y0356536D02*
X0109326Y0356536D01*
X0109313Y0356522D02*
X0112126Y0359335D01*
X0113648Y0363011D01*
X0113648Y0366989D01*
X0112126Y0370665D01*
X0109313Y0373478D01*
X0105637Y0375000D01*
X0101659Y0375000D01*
X0097984Y0373478D01*
X0095171Y0370665D01*
X0093648Y0366989D01*
X0093648Y0363011D01*
X0095171Y0359335D01*
X0097984Y0356522D01*
X0101659Y0355000D01*
X0105637Y0355000D01*
X0109313Y0356522D01*
X0110324Y0357534D02*
X0120594Y0357534D01*
X0119596Y0358533D02*
X0111323Y0358533D01*
X0112207Y0359531D02*
X0118712Y0359531D01*
X0118298Y0360530D02*
X0112620Y0360530D01*
X0113034Y0361528D02*
X0117885Y0361528D01*
X0117471Y0362527D02*
X0113448Y0362527D01*
X0113648Y0363525D02*
X0117270Y0363525D01*
X0117270Y0364524D02*
X0113648Y0364524D01*
X0113648Y0365522D02*
X0117270Y0365522D01*
X0117270Y0366521D02*
X0113648Y0366521D01*
X0113429Y0367519D02*
X0117490Y0367519D01*
X0117903Y0368518D02*
X0113015Y0368518D01*
X0112602Y0369516D02*
X0118317Y0369516D01*
X0118731Y0370515D02*
X0112188Y0370515D01*
X0111277Y0371513D02*
X0119641Y0371513D01*
X0120640Y0372512D02*
X0110279Y0372512D01*
X0109234Y0373510D02*
X0121685Y0373510D01*
X0124095Y0374509D02*
X0106823Y0374509D01*
X0100473Y0374509D02*
X0084833Y0374509D01*
X0084833Y0375507D02*
X0335534Y0375507D01*
X0335534Y0374509D02*
X0130445Y0374509D01*
X0132856Y0373510D02*
X0335534Y0373510D01*
X0335534Y0372512D02*
X0176103Y0372512D01*
X0174925Y0373000D02*
X0171742Y0373000D01*
X0168802Y0371782D01*
X0166551Y0369532D01*
X0165333Y0366591D01*
X0165333Y0363409D01*
X0166551Y0360468D01*
X0168802Y0358218D01*
X0171742Y0357000D01*
X0174925Y0357000D01*
X0177865Y0358218D01*
X0180115Y0360468D01*
X0181333Y0363409D01*
X0181333Y0366591D01*
X0180115Y0369532D01*
X0177865Y0371782D01*
X0174925Y0373000D01*
X0178134Y0371513D02*
X0335534Y0371513D01*
X0335534Y0370515D02*
X0179132Y0370515D01*
X0180122Y0369516D02*
X0335534Y0369516D01*
X0335534Y0368518D02*
X0225897Y0368518D01*
X0225114Y0369300D02*
X0223633Y0369300D01*
X0223633Y0365300D01*
X0223033Y0365300D01*
X0223033Y0364700D01*
X0219033Y0364700D01*
X0219033Y0363219D01*
X0221552Y0360700D01*
X0223033Y0360700D01*
X0223033Y0364700D01*
X0223633Y0364700D01*
X0223633Y0360700D01*
X0225114Y0360700D01*
X0227633Y0363219D01*
X0227633Y0364700D01*
X0223633Y0364700D01*
X0223633Y0365300D01*
X0227633Y0365300D01*
X0227633Y0366781D01*
X0225114Y0369300D01*
X0223633Y0368518D02*
X0223033Y0368518D01*
X0223033Y0369300D02*
X0221552Y0369300D01*
X0219033Y0366781D01*
X0219033Y0365300D01*
X0223033Y0365300D01*
X0223033Y0369300D01*
X0223033Y0367519D02*
X0223633Y0367519D01*
X0223633Y0366521D02*
X0223033Y0366521D01*
X0223033Y0365522D02*
X0223633Y0365522D01*
X0223633Y0364524D02*
X0223033Y0364524D01*
X0223033Y0363525D02*
X0223633Y0363525D01*
X0223633Y0362527D02*
X0223033Y0362527D01*
X0223033Y0361528D02*
X0223633Y0361528D01*
X0225943Y0361528D02*
X0335534Y0361528D01*
X0335534Y0360530D02*
X0180141Y0360530D01*
X0180554Y0361528D02*
X0210724Y0361528D01*
X0211552Y0360700D02*
X0215114Y0360700D01*
X0217633Y0363219D01*
X0217633Y0366781D01*
X0215114Y0369300D01*
X0211552Y0369300D01*
X0209033Y0366781D01*
X0209033Y0363219D01*
X0211552Y0360700D01*
X0209726Y0362527D02*
X0180968Y0362527D01*
X0181333Y0363525D02*
X0209033Y0363525D01*
X0209033Y0364524D02*
X0181333Y0364524D01*
X0181333Y0365522D02*
X0209033Y0365522D01*
X0209033Y0366521D02*
X0181333Y0366521D01*
X0180949Y0367519D02*
X0209771Y0367519D01*
X0210770Y0368518D02*
X0180535Y0368518D01*
X0179178Y0359531D02*
X0335534Y0359531D01*
X0335534Y0358533D02*
X0178180Y0358533D01*
X0176214Y0357534D02*
X0335534Y0357534D01*
X0335534Y0356536D02*
X0132948Y0356536D01*
X0133947Y0357534D02*
X0170453Y0357534D01*
X0168487Y0358533D02*
X0134945Y0358533D01*
X0135829Y0359531D02*
X0167489Y0359531D01*
X0166526Y0360530D02*
X0136243Y0360530D01*
X0136656Y0361528D02*
X0166112Y0361528D01*
X0165699Y0362527D02*
X0137070Y0362527D01*
X0137270Y0363525D02*
X0165333Y0363525D01*
X0165333Y0364524D02*
X0137270Y0364524D01*
X0137270Y0365522D02*
X0165333Y0365522D01*
X0165333Y0366521D02*
X0137270Y0366521D01*
X0137051Y0367519D02*
X0165718Y0367519D01*
X0166131Y0368518D02*
X0136637Y0368518D01*
X0136224Y0369516D02*
X0166545Y0369516D01*
X0167534Y0370515D02*
X0135810Y0370515D01*
X0134899Y0371513D02*
X0168533Y0371513D01*
X0170563Y0372512D02*
X0133901Y0372512D01*
X0130556Y0355537D02*
X0335534Y0355537D01*
X0335534Y0362527D02*
X0226941Y0362527D01*
X0227633Y0363525D02*
X0335534Y0363525D01*
X0335534Y0364524D02*
X0227633Y0364524D01*
X0227633Y0365522D02*
X0335534Y0365522D01*
X0335534Y0366521D02*
X0227633Y0366521D01*
X0226895Y0367519D02*
X0335534Y0367519D01*
X0335534Y0376506D02*
X0084833Y0376506D01*
X0084833Y0377504D02*
X0335534Y0377504D01*
X0335534Y0378503D02*
X0084833Y0378503D01*
X0084833Y0379501D02*
X0335534Y0379501D01*
X0335534Y0380500D02*
X0084833Y0380500D01*
X0084833Y0381498D02*
X0335534Y0381498D01*
X0335534Y0382497D02*
X0084833Y0382497D01*
X0084833Y0373510D02*
X0098063Y0373510D01*
X0097018Y0372512D02*
X0084833Y0372512D01*
X0084833Y0371513D02*
X0096019Y0371513D01*
X0095109Y0370515D02*
X0084833Y0370515D01*
X0084833Y0369516D02*
X0094695Y0369516D01*
X0094281Y0368518D02*
X0084833Y0368518D01*
X0084833Y0367519D02*
X0093868Y0367519D01*
X0093648Y0366521D02*
X0084833Y0366521D01*
X0084833Y0365522D02*
X0093648Y0365522D01*
X0093648Y0364524D02*
X0084833Y0364524D01*
X0084833Y0363525D02*
X0093648Y0363525D01*
X0093849Y0362527D02*
X0084833Y0362527D01*
X0084833Y0361528D02*
X0094262Y0361528D01*
X0094676Y0360530D02*
X0084833Y0360530D01*
X0084833Y0359531D02*
X0095090Y0359531D01*
X0095974Y0358533D02*
X0084833Y0358533D01*
X0084833Y0357534D02*
X0096972Y0357534D01*
X0097971Y0356536D02*
X0084833Y0356536D01*
X0084833Y0355537D02*
X0100363Y0355537D01*
X0106934Y0355537D02*
X0111155Y0355537D01*
X0109360Y0354539D02*
X0084833Y0354539D01*
X0084833Y0353540D02*
X0108361Y0353540D01*
X0107363Y0352541D02*
X0084833Y0352541D01*
X0084833Y0351543D02*
X0106726Y0351543D01*
X0106312Y0350544D02*
X0084833Y0350544D01*
X0084833Y0349546D02*
X0105899Y0349546D01*
X0105485Y0348547D02*
X0084833Y0348547D01*
X0084833Y0347549D02*
X0105459Y0347549D01*
X0105459Y0346550D02*
X0084833Y0346550D01*
X0084833Y0345552D02*
X0105459Y0345552D01*
X0105459Y0344553D02*
X0084833Y0344553D01*
X0084833Y0343555D02*
X0105854Y0343555D01*
X0106267Y0342556D02*
X0084833Y0342556D01*
X0084833Y0341558D02*
X0106681Y0341558D01*
X0107254Y0340559D02*
X0084833Y0340559D01*
X0084833Y0339561D02*
X0108252Y0339561D01*
X0109251Y0338562D02*
X0084833Y0338562D01*
X0084833Y0337564D02*
X0110892Y0337564D01*
X0113303Y0336565D02*
X0084833Y0336565D01*
X0084833Y0335567D02*
X0114033Y0335567D01*
X0114033Y0334568D02*
X0084833Y0334568D01*
X0084833Y0333570D02*
X0114033Y0333570D01*
X0114681Y0332571D02*
X0084833Y0332571D01*
X0084833Y0331573D02*
X0115679Y0331573D01*
X0119764Y0355537D02*
X0123985Y0355537D01*
X0215943Y0361528D02*
X0220724Y0361528D01*
X0219726Y0362527D02*
X0216941Y0362527D01*
X0217633Y0363525D02*
X0219033Y0363525D01*
X0219033Y0364524D02*
X0217633Y0364524D01*
X0217633Y0365522D02*
X0219033Y0365522D01*
X0219033Y0366521D02*
X0217633Y0366521D01*
X0216895Y0367519D02*
X0219771Y0367519D01*
X0220770Y0368518D02*
X0215897Y0368518D01*
X0220821Y0314598D02*
X0335534Y0314598D01*
X0335534Y0313600D02*
X0222088Y0313600D01*
X0222884Y0312601D02*
X0335534Y0312601D01*
X0335534Y0311603D02*
X0223298Y0311603D01*
X0223533Y0310604D02*
X0335534Y0310604D01*
X0335534Y0309605D02*
X0223533Y0309605D01*
X0223385Y0308607D02*
X0335534Y0308607D01*
X0335534Y0307608D02*
X0222971Y0307608D01*
X0222297Y0306610D02*
X0335534Y0306610D01*
X0335534Y0305611D02*
X0221299Y0305611D01*
X0269879Y0241707D02*
X0273374Y0241707D01*
X0274372Y0240708D02*
X0270878Y0240708D01*
X0271876Y0239710D02*
X0275371Y0239710D01*
X0276369Y0238711D02*
X0272875Y0238711D01*
X0273873Y0237713D02*
X0277368Y0237713D01*
X0278366Y0236714D02*
X0274872Y0236714D01*
X0275870Y0235716D02*
X0279365Y0235716D01*
X0280363Y0234717D02*
X0276869Y0234717D01*
X0277867Y0233719D02*
X0281362Y0233719D01*
X0282361Y0232720D02*
X0278866Y0232720D01*
X0279864Y0231722D02*
X0283359Y0231722D01*
X0284358Y0230723D02*
X0280863Y0230723D01*
X0281861Y0229725D02*
X0285356Y0229725D01*
X0286033Y0229047D02*
X0286033Y0229047D01*
X0286355Y0228726D02*
X0282860Y0228726D01*
X0283858Y0227728D02*
X0287353Y0227728D01*
X0282346Y0222735D02*
X0278851Y0222735D01*
X0277852Y0223734D02*
X0281347Y0223734D01*
X0280349Y0224732D02*
X0276854Y0224732D01*
X0275855Y0225731D02*
X0279350Y0225731D01*
X0278352Y0226729D02*
X0274857Y0226729D01*
X0273858Y0227728D02*
X0277353Y0227728D01*
X0276355Y0228726D02*
X0272860Y0228726D01*
X0271861Y0229725D02*
X0275356Y0229725D01*
X0274358Y0230723D02*
X0270863Y0230723D01*
X0269864Y0231722D02*
X0273359Y0231722D01*
X0272361Y0232720D02*
X0259494Y0232720D01*
X0258944Y0226729D02*
X0268352Y0226729D01*
X0269350Y0225731D02*
X0257062Y0225731D01*
D22*
X0228255Y0280000D02*
X0228333Y0280079D01*
X0228333Y0360000D01*
X0223333Y0365000D01*
X0253333Y0150000D02*
X0263333Y0150000D01*
X0193333Y0140000D02*
X0178333Y0140000D01*
X0168333Y0150000D01*
X0162833Y0144500D01*
X0148333Y0144500D01*
X0148333Y0125500D02*
X0162833Y0125500D01*
X0168333Y0120000D01*
X0178333Y0130000D01*
X0193333Y0130000D01*
X0188333Y0130000D01*
D23*
X0193333Y0150000D02*
X0208333Y0150000D01*
X0223333Y0165000D01*
X0223333Y0175000D01*
X0238333Y0160000D01*
X0253333Y0160000D01*
X0263333Y0160000D01*
X0318333Y0160000D01*
X0323333Y0165000D01*
X0323333Y0190000D01*
X0228255Y0269921D02*
X0228255Y0280000D01*
X0228255Y0269921D02*
X0223333Y0265000D01*
X0223333Y0260000D01*
X0187596Y0260000D01*
X0186046Y0258450D01*
X0180620Y0258450D01*
X0179070Y0260000D01*
X0173333Y0260000D01*
X0173333Y0265000D01*
X0173333Y0275000D01*
X0173333Y0260000D02*
X0143333Y0260000D01*
X0221483Y0258150D02*
X0223333Y0260000D01*
X0223333Y0175000D01*
X0223333Y0165000D02*
X0223333Y0090000D01*
X0238333Y0075000D01*
X0238333Y0061500D01*
X0248333Y0051500D01*
X0309833Y0051500D01*
X0323333Y0065000D01*
X0323333Y0070000D01*
X0223333Y0090000D02*
X0208333Y0075000D01*
X0208333Y0061500D01*
X0198333Y0051500D01*
X0126833Y0051500D01*
X0113333Y0065000D01*
X0113333Y0070000D01*
D24*
X0223333Y0090000D02*
X0223333Y0260000D01*
D25*
X0218412Y0265079D02*
X0218333Y0265000D01*
M02*
