%
M48
M72
T01C0.02756
T02C0.03200
T03C0.03543
T04C0.04000
T05C0.04400
T06C0.06299
T07C0.11800
T08C0.13000
%
T01
X168333Y120000
X168333Y130000
X168333Y140000
X168333Y150000
X183333Y150000
X183333Y160000
X163333Y165000
X153333Y165000
X143333Y190000
X143333Y205000
X143333Y240000
X138412Y270000
X148255Y270000
X173333Y265000
X183333Y265000
X218412Y280000
X228255Y280000
X263333Y160000
X263333Y150000
X285333Y120000
X285333Y110000
X285333Y89000
X285333Y80000
X245333Y65000
X231333Y65000
X215333Y65000
X201333Y65000
T02
X193333Y60000
X193333Y70000
X193333Y80000
X193333Y90000
X193333Y100000
X193333Y110000
X193333Y120000
X193333Y130000
X193333Y140000
X193333Y150000
X193333Y160000
X193333Y170000
X193333Y180000
X193333Y190000
X193333Y200000
X193333Y210000
X193333Y220000
X193333Y230000
X193333Y240000
X193333Y250000
X138333Y305000
X118333Y305000
X118333Y335000
X138333Y335000
X213333Y365000
X223333Y365000
X253333Y250000
X253333Y240000
X253333Y230000
X253333Y220000
X253333Y210000
X253333Y200000
X253333Y190000
X253333Y180000
X253333Y170000
X253333Y160000
X253333Y150000
X253333Y140000
X253333Y130000
X253333Y120000
X253333Y110000
X253333Y100000
X253333Y90000
X253333Y80000
X253333Y70000
X253333Y60000
X148333Y125500
X148333Y144500
T03
X153333Y175000
X183333Y175000
X218333Y310000
X218333Y340000
T04
X103333Y70000
X103333Y80000
X113333Y80000
X113333Y70000
X113333Y90000
X103333Y90000
X103333Y100000
X113333Y100000
X113333Y110000
X103333Y110000
X103333Y190000
X103333Y200000
X113333Y200000
X113333Y190000
X113333Y210000
X103333Y210000
X103333Y220000
X113333Y220000
X113333Y230000
X103333Y230000
X95533Y261100
X95533Y278900
X121133Y278900
X121133Y261100
X163333Y275000
X173333Y275000
X183333Y275000
X93333Y305000
X93333Y315000
X93333Y325000
X313333Y230000
X313333Y220000
X313333Y210000
X313333Y200000
X313333Y190000
X323333Y190000
X323333Y200000
X323333Y210000
X323333Y220000
X323333Y230000
X323333Y110000
X313333Y110000
X313333Y100000
X313333Y90000
X313333Y80000
X313333Y70000
X323333Y70000
X323333Y80000
X323333Y90000
X323333Y100000
T05
X118333Y140000
X108333Y140000
X108333Y150000
X108333Y160000
X118333Y160000
X118333Y150000
T06
X138333Y65000
X323333Y150000
X143333Y375000
T07
X127270Y365000
X115459Y346496
X103648Y365000
T08
X173333Y365000
M30
