G75*
%MOIN*%
%OFA0B0*%
%FSLAX25Y25*%
%IPPOS*%
%LPD*%
%AMOC8*
5,1,8,0,0,1.08239X$1,22.5*
%
%ADD10C,0.06400*%
%ADD11OC8,0.06400*%
%ADD12C,0.07300*%
%ADD13R,0.07300X0.07300*%
%ADD14C,0.07200*%
%ADD15C,0.13800*%
%ADD16C,0.06400*%
%ADD17C,0.08200*%
%ADD18C,0.08200*%
%ADD19C,0.17800*%
%ADD20C,0.05556*%
%ADD21C,0.10800*%
D10*
X0148333Y0125500D03*
X0148333Y0144500D03*
X0118333Y0305000D03*
D11*
X0138333Y0305000D03*
X0138333Y0335000D03*
X0118333Y0335000D03*
X0213333Y0365000D03*
X0223333Y0365000D03*
D12*
X0228255Y0280000D03*
X0183333Y0265000D03*
X0173333Y0265000D03*
X0138412Y0270000D03*
X0153333Y0165000D03*
X0163333Y0165000D03*
X0168333Y0150000D03*
X0168333Y0140000D03*
X0168333Y0130000D03*
X0168333Y0120000D03*
X0183333Y0150000D03*
X0183333Y0160000D03*
X0263333Y0160000D03*
X0263333Y0150000D03*
D13*
X0148255Y0270000D03*
X0218412Y0280000D03*
D14*
X0183333Y0278200D02*
X0183333Y0271800D01*
X0173333Y0271800D02*
X0173333Y0278200D01*
X0163333Y0278200D02*
X0163333Y0271800D01*
D15*
X0173333Y0365000D03*
D16*
X0190533Y0250000D02*
X0196133Y0250000D01*
X0196133Y0240000D02*
X0190533Y0240000D01*
X0190533Y0230000D02*
X0196133Y0230000D01*
X0196133Y0220000D02*
X0190533Y0220000D01*
X0190533Y0210000D02*
X0196133Y0210000D01*
X0196133Y0200000D02*
X0190533Y0200000D01*
X0190533Y0190000D02*
X0196133Y0190000D01*
X0196133Y0180000D02*
X0190533Y0180000D01*
X0190533Y0170000D02*
X0196133Y0170000D01*
X0196133Y0160000D02*
X0190533Y0160000D01*
X0190533Y0150000D02*
X0196133Y0150000D01*
X0196133Y0140000D02*
X0190533Y0140000D01*
X0190533Y0130000D02*
X0196133Y0130000D01*
X0196133Y0120000D02*
X0190533Y0120000D01*
X0190533Y0110000D02*
X0196133Y0110000D01*
X0196133Y0100000D02*
X0190533Y0100000D01*
X0190533Y0090000D02*
X0196133Y0090000D01*
X0196133Y0080000D02*
X0190533Y0080000D01*
X0190533Y0070000D02*
X0196133Y0070000D01*
X0196133Y0060000D02*
X0190533Y0060000D01*
X0250533Y0060000D02*
X0256133Y0060000D01*
X0256133Y0070000D02*
X0250533Y0070000D01*
X0250533Y0080000D02*
X0256133Y0080000D01*
X0256133Y0090000D02*
X0250533Y0090000D01*
X0250533Y0100000D02*
X0256133Y0100000D01*
X0256133Y0110000D02*
X0250533Y0110000D01*
X0250533Y0120000D02*
X0256133Y0120000D01*
X0256133Y0130000D02*
X0250533Y0130000D01*
X0250533Y0140000D02*
X0256133Y0140000D01*
X0256133Y0150000D02*
X0250533Y0150000D01*
X0250533Y0160000D02*
X0256133Y0160000D01*
X0256133Y0170000D02*
X0250533Y0170000D01*
X0250533Y0180000D02*
X0256133Y0180000D01*
X0256133Y0190000D02*
X0250533Y0190000D01*
X0250533Y0200000D02*
X0256133Y0200000D01*
X0256133Y0210000D02*
X0250533Y0210000D01*
X0250533Y0220000D02*
X0256133Y0220000D01*
X0256133Y0230000D02*
X0250533Y0230000D01*
X0250533Y0240000D02*
X0256133Y0240000D01*
X0256133Y0250000D02*
X0250533Y0250000D01*
D17*
X0125733Y0160000D02*
X0118333Y0160000D01*
X0108333Y0160000D02*
X0100933Y0160000D01*
X0100933Y0150000D02*
X0108333Y0150000D01*
X0118333Y0150000D02*
X0125733Y0150000D01*
X0125733Y0140000D02*
X0118333Y0140000D01*
X0108333Y0140000D02*
X0100933Y0140000D01*
D18*
X0103333Y0070000D03*
X0103333Y0080000D03*
X0113333Y0080000D03*
X0113333Y0070000D03*
X0113333Y0090000D03*
X0103333Y0090000D03*
X0103333Y0100000D03*
X0113333Y0100000D03*
X0113333Y0110000D03*
X0103333Y0110000D03*
X0153333Y0175000D03*
X0183333Y0175000D03*
X0113333Y0190000D03*
X0103333Y0190000D03*
X0103333Y0200000D03*
X0113333Y0200000D03*
X0113333Y0210000D03*
X0103333Y0210000D03*
X0103333Y0220000D03*
X0113333Y0220000D03*
X0113333Y0230000D03*
X0103333Y0230000D03*
X0095533Y0261100D03*
X0095533Y0278900D03*
X0121133Y0278900D03*
X0121133Y0261100D03*
X0093333Y0305000D03*
X0093333Y0315000D03*
X0093333Y0325000D03*
X0218333Y0310000D03*
X0218333Y0340000D03*
X0313333Y0230000D03*
X0313333Y0220000D03*
X0313333Y0210000D03*
X0313333Y0200000D03*
X0313333Y0190000D03*
X0323333Y0190000D03*
X0323333Y0200000D03*
X0323333Y0210000D03*
X0323333Y0220000D03*
X0323333Y0230000D03*
X0323333Y0110000D03*
X0313333Y0110000D03*
X0313333Y0100000D03*
X0313333Y0090000D03*
X0313333Y0080000D03*
X0313333Y0070000D03*
X0323333Y0070000D03*
X0323333Y0080000D03*
X0323333Y0090000D03*
X0323333Y0100000D03*
D19*
X0115459Y0346496D03*
X0103648Y0365000D03*
X0127270Y0365000D03*
D20*
X0143333Y0240000D03*
X0143333Y0205000D03*
X0143333Y0190000D03*
X0201333Y0065000D03*
X0215333Y0065000D03*
X0231333Y0065000D03*
X0245333Y0065000D03*
X0285333Y0080000D03*
X0285333Y0089000D03*
X0285333Y0110000D03*
X0285333Y0120000D03*
D21*
X0323333Y0150000D03*
X0138333Y0065000D03*
X0143333Y0375000D03*
M02*
